M48
; DRILL file {KiCad 9.0.4} date 2025-09-29T12:29:08-0500
; FORMAT={-:-/ absolute / inch / decimal}
; #@! TF.CreationDate,2025-09-29T12:29:08-05:00
; #@! TF.GenerationSoftware,Kicad,Pcbnew,9.0.4
; #@! TF.FileFunction,Plated,1,6,PTH
FMAT,2
INCH
; #@! TA.AperFunction,Plated,PTH,ViaDrill
T1C0.0059
; #@! TA.AperFunction,Plated,PTH,ViaDrill
T2C0.0079
; #@! TA.AperFunction,Plated,PTH,ComponentDrill
T3C0.0394
%
G90
G05
T1
X4.4776Y-3.622
X4.4783Y-3.589
X4.4783Y-3.6551
X4.4805Y-3.5559
X4.4805Y-3.6882
X4.4841Y-3.523
X4.4841Y-3.7211
X4.4891Y-3.4903
X4.4891Y-3.7538
X4.4934Y-3.622
X4.4941Y-3.5896
X4.4941Y-3.6545
X4.4956Y-3.4579
X4.4956Y-3.7862
X4.4962Y-3.5573
X4.4962Y-3.6868
X4.4997Y-3.5251
X4.4997Y-3.719
X4.5035Y-3.4257
X4.5035Y-3.8184
X4.5046Y-3.4931
X4.5046Y-3.751
X4.5091Y-3.622
X4.5098Y-3.6538
X4.5098Y-3.5903
X4.511Y-3.4613
X4.511Y-3.7828
X4.5119Y-3.6854
X4.5119Y-3.5587
X4.5127Y-3.3939
X4.5127Y-3.8502
X4.5153Y-3.717
X4.5153Y-3.5271
X4.5187Y-3.4298
X4.5187Y-3.8143
X4.5202Y-3.7483
X4.5202Y-3.4958
X4.5234Y-3.3626
X4.5234Y-3.8815
X4.5264Y-3.7794
X4.5264Y-3.4647
X4.5277Y-3.3987
X4.5277Y-3.8454
X4.5339Y-3.8102
X4.5339Y-3.4339
X4.5354Y-3.3317
X4.5354Y-3.9124
X4.5382Y-3.368
X4.5382Y-3.8761
X4.5428Y-3.8407
X4.5428Y-3.4034
X4.5487Y-3.3014
X4.5487Y-3.9427
X4.5499Y-3.3378
X4.5499Y-3.9063
X4.553Y-3.8707
X4.553Y-3.3734
X4.563Y-3.3081
X4.563Y-3.936
X4.5633Y-3.2718
X4.5633Y-3.9723
X4.5645Y-3.9003
X4.5645Y-3.3438
X4.5772Y-3.9293
X4.5773Y-3.3148
X4.5773Y-3.279
X4.5773Y-3.9651
X4.5792Y-3.2427
X4.5792Y-4.0014
X4.5913Y-3.9578
X4.5913Y-3.2863
X4.5929Y-3.2506
X4.5929Y-3.9935
X4.5964Y-3.2144
X4.5964Y-4.0296
X4.6065Y-3.9856
X4.6065Y-3.2585
X4.6097Y-3.2229
X4.6097Y-4.0212
X4.6148Y-3.1869
X4.6148Y-4.0572
X4.623Y-4.0127
X4.623Y-3.2314
X4.6277Y-3.196
X4.6277Y-4.0481
X4.6344Y-3.1602
X4.6344Y-4.0839
X4.6406Y-4.0391
X4.6406Y-3.205
X4.6469Y-3.1698
X4.6469Y-4.0743
X4.6551Y-3.1344
X4.6551Y-4.1097
X4.6594Y-4.0647
X4.6594Y-3.1794
X4.6672Y-3.1445
X4.6672Y-4.0995
X4.6769Y-3.1095
X4.6769Y-4.1346
X4.6792Y-4.0894
X4.6792Y-3.1547
X4.6885Y-3.1202
X4.6885Y-4.1239
X4.6998Y-3.0856
X4.6998Y-4.1585
X4.7002Y-4.1133
X4.7002Y-3.1308
X4.7109Y-3.0968
X4.7109Y-4.1473
X4.7221Y-4.1362
X4.7221Y-3.1079
X4.7237Y-3.0627
X4.7237Y-4.1814
X4.7344Y-3.0744
X4.7344Y-4.1697
X4.745Y-4.1581
X4.745Y-3.086
X4.7486Y-3.0409
X4.7486Y-4.2032
X4.7587Y-3.053
X4.7587Y-4.1911
X4.7689Y-4.179
X4.7689Y-3.0651
X4.7744Y-3.0202
X4.7744Y-4.2239
X4.784Y-3.0327
X4.784Y-4.2114
X4.7936Y-4.1989
X4.7936Y-3.0452
X4.8011Y-3.0006
X4.8011Y-4.2435
X4.8101Y-3.0135
X4.8101Y-4.2306
X4.8192Y-4.2176
X4.8192Y-3.0264
X4.8286Y-2.9822
X4.8286Y-4.2619
X4.8371Y-2.9955
X4.8371Y-4.2486
X4.8456Y-4.2353
X4.8456Y-3.0088
X4.8569Y-2.9651
X4.8569Y-4.279
X4.8648Y-2.9787
X4.8648Y-4.2654
X4.8718Y-4.2504
X4.8727Y-2.9924
X4.8859Y-2.9492
X4.8859Y-4.2949
X4.8932Y-2.9631
X4.8932Y-4.281
X4.9005Y-4.267
X4.9005Y-2.9771
X4.9156Y-2.9345
X4.9156Y-4.3096
X4.9223Y-2.9488
X4.9223Y-4.2953
X4.9289Y-4.281
X4.9289Y-2.9631
X4.9459Y-2.9212
X4.9459Y-4.3229
X4.9519Y-2.9357
X4.9519Y-4.3084
X4.958Y-4.2938
X4.958Y-2.9503
X4.9768Y-2.9092
X4.9768Y-4.3349
X4.9821Y-2.924
X4.9821Y-4.3201
X4.9875Y-4.3053
X4.9875Y-2.9388
X5.0081Y-2.8986
X5.0081Y-4.3455
X5.0128Y-2.9136
X5.0128Y-4.3305
X5.0176Y-4.3155
X5.0176Y-2.9286
X5.0399Y-2.8893
X5.0399Y-4.3548
X5.044Y-2.9045
X5.044Y-4.3396
X5.048Y-4.3244
X5.048Y-2.9197
X5.072Y-2.8814
X5.072Y-4.3627
X5.0754Y-2.8968
X5.0754Y-4.3473
X5.0788Y-4.3319
X5.0788Y-2.9122
X5.1045Y-2.875
X5.1045Y-4.3691
X5.1072Y-2.8905
X5.1072Y-4.3536
X5.11Y-4.3381
X5.11Y-2.906
X5.1372Y-2.8699
X5.1372Y-4.3742
X5.1393Y-2.8855
X5.1393Y-4.3586
X5.1413Y-4.3429
X5.1413Y-2.9012
X5.1701Y-2.8663
X5.1701Y-4.3778
X5.1715Y-2.882
X5.1715Y-4.3621
X5.1728Y-4.3464
X5.1729Y-2.8977
X5.2031Y-2.8642
X5.2031Y-4.3799
X5.2038Y-2.8799
X5.2038Y-4.3642
X5.2045Y-4.3484
X5.2045Y-2.8956
X5.2362Y-2.8634
X5.2362Y-2.8792
X5.2362Y-4.3491
X5.2362Y-2.895
X5.2362Y-4.3649
X5.2362Y-4.3807
X5.2679Y-4.3484
X5.2679Y-2.8956
X5.2686Y-2.8799
X5.2686Y-4.3642
X5.2693Y-2.8642
X5.2693Y-4.3799
X5.2996Y-4.3464
X5.2996Y-2.8977
X5.301Y-2.882
X5.301Y-4.3621
X5.3023Y-2.8663
X5.3023Y-4.3778
X5.3311Y-4.3429
X5.3311Y-2.9012
X5.3332Y-2.8855
X5.3332Y-4.3586
X5.3352Y-2.8699
X5.3352Y-4.3742
X5.3625Y-4.3381
X5.3625Y-2.906
X5.3652Y-2.8905
X5.3652Y-4.3536
X5.3679Y-2.875
X5.368Y-4.3691
X5.3936Y-4.3319
X5.3936Y-2.9122
X5.397Y-2.8968
X5.397Y-4.3473
X5.4004Y-2.8814
X5.4004Y-4.3627
X5.4244Y-4.3244
X5.4244Y-2.9197
X5.4285Y-2.9045
X5.4285Y-4.3396
X5.4326Y-2.8893
X5.4326Y-4.3548
X5.4549Y-4.3155
X5.4549Y-2.9286
X5.4596Y-2.9136
X5.4596Y-4.3305
X5.4643Y-2.8985
X5.4643Y-4.3455
X5.4849Y-4.3053
X5.4849Y-2.9388
X5.4903Y-2.924
X5.4903Y-4.3201
X5.4957Y-2.9092
X5.4957Y-4.3349
X5.5145Y-4.2938
X5.5145Y-2.9503
X5.5205Y-2.9357
X5.5205Y-4.3084
X5.5265Y-2.9212
X5.5265Y-4.3229
X5.5435Y-4.281
X5.5435Y-2.9631
X5.5502Y-2.9488
X5.5502Y-4.2953
X5.5568Y-2.9345
X5.5568Y-4.3096
X5.572Y-4.267
X5.5724Y-2.9777
X5.5792Y-2.9631
X5.5792Y-4.281
X5.5865Y-2.9492
X5.5865Y-4.2949
X5.5998Y-4.2517
X5.5998Y-2.9924
X5.6076Y-2.9787
X5.6077Y-4.2654
X5.6155Y-2.9651
X5.6155Y-4.279
X5.6269Y-4.2353
X5.6269Y-3.0088
X5.6354Y-2.9955
X5.6354Y-4.2486
X5.6438Y-2.9822
X5.6438Y-4.2618
X5.6533Y-4.2176
X5.6533Y-3.0264
X5.6623Y-3.0135
X5.6623Y-4.2306
X5.6713Y-3.0006
X5.6713Y-4.2435
X5.6788Y-4.1989
X5.6788Y-3.0452
X5.6884Y-3.0327
X5.6884Y-4.2114
X5.698Y-3.0202
X5.698Y-4.2239
X5.7036Y-4.179
X5.7036Y-3.0651
X5.7137Y-3.053
X5.7137Y-4.1911
X5.7238Y-3.0409
X5.7238Y-4.2032
X5.7274Y-4.1581
X5.7274Y-3.086
X5.7381Y-3.0744
X5.7381Y-4.1697
X5.7487Y-3.0627
X5.7487Y-4.1814
X5.7504Y-4.1362
X5.7504Y-3.1079
X5.7615Y-3.0968
X5.7615Y-4.1473
X5.7723Y-4.1133
X5.7723Y-3.1308
X5.7726Y-3.0856
X5.7726Y-4.1585
X5.7839Y-3.1202
X5.7839Y-4.1239
X5.7932Y-4.0894
X5.7932Y-3.1547
X5.7955Y-3.1095
X5.7955Y-4.1346
X5.8053Y-3.1445
X5.8053Y-4.0995
X5.8131Y-4.0647
X5.8131Y-3.1794
X5.8173Y-3.1344
X5.8173Y-4.1097
X5.8256Y-3.1698
X5.8256Y-4.0743
X5.8318Y-4.0391
X5.8318Y-3.205
X5.8381Y-3.1602
X5.8381Y-4.0839
X5.8447Y-3.196
X5.8447Y-4.0481
X5.8494Y-4.0127
X5.8494Y-3.2314
X5.8576Y-3.1869
X5.8576Y-4.0572
X5.8627Y-3.2229
X5.8627Y-4.0212
X5.8659Y-3.9856
X5.8659Y-3.2585
X5.876Y-3.2144
X5.876Y-4.0296
X5.8796Y-3.2506
X5.8796Y-3.9935
X5.8812Y-3.9578
X5.8812Y-3.2863
X5.8932Y-3.2427
X5.8932Y-4.0013
X5.8951Y-3.279
X5.8951Y-3.9651
X5.8952Y-3.9293
X5.8952Y-3.3148
X5.908Y-3.9003
X5.908Y-3.3438
X5.9091Y-3.2718
X5.9091Y-3.9723
X5.9095Y-3.3081
X5.9095Y-3.936
X5.9195Y-3.8707
X5.9195Y-3.3734
X5.9225Y-3.3378
X5.9225Y-3.9063
X5.9238Y-3.3014
X5.9238Y-3.9426
X5.9297Y-3.8407
X5.9297Y-3.4034
X5.9343Y-3.368
X5.9343Y-3.8761
X5.9371Y-3.3317
X5.9371Y-3.9124
X5.9385Y-3.8102
X5.9385Y-3.4339
X5.9447Y-3.3987
X5.9447Y-3.8454
X5.9461Y-3.7794
X5.9461Y-3.4647
X5.9491Y-3.3626
X5.9491Y-3.8815
X5.9523Y-3.7483
X5.9523Y-3.4958
X5.9538Y-3.4298
X5.9538Y-3.8143
X5.9571Y-3.717
X5.9571Y-3.5271
X5.9597Y-3.3939
X5.9597Y-3.8502
X5.9605Y-3.6854
X5.9605Y-3.5587
X5.9615Y-3.4613
X5.9615Y-3.7828
X5.9626Y-3.6538
X5.9626Y-3.5903
X5.9633Y-3.622
X5.9678Y-3.493
X5.9678Y-3.751
X5.969Y-3.4257
X5.969Y-3.8184
X5.9727Y-3.5251
X5.9727Y-3.719
X5.9763Y-3.5573
X5.9763Y-3.6868
X5.9768Y-3.4579
X5.9768Y-3.7862
X5.9784Y-3.5896
X5.9784Y-3.6544
X5.9791Y-3.622
X5.9833Y-3.4903
X5.9833Y-3.7538
X5.9883Y-3.523
X5.9883Y-3.7211
X5.9919Y-3.5559
X5.9919Y-3.6882
X5.9941Y-3.589
X5.9941Y-3.6551
X5.9948Y-3.622
T2
X3.5502Y-3.622
X3.5503Y-3.5975
X3.5503Y-3.6466
X3.5508Y-3.6711
X3.5509Y-3.573
X3.5518Y-3.5485
X3.5518Y-3.6956
X3.553Y-3.524
X3.553Y-3.7201
X3.5546Y-3.7446
X3.5546Y-3.4995
X3.5566Y-3.4751
X3.5566Y-3.769
X3.5589Y-3.4507
X3.5589Y-3.7934
X3.5615Y-3.8178
X3.5615Y-3.4263
X3.5646Y-3.402
X3.5646Y-3.8421
X3.5679Y-3.3777
X3.568Y-3.8664
X3.5698Y-3.622
X3.57Y-3.5978
X3.57Y-3.6463
X3.5705Y-3.6705
X3.5705Y-3.5736
X3.5714Y-3.5494
X3.5714Y-3.6947
X3.5717Y-3.8907
X3.5717Y-3.3534
X3.5726Y-3.5252
X3.5727Y-3.7189
X3.5742Y-3.7431
X3.5742Y-3.501
X3.5758Y-3.3293
X3.5758Y-3.9148
X3.5762Y-3.4768
X3.5762Y-3.7673
X3.5784Y-3.4527
X3.5785Y-3.7914
X3.5802Y-3.3051
X3.5802Y-3.9389
X3.5811Y-3.8155
X3.5811Y-3.4286
X3.5841Y-3.4045
X3.5841Y-3.8396
X3.585Y-3.963
X3.585Y-3.2811
X3.5874Y-3.3805
X3.5874Y-3.8636
X3.5895Y-3.622
X3.5897Y-3.5981
X3.5897Y-3.646
X3.5901Y-3.2571
X3.5901Y-3.987
X3.5902Y-3.6699
X3.5902Y-3.5742
X3.5911Y-3.5502
X3.5911Y-3.6939
X3.5911Y-3.8875
X3.5911Y-3.3566
X3.5923Y-3.5263
X3.5923Y-3.7178
X3.5939Y-3.7417
X3.5939Y-3.5024
X3.5952Y-3.3327
X3.5952Y-3.9114
X3.5956Y-3.2332
X3.5956Y-4.0109
X3.5958Y-3.4785
X3.5958Y-3.7656
X3.598Y-3.4547
X3.598Y-3.7894
X3.5995Y-3.3088
X3.5995Y-3.9352
X3.6006Y-3.8132
X3.6007Y-3.4309
X3.6014Y-4.0347
X3.6014Y-3.2094
X3.6036Y-3.4071
X3.6036Y-3.837
X3.6042Y-3.959
X3.6043Y-3.2851
X3.6069Y-3.3834
X3.6069Y-3.8607
X3.6076Y-3.1857
X3.6076Y-4.0584
X3.6093Y-3.2614
X3.6093Y-3.9827
X3.6105Y-3.8844
X3.6105Y-3.3597
X3.6141Y-3.162
X3.6141Y-4.0821
X3.6145Y-3.3361
X3.6145Y-3.908
X3.6147Y-3.2377
X3.6148Y-4.0063
X3.6189Y-3.3125
X3.6189Y-3.9315
X3.6205Y-4.0299
X3.6205Y-3.2142
X3.621Y-4.1056
X3.621Y-3.1385
X3.6235Y-3.955
X3.6235Y-3.2891
X3.6266Y-3.1908
X3.6266Y-4.0533
X3.6282Y-3.115
X3.6282Y-4.1291
X3.6286Y-3.2656
X3.6286Y-3.9785
X3.633Y-3.1674
X3.6331Y-4.0767
X3.6339Y-3.2423
X3.6339Y-4.0018
X3.6357Y-3.0917
X3.6357Y-4.1524
X3.6396Y-4.0251
X3.6396Y-3.219
X3.6398Y-4.1
X3.6398Y-3.1441
X3.6436Y-4.1756
X3.6436Y-3.0685
X3.6456Y-3.1959
X3.6456Y-4.0482
X3.647Y-3.121
X3.647Y-4.1231
X3.6518Y-3.0454
X3.6518Y-4.1987
X3.652Y-3.1728
X3.652Y-4.0713
X3.6544Y-3.0979
X3.6544Y-4.1462
X3.6587Y-4.0943
X3.6587Y-3.1498
X3.6604Y-3.0224
X3.6604Y-4.2217
X3.6622Y-4.1692
X3.6622Y-3.0749
X3.6657Y-3.1269
X3.6657Y-4.1172
X3.6693Y-4.2446
X3.6693Y-2.9995
X3.6703Y-3.0521
X3.6703Y-4.192
X3.6731Y-3.1041
X3.6731Y-4.14
X3.6785Y-2.9768
X3.6785Y-4.2673
X3.6788Y-3.0294
X3.6788Y-4.2147
X3.6808Y-4.1627
X3.6808Y-3.0814
X3.6876Y-4.2373
X3.6876Y-3.0068
X3.688Y-2.9542
X3.688Y-4.2899
X3.6888Y-3.0588
X3.6888Y-4.1852
X3.6967Y-2.9844
X3.6967Y-4.2597
X3.6972Y-3.0364
X3.6972Y-4.2077
X3.6979Y-4.3123
X3.6979Y-2.9318
X3.7058Y-4.23
X3.7059Y-3.0141
X3.7061Y-2.962
X3.7061Y-4.2821
X3.7081Y-2.9095
X3.7081Y-4.3346
X3.7149Y-2.9919
X3.7149Y-4.2522
X3.7159Y-4.3043
X3.7159Y-2.9398
X3.7186Y-2.8873
X3.7186Y-4.3568
X3.7242Y-2.9698
X3.7242Y-4.2743
X3.726Y-2.9178
X3.726Y-4.3263
X3.7295Y-4.3788
X3.7295Y-2.8653
X3.7338Y-4.2962
X3.7338Y-2.9479
X3.7364Y-2.8959
X3.7364Y-4.3482
X3.7407Y-2.8435
X3.7407Y-4.4006
X3.7438Y-2.9261
X3.7438Y-4.318
X3.7471Y-4.3699
X3.7471Y-2.8742
X3.7521Y-2.8218
X3.7521Y-4.4223
X3.7541Y-2.9045
X3.7541Y-4.3396
X3.7581Y-2.8526
X3.7581Y-4.3915
X3.7639Y-2.8003
X3.7647Y-4.3611
X3.7647Y-2.883
X3.7695Y-2.8312
X3.7695Y-4.4129
X3.773Y-4.499
X3.7756Y-2.8617
X3.7756Y-4.3824
X3.776Y-2.779
X3.7811Y-2.8099
X3.7857Y-4.52
X3.7868Y-2.8405
X3.7868Y-4.4036
X3.7884Y-2.7579
X3.7899Y-4.4889
X3.7931Y-2.7889
X3.7983Y-2.8195
X3.7988Y-4.5407
X3.8012Y-2.7369
X3.8025Y-4.5096
X3.8053Y-2.7679
X3.8068Y-4.4788
X3.8101Y-2.7987
X3.8121Y-4.5613
X3.8142Y-2.7161
X3.8154Y-4.5301
X3.8179Y-2.7472
X3.8192Y-4.4993
X3.8222Y-2.778
X3.8257Y-4.5817
X3.8275Y-2.6955
X3.8286Y-4.5505
X3.8308Y-2.7267
X3.832Y-4.5196
X3.8347Y-2.7576
X3.8397Y-4.6019
X3.8412Y-2.6751
X3.842Y-4.5707
X3.844Y-2.7063
X3.845Y-4.5397
X3.8474Y-2.7373
X3.8539Y-4.6219
X3.8551Y-2.655
X3.8558Y-4.5906
X3.8574Y-2.6862
X3.8583Y-4.5596
X3.8604Y-2.7172
X3.8683Y-4.6417
X3.8693Y-2.635
X3.8698Y-4.6104
X3.8712Y-2.6663
X3.8719Y-4.5793
X3.8737Y-2.6973
X3.8832Y-4.6612
X3.8838Y-2.6152
X3.8841Y-4.6299
X3.8852Y-2.6465
X3.8858Y-4.5988
X3.8873Y-2.6775
X3.8986Y-2.5956
X3.8988Y-4.6492
X3.8996Y-2.627
X3.8999Y-4.6182
X3.9012Y-2.658
X3.9136Y-2.5763
X3.9142Y-2.6076
X3.9144Y-4.6372
X3.9154Y-2.6387
X3.929Y-4.6869
X3.929Y-2.5572
X3.9291Y-2.5885
X3.9298Y-2.6196
X3.9442Y-4.6745
X3.9443Y-2.5696
X3.9445Y-2.6007
X3.9446Y-2.5383
X3.9446Y-4.7058
X3.9595Y-4.6621
X3.9595Y-2.582
X3.9597Y-2.5509
X3.9597Y-4.6932
X3.9605Y-2.5196
X3.9605Y-4.7245
X3.9748Y-2.5636
X3.9748Y-4.6805
X3.9754Y-2.5325
X3.9754Y-4.7116
X3.9767Y-4.743
X3.9767Y-2.5012
X3.9903Y-2.5453
X3.9903Y-4.6988
X3.9914Y-4.7299
X3.9914Y-2.5142
X3.9931Y-2.483
X3.9931Y-4.7611
X4.0061Y-4.7168
X4.0061Y-2.5273
X4.0076Y-2.4963
X4.0076Y-4.7478
X4.0098Y-2.465
X4.0098Y-4.7791
X4.0222Y-2.5096
X4.0222Y-4.7345
X4.0241Y-2.4785
X4.0241Y-4.7656
X4.0268Y-4.7968
X4.0268Y-2.4473
X4.0384Y-2.492
X4.0385Y-4.7521
X4.0409Y-4.7831
X4.0409Y-2.461
X4.044Y-2.4298
X4.044Y-4.8143
X4.055Y-4.7694
X4.055Y-2.4747
X4.0579Y-2.4437
X4.0579Y-4.8004
X4.0614Y-2.4126
X4.0615Y-4.8315
X4.0718Y-2.4577
X4.0718Y-4.7864
X4.0752Y-2.4267
X4.0752Y-4.8174
X4.0792Y-4.8485
X4.0792Y-2.3956
X4.0889Y-2.4408
X4.0889Y-4.8033
X4.0927Y-4.8341
X4.0927Y-2.41
X4.0971Y-2.379
X4.0971Y-4.8651
X4.1062Y-4.8198
X4.1062Y-2.4243
X4.1104Y-2.3935
X4.1104Y-4.8506
X4.1153Y-2.3625
X4.1153Y-4.8816
X4.1237Y-2.408
X4.1237Y-4.8361
X4.1284Y-2.3772
X4.1284Y-4.8669
X4.1338Y-4.8978
X4.1338Y-2.3463
X4.1415Y-2.3919
X4.1415Y-4.8522
X4.1466Y-4.8829
X4.1466Y-2.3612
X4.1524Y-2.3304
X4.1524Y-4.9136
X4.1595Y-4.868
X4.1595Y-2.3761
X4.1651Y-2.3455
X4.1651Y-4.8986
X4.1713Y-2.3148
X4.1713Y-4.9293
X4.1777Y-2.3606
X4.1777Y-4.8835
X4.1838Y-2.3301
X4.1838Y-4.914
X4.1904Y-4.9446
X4.1905Y-2.2995
X4.1962Y-2.3453
X4.1962Y-4.8988
X4.2027Y-4.9292
X4.2027Y-2.3149
X4.2098Y-2.2844
X4.2098Y-4.9597
X4.2149Y-4.9138
X4.2149Y-2.3303
X4.2218Y-2.3
X4.2218Y-4.9441
X4.2294Y-2.2696
X4.2294Y-4.9745
X4.2338Y-2.3156
X4.2338Y-4.9285
X4.2411Y-2.2854
X4.2411Y-4.9587
X4.2491Y-4.989
X4.2491Y-2.2551
X4.2529Y-2.3012
X4.2529Y-4.9429
X4.2607Y-4.973
X4.2607Y-2.2711
X4.2691Y-2.2409
X4.2691Y-5.0032
X4.2722Y-4.9571
X4.2722Y-2.287
X4.2804Y-2.257
X4.2804Y-4.9871
X4.2893Y-2.227
X4.2893Y-5.0171
X4.2917Y-2.2732
X4.2917Y-4.9709
X4.3004Y-2.2433
X4.3004Y-5.0008
X4.3097Y-5.0308
X4.3097Y-2.2134
X4.3114Y-2.2595
X4.3114Y-4.9845
X4.3205Y-5.0143
X4.3205Y-2.2298
X4.3303Y-2.2
X4.3303Y-5.0441
X4.3313Y-4.9979
X4.3313Y-2.2462
X4.3409Y-2.2166
X4.3409Y-5.0275
X4.3511Y-2.187
X4.3511Y-5.0571
X4.3515Y-2.2332
X4.3515Y-5.0109
X4.3593Y-3.622
X4.3601Y-3.5838
X4.3601Y-3.6603
X4.3614Y-2.2037
X4.3614Y-5.0403
X4.3626Y-3.5456
X4.3626Y-3.6985
X4.3668Y-3.5076
X4.3668Y-3.7365
X4.3717Y-2.2205
X4.3717Y-5.0236
X4.372Y-2.1743
X4.3726Y-3.4698
X4.3726Y-3.7743
X4.379Y-3.622
X4.3798Y-3.5847
X4.3798Y-3.6594
X4.3801Y-3.4322
X4.3801Y-3.8119
X4.3821Y-2.1912
X4.3822Y-3.5473
X4.3822Y-3.6968
X4.3863Y-3.5102
X4.3863Y-3.7339
X4.3892Y-3.3951
X4.3892Y-3.849
X4.392Y-3.4732
X4.392Y-3.7709
X4.3922Y-2.2081
X4.3932Y-2.1619
X4.3987Y-3.622
X4.3993Y-3.4365
X4.3993Y-3.8076
X4.3995Y-3.6586
X4.3995Y-3.5855
X4.3999Y-3.3584
X4.3999Y-3.8857
X4.4019Y-3.695
X4.4019Y-3.5491
X4.403Y-2.1789
X4.4059Y-3.7314
X4.4059Y-3.5127
X4.4082Y-3.4002
X4.4082Y-3.8439
X4.4091Y-5.1122
X4.4114Y-3.7675
X4.4114Y-3.4766
X4.4122Y-3.3221
X4.4122Y-3.922
X4.4129Y-2.196
X4.4145Y-2.1497
X4.4184Y-3.622
X4.4185Y-3.8033
X4.4185Y-3.4408
X4.4187Y-3.3643
X4.4187Y-3.8798
X4.4187Y-5.095
X4.4191Y-3.5864
X4.4191Y-3.6577
X4.4215Y-3.5508
X4.4215Y-3.6933
X4.4241Y-2.1669
X4.4254Y-3.5153
X4.4254Y-3.7288
X4.426Y-3.2865
X4.426Y-3.9576
X4.4272Y-3.8388
X4.4272Y-3.4053
X4.4283Y-5.0778
X4.4306Y-5.124
X4.4307Y-3.3289
X4.4307Y-3.9152
X4.4308Y-3.48
X4.4308Y-3.7641
X4.4337Y-2.1841
X4.4375Y-3.8739
X4.4375Y-3.3702
X4.4377Y-3.445
X4.4377Y-3.7991
X4.4381Y-3.622
X4.4388Y-3.5872
X4.4388Y-3.6569
X4.4399Y-5.1067
X4.4411Y-3.5525
X4.4411Y-3.6916
X4.4415Y-3.2514
X4.4415Y-3.9927
X4.4442Y-3.294
X4.4442Y-3.9501
X4.4449Y-3.5179
X4.4449Y-3.7262
X4.4462Y-3.4104
X4.4462Y-3.8337
X4.4492Y-3.9085
X4.4492Y-3.3356
X4.4493Y-5.0893
X4.4502Y-3.4834
X4.4502Y-3.7606
X4.4522Y-5.1354
X4.4562Y-3.3761
X4.4562Y-3.868
X4.457Y-3.4493
X4.457Y-3.7948
X4.4578Y-3.622
X4.4584Y-3.2171
X4.4584Y-4.027
X4.4585Y-3.656
X4.4585Y-3.5881
X4.4593Y-3.2598
X4.4593Y-3.9843
X4.4607Y-3.6899
X4.4607Y-3.5542
X4.4613Y-5.118
X4.4624Y-3.9426
X4.4624Y-3.3015
X4.4644Y-3.7237
X4.4644Y-3.5204
X4.4652Y-3.4155
X4.4653Y-3.8286
X4.4677Y-3.3423
X4.4677Y-3.9018
X4.4696Y-3.7572
X4.4696Y-3.4869
X4.4704Y-5.1005
X4.4705Y-2.0987
X4.4741Y-5.1466
X4.475Y-3.382
X4.475Y-3.8621
X4.4758Y-3.2262
X4.4758Y-4.0179
X4.4762Y-3.7905
X4.4762Y-3.4536
X4.4768Y-3.1836
X4.4768Y-4.0605
X4.4772Y-3.976
X4.4772Y-3.2681
X4.4794Y-2.1163
X4.4806Y-3.3091
X4.4806Y-3.935
X4.4829Y-5.129
X4.4843Y-3.8235
X4.4843Y-3.4206
X4.4862Y-3.3491
X4.4862Y-3.895
X4.4882Y-2.1339
X4.4917Y-5.1114
X4.4925Y-2.0878
X4.4933Y-4.0088
X4.4933Y-3.2353
X4.4938Y-3.8561
X4.4938Y-3.388
X4.4938Y-3.1934
X4.4938Y-4.0507
X4.495Y-3.2764
X4.495Y-3.9677
X4.4961Y-5.1575
X4.4966Y-3.1509
X4.4966Y-4.0932
X4.4988Y-3.3166
X4.4988Y-3.9275
X4.5011Y-2.1056
X4.5046Y-5.1398
X4.5047Y-3.8883
X4.5047Y-3.3558
X4.5097Y-2.1233
X4.5108Y-3.2444
X4.5108Y-3.9997
X4.5109Y-4.0408
X4.5109Y-3.2033
X4.5128Y-3.2847
X4.5128Y-3.9594
X4.5132Y-5.122
X4.5132Y-3.1615
X4.5132Y-4.0826
X4.5147Y-2.0773
X4.517Y-3.9199
X4.517Y-3.3241
X4.5179Y-3.1191
X4.5179Y-4.125
X4.5182Y-5.168
X4.523Y-2.0952
X4.5265Y-5.1501
X4.5279Y-3.2131
X4.5279Y-4.031
X4.5282Y-3.2535
X4.5282Y-3.9906
X4.5299Y-4.072
X4.5299Y-3.172
X4.5307Y-3.951
X4.5307Y-3.2931
X4.5313Y-2.113
X4.534Y-3.1304
X4.534Y-4.1137
X4.5349Y-5.1323
X4.537Y-2.0671
X4.5405Y-3.0882
X4.5405Y-4.1559
X4.5405Y-5.1782
X4.545Y-3.223
X4.545Y-4.0211
X4.545Y-2.0851
X4.5457Y-3.9815
X4.5457Y-3.2626
X4.5464Y-3.1826
X4.5464Y-4.0615
X4.5486Y-5.1602
X4.5502Y-4.1024
X4.5502Y-3.1417
X4.5531Y-2.103
X4.5561Y-3.1002
X4.5561Y-4.1439
X4.5566Y-5.1423
X4.5594Y-2.0572
X4.5621Y-4.0113
X4.5621Y-3.2328
X4.563Y-5.1881
X4.5631Y-3.1932
X4.5631Y-4.0509
X4.5645Y-3.0584
X4.5645Y-4.1857
X4.5663Y-3.1529
X4.5663Y-4.0912
X4.5672Y-2.0753
X4.5708Y-5.17
X4.5718Y-4.1319
X4.5718Y-3.1122
X4.575Y-2.0934
X4.5786Y-5.1519
X4.5795Y-3.071
X4.5795Y-4.1731
X4.5797Y-4.0403
X4.5797Y-3.2038
X4.582Y-2.0477
X4.5824Y-3.1642
X4.5824Y-4.0799
X4.5856Y-5.1976
X4.5874Y-3.1242
X4.5874Y-4.1199
X4.5895Y-2.0659
X4.5897Y-3.0296
X4.5897Y-4.2145
X4.5931Y-5.1794
X4.5946Y-4.1604
X4.5946Y-3.0837
X4.5971Y-2.0841
X4.5985Y-4.0686
X4.5985Y-3.1755
X4.6006Y-5.1612
X4.603Y-3.1362
X4.603Y-4.1079
X4.6042Y-3.0429
X4.6042Y-4.2012
X4.6047Y-2.0385
X4.6097Y-3.0963
X4.6097Y-4.1478
X4.612Y-2.0568
X4.6161Y-3.002
X4.6161Y-4.2421
X4.6186Y-4.0959
X4.6186Y-3.1482
X4.6187Y-4.1879
X4.6187Y-3.0562
X4.6193Y-2.075
X4.6248Y-3.109
X4.6248Y-4.1351
X4.6276Y-2.0296
X4.6301Y-3.0159
X4.6301Y-4.2282
X4.6332Y-3.0695
X4.6332Y-4.1746
X4.6346Y-2.048
X4.6366Y-5.1979
X4.6399Y-4.1224
X4.6399Y-3.1217
X4.6416Y-2.0664
X4.6436Y-5.1795
X4.6438Y-2.9755
X4.6438Y-4.2686
X4.644Y-4.2143
X4.644Y-3.0298
X4.6477Y-3.0828
X4.6478Y-4.1613
X4.6506Y-5.1611
X4.6506Y-2.021
X4.6571Y-2.99
X4.6571Y-4.2541
X4.6573Y-2.0395
X4.6579Y-3.0437
X4.6579Y-4.2004
X4.6596Y-5.2064
X4.6623Y-4.148
X4.6623Y-3.0961
X4.664Y-2.058
X4.6663Y-5.1879
X4.6704Y-4.2395
X4.6704Y-3.0046
X4.6718Y-3.0577
X4.6718Y-4.1864
X4.6725Y-2.9503
X4.6725Y-4.2938
X4.673Y-5.1694
X4.6827Y-5.2147
X4.6837Y-3.0191
X4.6837Y-4.225
X4.6852Y-2.9654
X4.6852Y-4.2787
X4.6858Y-4.1725
X4.6858Y-3.0716
X4.6891Y-5.1961
X4.6956Y-5.1775
X4.697Y-3.0336
X4.697Y-4.2105
X4.6979Y-4.2636
X4.6979Y-2.9805
X4.7024Y-2.9263
X4.7024Y-4.3178
X4.7059Y-5.2226
X4.7059Y-2.0216
X4.7103Y-4.196
X4.7103Y-3.0481
X4.7105Y-2.9955
X4.7105Y-4.2486
X4.7121Y-5.2039
X4.7121Y-2.0402
X4.7144Y-2.942
X4.7144Y-4.3021
X4.7183Y-5.1852
X4.7183Y-2.0589
X4.7232Y-3.0106
X4.7232Y-4.2335
X4.7264Y-4.2865
X4.7264Y-2.9576
X4.7292Y-2.014
X4.7292Y-5.2301
X4.7332Y-2.9037
X4.7332Y-4.3404
X4.7351Y-2.0328
X4.7351Y-5.2113
X4.7358Y-4.2184
X4.7358Y-3.0257
X4.7383Y-2.9732
X4.7383Y-4.2709
X4.7411Y-2.0516
X4.7411Y-5.1925
X4.7445Y-2.9198
X4.7445Y-4.3243
X4.7503Y-2.9888
X4.7503Y-4.2553
X4.7526Y-2.0068
X4.7526Y-5.2373
X4.7558Y-4.3081
X4.7558Y-2.936
X4.7583Y-2.0257
X4.7583Y-5.2184
X4.7623Y-4.2396
X4.7623Y-3.0045
X4.7639Y-2.0445
X4.7639Y-5.1996
X4.765Y-2.8825
X4.765Y-4.3616
X4.7671Y-2.9521
X4.7671Y-4.292
X4.7756Y-2.8991
X4.7756Y-4.345
X4.7762Y-5.2442
X4.7762Y-1.9999
X4.7784Y-2.9682
X4.7784Y-4.2759
X4.7816Y-5.2252
X4.7816Y-2.0189
X4.7862Y-4.3284
X4.7862Y-2.9157
X4.7869Y-5.2063
X4.7869Y-2.0378
X4.7897Y-4.2597
X4.7897Y-2.9844
X4.7968Y-2.9323
X4.7968Y-4.3118
X4.7978Y-2.8626
X4.7978Y-4.3815
X4.7998Y-1.9934
X4.7998Y-5.2507
X4.8049Y-2.0124
X4.8049Y-5.2316
X4.8074Y-2.9489
X4.8074Y-4.2952
X4.8076Y-2.8797
X4.8076Y-4.3644
X4.81Y-2.0315
X4.81Y-5.2126
X4.8175Y-4.3474
X4.8175Y-2.8967
X4.818Y-4.2786
X4.818Y-2.9655
X4.8236Y-1.9872
X4.8236Y-5.2568
X4.8273Y-2.9138
X4.8273Y-4.3303
X4.8284Y-2.0063
X4.8284Y-5.2378
X4.8313Y-2.8442
X4.8313Y-4.3999
X4.8332Y-2.0254
X4.8332Y-5.2187
X4.8371Y-2.9308
X4.8371Y-4.3133
X4.8404Y-2.8617
X4.8404Y-4.3824
X4.847Y-4.2962
X4.847Y-2.9479
X4.8474Y-5.2627
X4.8474Y-1.9814
X4.8495Y-4.3649
X4.8495Y-2.8791
X4.8519Y-5.2435
X4.8519Y-2.0006
X4.8565Y-5.2244
X4.8565Y-2.0197
X4.8586Y-2.8966
X4.8586Y-4.3475
X4.8656Y-2.8273
X4.8656Y-4.4168
X4.8677Y-2.9141
X4.8677Y-4.33
X4.8713Y-1.9759
X4.8713Y-5.2681
X4.8739Y-2.8451
X4.8739Y-4.399
X4.8756Y-1.9952
X4.8756Y-5.2489
X4.8768Y-4.3125
X4.8768Y-2.9315
X4.8798Y-2.0144
X4.8798Y-5.2297
X4.8823Y-4.3811
X4.8823Y-2.863
X4.8906Y-2.8808
X4.8906Y-4.3633
X4.8953Y-1.9708
X4.8953Y-5.2733
X4.8989Y-2.8987
X4.8989Y-4.3454
X4.8992Y-1.9901
X4.8992Y-5.254
X4.9006Y-2.8119
X4.9006Y-4.4322
X4.9032Y-2.0094
X4.9032Y-5.2347
X4.9072Y-4.3276
X4.9072Y-2.9165
X4.9082Y-2.8301
X4.9082Y-4.414
X4.9157Y-4.3958
X4.9157Y-2.8483
X4.9193Y-5.2781
X4.9193Y-1.966
X4.923Y-5.2588
X4.923Y-1.9854
X4.9232Y-2.8664
X4.9232Y-4.3777
X4.9267Y-5.2394
X4.9267Y-2.0047
X4.9308Y-2.8846
X4.9308Y-4.3595
X4.9363Y-2.798
X4.9363Y-4.4461
X4.9383Y-4.3412
X4.9383Y-2.9028
X4.943Y-2.8165
X4.943Y-4.4276
X4.9434Y-1.9616
X4.9434Y-5.2825
X4.9469Y-1.981
X4.9469Y-5.2631
X4.9498Y-4.4091
X4.9498Y-2.835
X4.9503Y-2.0004
X4.9503Y-5.2437
X4.9565Y-2.8535
X4.9565Y-4.3906
X4.9632Y-2.872
X4.9632Y-4.3721
X4.9676Y-1.9575
X4.9676Y-5.2866
X4.97Y-4.3536
X4.97Y-2.8905
X4.9708Y-1.9769
X4.9708Y-5.2672
X4.9725Y-2.7857
X4.9725Y-4.4584
X4.9739Y-1.9964
X4.9739Y-5.2477
X4.9784Y-2.8045
X4.9784Y-4.4396
X4.9844Y-4.4208
X4.9844Y-2.8233
X4.9903Y-2.842
X4.9903Y-4.4021
X4.9919Y-5.2903
X4.9919Y-1.9538
X4.9947Y-5.2709
X4.9947Y-1.9733
X4.9962Y-2.8608
X4.9962Y-4.3833
X4.9976Y-5.2514
X4.9976Y-1.9927
X5.0021Y-4.3645
X5.0021Y-2.8796
X5.0093Y-2.775
X5.0093Y-4.4691
X5.0143Y-2.794
X5.0144Y-4.4501
X5.0161Y-1.9504
X5.0161Y-5.2937
X5.0187Y-1.9699
X5.0187Y-5.2742
X5.0195Y-4.431
X5.0195Y-2.8131
X5.0213Y-1.9894
X5.0213Y-5.2547
X5.0245Y-2.8321
X5.0245Y-4.412
X5.0296Y-2.8511
X5.0296Y-4.393
X5.0347Y-4.374
X5.0347Y-2.8701
X5.0405Y-1.9474
X5.0405Y-5.2967
X5.0428Y-1.9669
X5.0428Y-5.2772
X5.045Y-1.9865
X5.0451Y-5.2576
X5.0464Y-2.7659
X5.0464Y-4.4782
X5.0507Y-2.7851
X5.0507Y-4.459
X5.0549Y-4.4397
X5.0549Y-2.8044
X5.0592Y-2.8236
X5.0592Y-4.4205
X5.0635Y-2.8428
X5.0635Y-4.4013
X5.0649Y-5.2994
X5.0649Y-1.9447
X5.0669Y-5.2798
X5.0669Y-1.9643
X5.0677Y-4.3821
X5.0677Y-2.862
X5.0689Y-5.2602
X5.0689Y-1.9839
X5.0839Y-2.7584
X5.0839Y-4.4857
X5.0874Y-2.7778
X5.0874Y-4.4663
X5.0893Y-1.9424
X5.0893Y-5.3017
X5.0908Y-4.4469
X5.0908Y-2.7972
X5.091Y-1.962
X5.091Y-5.2821
X5.0927Y-1.9816
X5.0927Y-5.2625
X5.0942Y-2.8166
X5.0942Y-4.4275
X5.0976Y-2.836
X5.0976Y-4.4081
X5.101Y-4.3887
X5.101Y-2.8554
X5.1137Y-1.9404
X5.1137Y-5.3037
X5.1151Y-1.9601
X5.1151Y-5.284
X5.1166Y-1.9797
X5.1166Y-5.2644
X5.1218Y-2.7526
X5.1218Y-4.4915
X5.1243Y-2.7721
X5.1243Y-4.472
X5.1269Y-4.4524
X5.1269Y-2.7917
X5.1295Y-2.8112
X5.1295Y-4.4329
X5.132Y-2.8307
X5.132Y-4.4134
X5.1346Y-4.3938
X5.1346Y-2.8502
X5.1382Y-5.3053
X5.1382Y-1.9388
X5.1393Y-5.2856
X5.1393Y-1.9585
X5.1405Y-5.266
X5.1405Y-1.9781
X5.1598Y-2.7485
X5.1598Y-4.4956
X5.1615Y-2.7681
X5.1615Y-4.476
X5.1627Y-1.9376
X5.1627Y-5.3065
X5.1632Y-4.4564
X5.1632Y-2.7877
X5.1635Y-1.9573
X5.1635Y-5.2868
X5.1644Y-1.9769
X5.1644Y-5.2672
X5.1649Y-2.8073
X5.1649Y-4.4368
X5.1667Y-2.8269
X5.1667Y-4.4172
X5.1684Y-4.3975
X5.1684Y-2.8466
X5.1872Y-1.9367
X5.1872Y-5.3074
X5.1878Y-1.9564
X5.1878Y-5.2877
X5.1883Y-1.976
X5.1883Y-5.2681
X5.198Y-2.746
X5.198Y-4.4981
X5.1988Y-2.7656
X5.1988Y-4.4785
X5.1997Y-4.4588
X5.1997Y-2.7853
X5.2005Y-2.805
X5.2005Y-4.4391
X5.2014Y-2.8246
X5.2014Y-4.4195
X5.2023Y-4.3998
X5.2023Y-2.8443
X5.2117Y-5.308
X5.2117Y-1.9362
X5.212Y-5.2883
X5.212Y-1.9558
X5.2123Y-5.2686
X5.2123Y-1.9755
X5.2362Y-2.7451
X5.2362Y-2.7648
X5.2362Y-2.8042
X5.2362Y-2.8239
X5.2362Y-4.4596
X5.2362Y-4.4005
X5.2362Y-1.936
X5.2362Y-1.9557
X5.2362Y-1.9754
X5.2362Y-5.2687
X5.2362Y-5.2884
X5.2362Y-5.3081
X5.2362Y-2.8436
X5.2362Y-2.7845
X5.2362Y-4.4202
X5.2362Y-4.4399
X5.2362Y-4.4793
X5.2362Y-4.499
X5.2602Y-5.2686
X5.2602Y-1.9755
X5.2605Y-5.2883
X5.2605Y-1.9558
X5.2607Y-5.3079
X5.2607Y-1.9361
X5.2702Y-4.3998
X5.2702Y-2.8443
X5.271Y-2.8246
X5.271Y-4.4195
X5.2719Y-2.805
X5.2719Y-4.4391
X5.2728Y-4.4588
X5.2728Y-2.7853
X5.2736Y-2.7656
X5.2736Y-4.4785
X5.2745Y-2.746
X5.2745Y-4.4981
X5.2841Y-5.2681
X5.2847Y-5.2877
X5.2853Y-5.3074
X5.3041Y-4.3975
X5.3041Y-2.8466
X5.3058Y-2.8269
X5.3058Y-4.4172
X5.3075Y-2.8073
X5.3075Y-4.4368
X5.308Y-5.2672
X5.3089Y-5.2868
X5.3092Y-4.4564
X5.3092Y-2.7877
X5.3098Y-5.3065
X5.3109Y-2.7681
X5.3109Y-4.476
X5.3126Y-2.7485
X5.3127Y-4.4956
X5.332Y-5.266
X5.3331Y-5.2856
X5.3343Y-5.3053
X5.3346Y-1.957
X5.3358Y-1.9373
X5.3369Y-1.9177
X5.3378Y-4.3938
X5.3378Y-2.8502
X5.3404Y-2.8307
X5.3404Y-4.4134
X5.343Y-2.8112
X5.343Y-4.4329
X5.3455Y-4.4524
X5.3455Y-2.7917
X5.3481Y-2.7721
X5.3481Y-4.4719
X5.3507Y-2.7526
X5.3507Y-4.4915
X5.3559Y-5.2644
X5.3573Y-5.284
X5.3585Y-1.9586
X5.3587Y-5.3037
X5.36Y-1.9389
X5.3614Y-1.9193
X5.3714Y-4.3887
X5.3714Y-2.8554
X5.3748Y-2.836
X5.3748Y-4.4081
X5.3782Y-2.8166
X5.3782Y-4.4275
X5.3797Y-5.2625
X5.3815Y-5.2821
X5.3817Y-4.4469
X5.3817Y-2.7972
X5.3824Y-1.9605
X5.3832Y-5.3017
X5.3841Y-1.9409
X5.3851Y-2.7778
X5.3851Y-4.4663
X5.3858Y-1.9213
X5.3885Y-2.7584
X5.3885Y-4.4857
X5.4036Y-5.2602
X5.4047Y-4.3821
X5.4047Y-2.862
X5.4056Y-5.2798
X5.4062Y-1.9627
X5.4076Y-5.2994
X5.4082Y-1.9431
X5.409Y-2.8428
X5.409Y-4.4013
X5.4102Y-1.9236
X5.4132Y-2.8236
X5.4132Y-4.4205
X5.4175Y-4.4397
X5.4175Y-2.8044
X5.4218Y-2.7851
X5.4218Y-4.459
X5.426Y-2.7659
X5.426Y-4.4782
X5.4274Y-5.2576
X5.4297Y-5.2772
X5.43Y-1.9653
X5.432Y-5.2967
X5.4323Y-1.9458
X5.4346Y-1.9262
X5.4377Y-4.374
X5.4377Y-2.8701
X5.4428Y-2.8511
X5.4428Y-4.393
X5.4479Y-2.8321
X5.4479Y-4.412
X5.4512Y-5.2547
X5.453Y-4.431
X5.453Y-2.8131
X5.4537Y-5.2742
X5.4538Y-1.9683
X5.4563Y-5.2937
X5.4564Y-1.9488
X5.4581Y-2.794
X5.4581Y-4.4501
X5.459Y-1.9293
X5.4632Y-2.775
X5.4632Y-4.4691
X5.4703Y-4.3645
X5.4703Y-2.8796
X5.4749Y-5.2514
X5.4762Y-2.8608
X5.4762Y-4.3833
X5.4775Y-1.9716
X5.4777Y-5.2708
X5.4804Y-1.9521
X5.4806Y-5.2903
X5.4822Y-2.842
X5.4822Y-4.4021
X5.4832Y-1.9326
X5.4881Y-4.4208
X5.4881Y-2.8233
X5.494Y-2.8045
X5.494Y-4.4396
X5.4986Y-5.2477
X5.4999Y-2.7857
X5.4999Y-4.4584
X5.5012Y-1.9752
X5.5017Y-5.2672
X5.5025Y-4.3536
X5.5025Y-2.8905
X5.5043Y-1.9558
X5.5048Y-5.2866
X5.5075Y-1.9364
X5.5092Y-2.872
X5.5092Y-4.3721
X5.5159Y-2.8535
X5.5159Y-4.3906
X5.5222Y-5.2437
X5.5227Y-4.4091
X5.5227Y-2.835
X5.5248Y-1.9792
X5.5256Y-5.2631
X5.5282Y-1.9598
X5.529Y-5.2825
X5.5294Y-2.8165
X5.5294Y-4.4276
X5.5317Y-1.9405
X5.5341Y-4.3413
X5.5341Y-2.9028
X5.5361Y-2.798
X5.5361Y-4.4461
X5.5417Y-2.8846
X5.5417Y-4.3595
X5.5457Y-5.2394
X5.5492Y-2.8664
X5.5492Y-4.3776
X5.5494Y-5.2587
X5.5531Y-5.2781
X5.5567Y-4.3958
X5.5567Y-2.8483
X5.5643Y-2.8301
X5.5643Y-4.414
X5.5652Y-4.3276
X5.5652Y-2.9165
X5.5692Y-2.0094
X5.5692Y-5.2347
X5.5718Y-2.8119
X5.5718Y-4.4322
X5.5732Y-1.9901
X5.5732Y-5.254
X5.5735Y-2.8987
X5.5735Y-4.3454
X5.5772Y-1.9708
X5.5772Y-5.2733
X5.5819Y-2.8808
X5.5819Y-4.3633
X5.5902Y-4.3811
X5.5902Y-2.863
X5.5926Y-2.0144
X5.5926Y-5.2297
X5.5957Y-4.3125
X5.5957Y-2.9315
X5.5969Y-1.9952
X5.5969Y-5.2489
X5.5985Y-2.8451
X5.5985Y-4.399
X5.6012Y-1.9759
X5.6012Y-5.2681
X5.6048Y-2.9141
X5.6048Y-4.33
X5.6068Y-2.8273
X5.6068Y-4.4168
X5.6139Y-2.8966
X5.6139Y-4.3475
X5.616Y-5.2244
X5.616Y-2.0197
X5.6205Y-5.2435
X5.6205Y-2.0006
X5.6229Y-4.3649
X5.6229Y-2.8792
X5.6251Y-5.2627
X5.6251Y-1.9814
X5.6254Y-4.2962
X5.6255Y-2.9479
X5.632Y-2.8617
X5.6321Y-4.3824
X5.6353Y-2.9308
X5.6353Y-4.3133
X5.6392Y-2.0254
X5.6392Y-5.2187
X5.6411Y-2.8442
X5.6411Y-4.3999
X5.6441Y-2.0063
X5.6441Y-5.2378
X5.6451Y-2.9138
X5.6452Y-4.3303
X5.6489Y-1.9873
X5.6489Y-5.2569
X5.6545Y-4.2786
X5.6545Y-2.9655
X5.655Y-4.3474
X5.655Y-2.8967
X5.6624Y-2.0315
X5.6624Y-5.2126
X5.6648Y-2.8797
X5.6648Y-4.3644
X5.6651Y-2.9489
X5.6651Y-4.2952
X5.6675Y-2.0124
X5.6675Y-5.2316
X5.6726Y-1.9934
X5.6726Y-5.2507
X5.6747Y-2.8626
X5.6747Y-4.3815
X5.6757Y-2.9323
X5.6757Y-4.3118
X5.6827Y-4.2597
X5.6827Y-2.9844
X5.6855Y-5.2063
X5.6855Y-2.0378
X5.6862Y-4.3284
X5.6862Y-2.9157
X5.6909Y-5.2252
X5.6909Y-2.0189
X5.694Y-2.9682
X5.694Y-4.2759
X5.6962Y-5.2441
X5.6963Y-1.9999
X5.6968Y-2.8991
X5.6968Y-4.345
X5.7053Y-2.9521
X5.7053Y-4.292
X5.7074Y-2.8825
X5.7074Y-4.3616
X5.7085Y-2.0445
X5.7085Y-5.1996
X5.7101Y-4.2396
X5.7101Y-3.0045
X5.7141Y-2.0257
X5.7141Y-5.2184
X5.7166Y-4.3081
X5.7166Y-2.936
X5.7198Y-2.0068
X5.7198Y-5.2373
X5.7221Y-2.9888
X5.7221Y-4.2553
X5.7279Y-2.9198
X5.7279Y-4.3243
X5.7314Y-2.0516
X5.7314Y-5.1925
X5.7341Y-2.9732
X5.7341Y-4.2709
X5.7366Y-4.2184
X5.7366Y-3.0257
X5.7373Y-2.0328
X5.7373Y-5.2113
X5.7392Y-2.9037
X5.7392Y-4.3404
X5.7432Y-2.014
X5.7432Y-5.2301
X5.7461Y-4.2865
X5.7461Y-2.9576
X5.7493Y-3.0106
X5.7493Y-4.2335
X5.7542Y-5.1852
X5.7542Y-2.0589
X5.7581Y-2.942
X5.7581Y-4.3021
X5.7604Y-5.2039
X5.7604Y-2.0402
X5.7619Y-2.9955
X5.7619Y-4.2486
X5.7621Y-4.196
X5.7621Y-3.0481
X5.7666Y-5.2225
X5.7666Y-2.0215
X5.7701Y-2.9263
X5.7701Y-4.3178
X5.7746Y-4.2636
X5.7746Y-2.9805
X5.7755Y-3.0336
X5.7755Y-4.2105
X5.7769Y-2.0666
X5.7769Y-5.1775
X5.7833Y-2.048
X5.7833Y-5.1961
X5.7867Y-4.1725
X5.7867Y-3.0716
X5.7872Y-2.9654
X5.7872Y-4.2787
X5.7888Y-3.0191
X5.7888Y-4.225
X5.7898Y-2.0294
X5.7898Y-5.2147
X5.7994Y-2.0747
X5.7994Y-5.1694
X5.7999Y-2.9503
X5.7999Y-4.2938
X5.8006Y-3.0577
X5.8006Y-4.1864
X5.802Y-4.2395
X5.802Y-3.0046
X5.8062Y-2.0562
X5.8062Y-5.1879
X5.8102Y-4.148
X5.8102Y-3.0961
X5.8129Y-2.0377
X5.8129Y-5.2064
X5.8145Y-3.0437
X5.8145Y-4.2004
X5.8154Y-2.99
X5.8154Y-4.2541
X5.8219Y-5.1611
X5.8219Y-2.083
X5.8247Y-3.0828
X5.8247Y-4.1613
X5.8284Y-4.2143
X5.8284Y-3.0298
X5.8287Y-2.9755
X5.8287Y-4.2686
X5.8289Y-5.1795
X5.8289Y-2.0646
X5.8326Y-4.1224
X5.8326Y-3.1217
X5.8359Y-5.1979
X5.8359Y-2.0462
X5.8392Y-3.0695
X5.8392Y-4.1746
X5.8424Y-3.0159
X5.8424Y-4.2282
X5.8442Y-2.0917
X5.8442Y-5.1524
X5.8477Y-3.109
X5.8477Y-4.1351
X5.8515Y-2.0734
X5.8515Y-5.1707
X5.8537Y-4.1879
X5.8537Y-3.0562
X5.8538Y-4.0959
X5.8538Y-3.1482
X5.8563Y-3.002
X5.8563Y-4.2421
X5.8587Y-2.0551
X5.8587Y-5.189
X5.8627Y-3.0963
X5.8627Y-4.1478
X5.8664Y-2.1007
X5.8664Y-5.1434
X5.8682Y-3.0429
X5.8682Y-4.2012
X5.8694Y-3.1362
X5.8695Y-4.1079
X5.8739Y-4.0686
X5.8739Y-3.1755
X5.8739Y-2.0825
X5.8739Y-5.1616
X5.8778Y-4.1604
X5.8778Y-3.0837
X5.8814Y-2.0643
X5.8814Y-5.1798
X5.8828Y-3.0296
X5.8828Y-4.2145
X5.8851Y-3.1242
X5.8851Y-4.1199
X5.8884Y-5.1341
X5.8885Y-2.11
X5.89Y-3.1642
X5.89Y-4.0799
X5.8928Y-4.0403
X5.8928Y-3.2038
X5.8929Y-3.071
X5.8929Y-4.1731
X5.8962Y-5.1521
X5.8962Y-2.0919
X5.9007Y-4.1319
X5.9007Y-3.1122
X5.904Y-5.1702
X5.904Y-2.0739
X5.9062Y-3.1529
X5.9062Y-4.0911
X5.908Y-3.0584
X5.908Y-4.1857
X5.9094Y-3.1932
X5.9094Y-4.0509
X5.9104Y-2.1197
X5.9104Y-5.1244
X5.9104Y-4.0113
X5.9104Y-3.2328
X5.9163Y-3.1002
X5.9163Y-4.1439
X5.9184Y-2.1017
X5.9184Y-5.1424
X5.9223Y-4.1024
X5.9223Y-3.1417
X5.926Y-3.1826
X5.926Y-4.0615
X5.9265Y-2.0837
X5.9265Y-5.1604
X5.9267Y-3.9815
X5.9267Y-3.2626
X5.9275Y-3.223
X5.9275Y-4.0211
X5.9319Y-3.0882
X5.9319Y-4.1559
X5.9321Y-2.1296
X5.9321Y-5.1145
X5.9384Y-3.1304
X5.9384Y-4.1137
X5.9405Y-2.1118
X5.9405Y-5.1323
X5.9417Y-3.951
X5.9417Y-3.2931
X5.9426Y-4.0721
X5.9426Y-3.172
X5.9442Y-3.2535
X5.9442Y-3.9906
X5.9445Y-3.2131
X5.9445Y-4.031
X5.9488Y-2.094
X5.9488Y-5.1501
X5.9538Y-5.1042
X5.9538Y-2.1399
X5.9546Y-3.1191
X5.9546Y-4.125
X5.9554Y-3.92
X5.9554Y-3.3241
X5.9592Y-3.1615
X5.9592Y-4.0826
X5.9596Y-3.2847
X5.9596Y-3.9594
X5.9615Y-4.0408
X5.9615Y-3.2033
X5.9617Y-3.2444
X5.9617Y-3.9997
X5.9624Y-5.1219
X5.9624Y-2.1222
X5.9677Y-3.8883
X5.9677Y-3.3558
X5.9709Y-5.1396
X5.9709Y-2.1045
X5.9736Y-3.3166
X5.9736Y-3.9275
X5.9753Y-2.1505
X5.9753Y-5.0936
X5.9758Y-3.1509
X5.9758Y-4.0932
X5.9775Y-3.2764
X5.9775Y-3.9677
X5.9786Y-3.1934
X5.9786Y-4.0507
X5.9787Y-3.8561
X5.9787Y-3.388
X5.9791Y-4.0088
X5.9791Y-3.2353
X5.9841Y-2.1329
X5.9841Y-5.1112
X5.9863Y-3.3491
X5.9863Y-3.895
X5.9882Y-3.8235
X5.9882Y-3.4206
X5.9918Y-3.3091
X5.9918Y-3.935
X5.9929Y-2.1153
X5.9929Y-5.1288
X5.9953Y-3.976
X5.9953Y-3.2681
X5.9957Y-3.1836
X5.9957Y-4.0605
X5.9962Y-3.7905
X5.9962Y-3.4536
X5.9966Y-2.1614
X5.9966Y-5.0827
X5.9966Y-3.2262
X5.9966Y-4.0179
X5.9974Y-3.382
X5.9974Y-3.8621
X6.0029Y-3.7572
X6.0029Y-3.4869
X6.0048Y-3.3423
X6.0048Y-3.9018
X6.0057Y-2.144
X6.0057Y-5.1001
X6.0072Y-3.4155
X6.0072Y-3.8286
X6.008Y-3.7237
X6.008Y-3.5204
X6.01Y-3.9426
X6.01Y-3.3015
X6.0117Y-3.6899
X6.0117Y-3.5542
X6.0131Y-3.2598
X6.0131Y-3.9843
X6.0139Y-3.656
X6.0139Y-3.5881
X6.0141Y-3.2171
X6.0141Y-4.027
X6.0147Y-3.622
X6.0148Y-2.1265
X6.0148Y-5.1176
X6.0155Y-3.4493
X6.0155Y-3.7948
X6.0162Y-3.3761
X6.0162Y-3.868
X6.0177Y-5.0715
X6.0178Y-2.1726
X6.0223Y-3.4834
X6.0223Y-3.7606
X6.0232Y-3.9085
X6.0232Y-3.3356
X6.0262Y-3.4104
X6.0262Y-3.8337
X6.0271Y-5.0888
X6.0271Y-2.1553
X6.0276Y-3.5179
X6.0276Y-3.7262
X6.0282Y-3.294
X6.0282Y-3.9501
X6.031Y-3.2514
X6.031Y-3.9927
X6.0314Y-3.5525
X6.0314Y-3.6916
X6.0336Y-3.5872
X6.0336Y-3.6569
X6.0344Y-3.622
X6.0347Y-3.445
X6.0347Y-3.7991
X6.035Y-3.8739
X6.035Y-3.3702
X6.0364Y-5.1061
X6.0364Y-2.138
X6.0387Y-2.1841
X6.0388Y-5.06
X6.0417Y-3.48
X6.0417Y-3.7641
X6.0418Y-3.3289
X6.0418Y-3.9152
X6.0452Y-3.8388
X6.0452Y-3.4053
X6.0464Y-3.2865
X6.0464Y-3.9576
X6.0471Y-3.5153
X6.0471Y-3.7288
X6.0483Y-2.1669
X6.0483Y-5.0772
X6.051Y-3.5508
X6.051Y-3.6933
X6.0533Y-3.5864
X6.0533Y-3.6577
X6.0538Y-3.3643
X6.0538Y-3.8798
X6.0539Y-3.8033
X6.0539Y-3.4408
X6.0541Y-3.622
X6.0579Y-2.1498
X6.0579Y-5.0943
X6.0596Y-2.196
X6.0596Y-5.0481
X6.0603Y-3.3221
X6.0603Y-3.922
X6.061Y-3.7675
X6.061Y-3.4766
X6.0642Y-3.4002
X6.0642Y-3.8439
X6.0666Y-3.7314
X6.0666Y-3.5127
X6.0694Y-2.1789
X6.0694Y-5.0652
X6.0706Y-3.695
X6.0706Y-3.5491
X6.0726Y-3.3583
X6.0726Y-3.8857
X6.073Y-3.6586
X6.073Y-3.5855
X6.0731Y-3.4365
X6.0731Y-3.8076
X6.0737Y-3.622
X6.0793Y-2.1619
X6.0793Y-5.0822
X6.0802Y-5.036
X6.0802Y-2.2081
X6.0804Y-3.4732
X6.0804Y-3.7709
X6.0833Y-3.3951
X6.0833Y-3.849
X6.0861Y-3.5102
X6.0861Y-3.7339
X6.0902Y-3.5473
X6.0902Y-3.6968
X6.0903Y-5.0529
X6.0903Y-2.1912
X6.0924Y-3.4322
X6.0924Y-3.8118
X6.0926Y-3.5847
X6.0926Y-3.6594
X6.0935Y-3.622
X6.0998Y-3.4698
X6.0998Y-3.7743
X6.1004Y-5.0698
X6.1004Y-2.1743
X6.1007Y-2.2205
X6.1007Y-5.0236
X6.1056Y-3.5076
X6.1056Y-3.7365
X6.1098Y-3.5456
X6.1098Y-3.6985
X6.111Y-2.2038
X6.111Y-5.0403
X6.1123Y-3.5838
X6.1123Y-3.6603
X6.1131Y-3.622
X6.121Y-2.2332
X6.121Y-5.0109
X6.1214Y-2.187
X6.1214Y-5.0571
X6.1316Y-2.2166
X6.1316Y-5.0275
X6.1411Y-4.9978
X6.1411Y-2.2462
X6.1421Y-2.2
X6.1421Y-5.0441
X6.1519Y-5.0143
X6.1519Y-2.2298
X6.161Y-2.2596
X6.161Y-4.9846
X6.1627Y-5.0307
X6.1627Y-2.2133
X6.1721Y-2.2433
X6.1721Y-5.0008
X6.1807Y-2.2732
X6.1807Y-4.9709
X6.1831Y-2.227
X6.1831Y-5.0171
X6.192Y-2.257
X6.192Y-4.9871
X6.2002Y-4.9571
X6.2003Y-2.287
X6.2033Y-2.2409
X6.2033Y-5.0032
X6.2118Y-4.973
X6.2118Y-2.2711
X6.2196Y-2.3012
X6.2196Y-4.9429
X6.2233Y-4.989
X6.2233Y-2.2551
X6.2313Y-2.2854
X6.2313Y-4.9587
X6.2387Y-2.3156
X6.2387Y-4.9285
X6.2431Y-2.2696
X6.2431Y-4.9745
X6.2506Y-2.3
X6.2506Y-4.9441
X6.2576Y-4.9137
X6.2576Y-2.3303
X6.2626Y-2.2844
X6.2626Y-4.9597
X6.2698Y-4.9292
X6.2698Y-2.3149
X6.2762Y-2.3453
X6.282Y-4.9446
X6.282Y-2.2995
X6.2887Y-2.3301
X6.2947Y-2.3606
X6.3011Y-2.3148
X6.3073Y-2.3455
X6.3129Y-2.3761
X6.32Y-2.3304
X6.3258Y-2.3612
X6.3285Y-4.8835
X6.3309Y-2.3919
X6.3387Y-2.3463
X6.3414Y-4.8984
X6.344Y-2.3772
X6.3465Y-4.8677
X6.3487Y-2.408
X6.3542Y-4.9133
X6.3571Y-2.3625
X6.3596Y-4.8824
X6.362Y-2.3935
X6.3643Y-4.8516
X6.3663Y-2.4243
X6.3727Y-4.8971
X6.3753Y-2.379
X6.3776Y-4.8662
X6.3798Y-2.41
X6.3818Y-4.8353
X6.3836Y-2.4408
X6.3909Y-4.8807
X6.3933Y-2.3956
X6.3953Y-4.8497
X6.3973Y-2.4267
X6.3991Y-4.8188
X6.4006Y-2.4577
X6.4088Y-4.864
X6.411Y-2.4126
X6.4128Y-4.8329
X6.4145Y-2.4437
X6.4162Y-4.802
X6.4174Y-2.4747
X6.4266Y-4.847
X6.4284Y-2.4298
X6.4301Y-4.8159
X6.4316Y-2.461
X6.433Y-4.7849
X6.434Y-2.492
X6.444Y-4.8298
X6.4457Y-2.4473
X6.4471Y-4.7986
X6.4483Y-2.4785
X6.4496Y-4.7676
X6.4503Y-2.5096
X6.4612Y-4.8123
X6.4626Y-2.465
X6.4639Y-4.7811
X6.4648Y-2.4963
X6.4659Y-4.7501
X6.4664Y-2.5273
X6.4782Y-4.7946
X6.4793Y-2.483
X6.4804Y-4.7634
X6.4811Y-2.5142
X6.4821Y-2.5453
X6.4822Y-4.6988
X6.4949Y-4.7767
X6.4958Y-2.5011
X6.497Y-2.5325
X6.497Y-4.7116
X6.4977Y-2.5636
X6.4977Y-4.6805
X6.5119Y-2.5196
X6.5119Y-4.7245
X6.5127Y-2.5509
X6.5127Y-4.6932
X6.5129Y-4.6621
X6.5129Y-2.582
X6.5278Y-2.5383
X6.5278Y-4.7058
X6.5279Y-2.6007
X6.5279Y-4.6434
X6.5282Y-4.6745
X6.5282Y-2.5696
X6.5426Y-2.6196
X6.5426Y-4.6245
X6.5434Y-2.5885
X6.5434Y-4.6556
X6.5435Y-4.6869
X6.5435Y-2.5572
X6.5571Y-4.6054
X6.5571Y-2.6387
X6.5582Y-2.6076
X6.5582Y-4.6365
X6.5588Y-2.5763
X6.5588Y-4.6678
X6.5712Y-2.658
X6.5713Y-4.5861
X6.5729Y-4.6171
X6.5729Y-2.6269
X6.5739Y-2.5956
X6.5739Y-4.6485
X6.5851Y-2.6775
X6.5851Y-4.5666
X6.5872Y-2.6465
X6.5872Y-4.5976
X6.5887Y-4.6289
X6.5887Y-2.6152
X6.5987Y-4.5468
X6.5987Y-2.6972
X6.6012Y-2.6663
X6.6012Y-4.5778
X6.6032Y-2.635
X6.6032Y-4.6091
X6.612Y-2.7172
X6.612Y-4.5269
X6.615Y-4.5579
X6.615Y-2.6862
X6.6174Y-2.655
X6.6174Y-4.5891
X6.625Y-2.7373
X6.625Y-4.5068
X6.6285Y-2.7064
X6.6285Y-4.5377
X6.6313Y-4.5689
X6.6313Y-2.6751
X6.6378Y-4.4865
X6.6378Y-2.7576
X6.6416Y-2.7267
X6.6416Y-4.5174
X6.6449Y-2.6955
X6.6449Y-4.5486
X6.6502Y-2.778
X6.6502Y-4.4661
X6.6545Y-4.4969
X6.6545Y-2.7472
X6.6582Y-2.7161
X6.6582Y-4.528
X6.6623Y-2.7987
X6.6623Y-4.4454
X6.6671Y-2.768
X6.6671Y-4.4761
X6.6713Y-4.5072
X6.6713Y-2.7369
X6.6741Y-4.4246
X6.6741Y-2.8195
X6.6793Y-2.7889
X6.6793Y-4.4552
X6.684Y-2.7579
X6.684Y-4.4862
X6.6856Y-2.8405
X6.6857Y-4.4036
X6.6913Y-4.4342
X6.6913Y-2.8099
X6.6964Y-2.779
X6.6964Y-4.4651
X6.6969Y-2.8617
X6.6969Y-4.3824
X6.703Y-2.8312
X6.703Y-4.4129
X6.7078Y-4.3611
X6.7078Y-2.883
X6.7085Y-4.4438
X6.7085Y-2.8003
X6.7143Y-2.8526
X6.7143Y-4.3915
X6.7184Y-2.9045
X6.7184Y-4.3396
X6.7203Y-2.8218
X6.7203Y-4.4223
X6.7254Y-4.3699
X6.7254Y-2.8742
X6.7286Y-2.9261
X6.7286Y-4.318
X6.7318Y-2.8435
X6.7318Y-4.4006
X6.7361Y-2.8959
X6.7361Y-4.3482
X6.7386Y-4.2962
X6.7386Y-2.9479
X6.7429Y-4.3788
X6.743Y-2.8653
X6.7465Y-2.9178
X6.7465Y-4.3263
X6.7482Y-2.9698
X6.7483Y-4.2743
X6.7538Y-2.8873
X6.7538Y-4.3568
X6.7566Y-4.3043
X6.7566Y-2.9398
X6.7576Y-2.9919
X6.7576Y-4.2522
X6.7643Y-2.9095
X6.7643Y-4.3346
X6.7663Y-2.962
X6.7663Y-4.2821
X6.7666Y-4.23
X6.7666Y-3.0141
X6.7745Y-4.3123
X6.7745Y-2.9318
X6.7753Y-3.0364
X6.7758Y-2.9844
X6.7758Y-4.2597
X6.7836Y-3.0588
X6.7844Y-2.9542
X6.7844Y-4.2899
X6.7849Y-4.2373
X6.7849Y-3.0068
X6.7917Y-3.0814
X6.7937Y-3.0294
X6.7939Y-2.9768
X6.7939Y-4.2673
X6.7993Y-3.1041
X6.8021Y-3.0521
X6.8032Y-4.2446
X6.8032Y-2.9995
X6.8067Y-3.1269
X6.8102Y-3.0749
X6.8111Y-4.1704
X6.8121Y-3.0224
X6.8138Y-3.1498
X6.818Y-3.0979
X6.8188Y-4.1478
X6.8204Y-3.1728
X6.8206Y-3.0454
X6.8255Y-3.121
X6.8262Y-4.125
X6.8268Y-3.1959
X6.8288Y-3.0685
X6.8297Y-4.1769
X6.8326Y-3.1441
X6.8329Y-3.219
X6.8332Y-4.1021
X6.8367Y-3.0917
X6.8375Y-4.154
X6.8385Y-3.2423
X6.8394Y-3.1674
X6.8399Y-4.0791
X6.8439Y-3.2656
X6.8442Y-3.115
X6.8449Y-4.1309
X6.8458Y-3.1908
X6.8463Y-4.056
X6.8483Y-4.1834
X6.8489Y-3.2891
X6.8515Y-3.1385
X6.8519Y-3.2142
X6.8521Y-4.1077
X6.8523Y-4.0328
X6.8536Y-3.3125
X6.8536Y-3.9316
X6.8562Y-4.1602
X6.8577Y-3.2378
X6.8579Y-3.3361
X6.8579Y-3.908
X6.858Y-4.0096
X6.8583Y-3.162
X6.8589Y-4.0845
X6.8619Y-3.8844
X6.8619Y-3.3597
X6.8631Y-3.2614
X6.8634Y-3.9862
X6.8637Y-4.1368
X6.8648Y-3.1857
X6.8653Y-4.0611
X6.8655Y-3.3834
X6.8656Y-3.8607
X6.8682Y-3.2851
X6.8688Y-3.4071
X6.8688Y-3.837
X6.8709Y-4.1134
X6.871Y-3.2094
X6.8714Y-4.0376
X6.8718Y-3.8132
X6.8718Y-3.4309
X6.8729Y-3.3088
X6.8729Y-3.9353
X6.8744Y-3.4547
X6.8744Y-3.7894
X6.8766Y-3.4785
X6.8766Y-3.7656
X6.8768Y-3.2332
X6.8772Y-4.0141
X6.8773Y-3.3327
X6.8773Y-3.9114
X6.8778Y-4.0898
X6.8786Y-3.7417
X6.8786Y-3.5024
X6.8801Y-3.5263
X6.8802Y-3.7178
X6.8813Y-3.8875
X6.8813Y-3.3566
X6.8813Y-3.5502
X6.8813Y-3.6939
X6.8822Y-3.6699
X6.8822Y-3.5742
X6.8823Y-3.2571
X6.8826Y-3.9905
X6.8827Y-3.5981
X6.8828Y-3.646
X6.8829Y-3.622
X6.8843Y-4.0662
X6.885Y-3.3805
X6.885Y-3.8636
X6.8875Y-3.2811
X6.8883Y-3.4045
X6.8883Y-3.8396
X6.8905Y-4.0425
X6.8913Y-3.8155
X6.8914Y-3.4286
X6.8922Y-3.3051
X6.8923Y-3.939
X6.894Y-3.4527
X6.894Y-3.7914
X6.8963Y-3.4768
X6.8963Y-3.7673
X6.8963Y-4.0186
X6.8967Y-3.3293
X6.8967Y-3.9148
X6.8982Y-3.7431
X6.8982Y-3.501
X6.8998Y-3.5252
X6.8998Y-3.7189
X6.9008Y-3.8906
X6.9008Y-3.3534
X6.901Y-3.5494
X6.901Y-3.6947
X6.9018Y-3.9947
X6.9019Y-3.6705
X6.9019Y-3.5736
X6.9024Y-3.5978
X6.9024Y-3.6463
X6.9026Y-3.622
X6.9045Y-3.3777
X6.9045Y-3.8664
X6.9079Y-3.402
X6.9079Y-3.8421
X6.9109Y-3.8178
X6.9109Y-3.4263
X6.9136Y-3.4507
X6.9136Y-3.7934
X6.9159Y-3.4751
X6.9159Y-3.769
X6.9178Y-3.7446
X6.9179Y-3.4995
X6.9194Y-3.524
X6.9195Y-3.7201
X6.9207Y-3.5485
X6.9207Y-3.6956
X6.9216Y-3.6711
X6.9216Y-3.573
X6.9221Y-3.5975
X6.9221Y-3.6466
X6.9223Y-3.622
T3
X3.7047Y-4.5748
X3.7703Y-4.6731
X3.8435Y-4.7659
X3.9207Y-4.8546
X4.1837Y-5.0883
X4.2826Y-5.1531
X4.3849Y-5.2112
X4.4587Y-1.9951
X4.4911Y-5.2636
X4.5667Y-1.9475
X4.6776Y-1.907
X4.7906Y-1.8732
X5.1365Y-1.8208
X5.2551Y-1.8178
X5.3731Y-1.8234
X5.4902Y-1.8362
X6.44Y-4.9635
X6.5263Y-4.8813
X6.6062Y-4.7948
X6.6805Y-4.7033
X6.8604Y-4.4056
X6.9081Y-4.2972
X6.9489Y-4.1864
X6.9826Y-4.0737
M30
