999
FreeCAD v1.1 14555 (Git shallow)
  0
SECTION
  2
HEADER
  9
$ACADVER
  1
AC1014
  9
$ACADMAINTVER
 70
     9
  9
$DWGCODEPAGE
  3
ANSI_1252
  9
$TEXTSTYLE
  7
STANDARD
  9
$DIMSTYLE
  2
STANDARD
  9
$DIMTXSTY
  7
STANDARD
  9
$CMLSTYLE
  2
STANDARD
  9
$LUNITS
 70
2
  9
$INSUNITS
 70
4
  9
$PEXTMAX
 10
50
 20
50
 30
50
  9
$PEXTMIN
 10
0
 20
0
 30
0
  9
$HANDSEED
  5
FFFF
  0
ENDSEC
  0
SECTION
  2
CLASSES
  0
CLASS
  1
ACDBDICTIONARYWDFLT
  2
AcDbDictionaryWithDefault
  3
ObjectDBX Classes
 90
        0
280
     0
281
     0
  0
CLASS
  1
XRECORD
  2
AcDbXrecord
  3
ObjectDBX Classes
 90
        0
280
     0
281
     0
  0
CLASS
  1
LWPOLYLINE
  2
AcDbPolyline
  3
ObjectDBX Classes
 90
        0
280
     0
281
     1
  0
ENDSEC
  0
SECTION
  2
TABLES
  0
TABLE
  2
VPORT
  5
20
330
0
100
AcDbSymbolTable
 70
     1
  0
VPORT
  5
21
330
20
100
AcDbSymbolTableRecord
100
AcDbViewportTableRecord
  2
*ACTIVE
 70
     0
  0
ENDTAB
  0
TABLE
  2
LTYPE
  5
22
330
0
100
AcDbSymbolTable
 70
     1
  0
LTYPE
  5
23
330
21
100
AcDbSymbolTableRecord
100
AcDbLinetypeTableRecord
  2
BYBLOCK
 70
     0
  3

 72
    65
 73
     0
 40
0.0
  0
LTYPE
  5
24
330
21
100
AcDbSymbolTableRecord
100
AcDbLinetypeTableRecord
  2
BYLAYER
 70
     0
  3

 72
    65
 73
     0
 40
0.0
  0
LTYPE
  5
25
330
21
100
AcDbSymbolTableRecord
100
AcDbLinetypeTableRecord
  2
CONTINUOUS
 70
     0
  3
Solid line
 72
    65
 73
     0
 40
0.0
  0
ENDTAB
  0
TABLE
  2
LAYER
  5
CD8
330
0
100
AcDbSymbolTable
 70
3
  0
LAYER
  5
CD9
330
CD8
100
AcDbSymbolTableRecord
100
AcDbLayerTableRecord
  2
0
 70
   0
 62
   7
  6
CONTINUOUS
  0
LAYER
  5
CDA
330
CD8
100
AcDbSymbolTableRecord
100
AcDbLayerTableRecord
  2
none
 70
    0
 62
    7
  6
CONTINUOUS
  0
LAYER
  5
CDB
330
CD8
100
AcDbSymbolTableRecord
100
AcDbLayerTableRecord
  2
Array
 70
    0
 62
    7
  6
CONTINUOUS
  0
ENDTAB
  0
TABLE
  2
STYLE
  5
70
330
0
100
AcDbSymbolTable
 70
     2
  0
STYLE
  5
71
330
70
100
AcDbSymbolTableRecord
100
AcDbTextStyleTableRecord
  2
STANDARD
 70
     0
 40
0.0
 41
1.0
 50
0.0
 71
     0
 42
2.5
  3
arial.ttf
  4

  0
STYLE
  5
72
330
70
100
AcDbSymbolTableRecord
100
AcDbTextStyleTableRecord
  2
ANNOTATIVE
 70
     0
 40
0.0
 41
1.0
 50
0.0
 71
     0
 42
2.5
  3
arial.ttf
  4

  0
ENDTAB
  0
TABLE
  2
VIEW
  5
73
330
0
100
AcDbSymbolTable
 70
     0
  0
ENDTAB
  0
TABLE
  2
UCS
  5
74
330
0
100
AcDbSymbolTable
 70
     0
  0
ENDTAB
  0
TABLE
  2
APPID
  5
75
330
0
100
AcDbSymbolTable
 70
     2
  0
APPID
  5
76
330
75
100
AcDbSymbolTableRecord
100
AcDbRegAppTableRecord
  2
ACAD
 70
     0
  0
APPID
  5
77
330
75
100
AcDbSymbolTableRecord
100
AcDbRegAppTableRecord
  2
ACADANNOTATIVE
 70
     0
  0
ENDTAB
  0
TABLE
  2
DIMSTYLE
  5
78
330
0
100
AcDbSymbolTable
 70
     2
  0
DIMSTYLE
105
79
330
78
100
AcDbSymbolTableRecord
100
AcDbDimStyleTableRecord
  2
STANDARD
 70
     0
  3

  4

  5

  6

  7

 40
0.0
 41
2.5
 42
0.625
 43
3.75
 44
1.25
 45
0.0
 46
0.0
 47
0.0
 48
0.0
140
2.5
141
2.5
142
0.0
143
0.03937007874016
144
1.0
145
0.0
146
1.0
147
0.625
 71
     0
 72
     0
 73
     0
 74
     0
 75
     0
 76
     0
 77
     1
 78
     8
170
     0
171
     3
172
     1
173
     0
174
     0
175
     0
176
     0
177
     0
178
     0
270
     2
271
     2
272
     2
273
     2
274
     3
340
71
275
     0
280
     0
281
     0
282
     0
283
     0
284
     8
285
     0
286
     0
287
     3
288
     0
  0
ENDTAB
  0
TABLE
  2
BLOCK_RECORD
  5
A01
330
0
100
AcDbSymbolTable
  70
5
  0
BLOCK_RECORD
  5
A02
330
A01
100
AcDbSymbolTableRecord
100
AcDbBlockTableRecord
  2
*MODEL_SPACE
  0
BLOCK_RECORD
  5
A03
330
A01
100
AcDbSymbolTableRecord
100
AcDbBlockTableRecord
  2
*PAPER_SPACE
  0
ENDTAB
  0
ENDSEC
  0
SECTION
  2
BLOCKS
  0
BLOCK
  5
A04
330
A02
100
AcDbEntity
  8
0
100
AcDbBlockBegin
  2
*MODEL_SPACE
 70
   0
 10
0
 20
0
 30
0
  3
*MODEL_SPACE
  1
 
  0
ENDBLK
  5
A05
330
A02
100
AcDbEntity
  8
0
100
AcDbBlockEnd
  0
BLOCK
  5
A06
330
A03
100
AcDbEntity
 67
1
  8
0
100
AcDbBlockBegin
  2
*PAPER_SPACE
 70
   0
 10
0
 20
0
 30
0
  3
*PAPER_SPACE
  1
 
  0
ENDBLK
  5
A07
330
A03
100
AcDbEntity
 67
    1
  8
0
100
AcDbBlockEnd
  0
ENDSEC
  0
SECTION
  2
ENTITIES
  0
LINE
  5
A08
330
A02
100
AcDbEntity
  8
Array
100
AcDbLine
 10
-0.000000000
 20
0.000000000
 30
0.000000000
 11
0.000000000
 21
-0.500000000
 31
0.000000000
  0
ARC
  5
A09
330
A02
100
AcDbEntity
  8
Array
100
AcDbCircle
 10
-0.000001694
 20
0.325062702
 30
0.000000000
 40
25.664786444
100
AcDbArc
 50
88.957754096
 51
91.042178314
  0
LINE
  5
A0A
330
A02
100
AcDbEntity
  8
Array
100
AcDbLine
 10
-0.737308696
 20
38.382652727
 30
0.000000000
 11
-0.466804122
 21
25.985603591
 31
0.000000000
  0
ARC
  5
A0B
330
A02
100
AcDbEntity
  8
Array
100
AcDbCircle
 10
-0.000001694
 20
0.325062702
 30
0.000000000
 40
38.064731447
100
AcDbArc
 50
88.890076074
 51
91.109878355
  0
LINE
  5
A0C
330
A02
100
AcDbEntity
  8
Array
100
AcDbLine
 10
0.466831005
 20
25.985603040
 30
0.000000000
 11
0.737335579
 21
38.382652141
 31
0.000000000
  0
LINE
  5
A0D
330
A02
100
AcDbEntity
  8
Array
100
AcDbLine
 10
-0.000000000
 20
-0.000000000
 30
0.000000000
 11
0.021809694
 21
-0.499524111
 31
0.000000000
  0
ARC
  5
A0E
330
A02
100
AcDbEntity
  8
Array
100
AcDbCircle
 10
-0.014180728
 20
0.324753241
 30
0.000000000
 40
25.664786444
100
AcDbArc
 50
91.457754096
 51
93.542178314
  0
LINE
  5
A0F
330
A02
100
AcDbEntity
  8
Array
100
AcDbLine
 10
-2.410834739
 20
38.313959993
 30
0.000000000
 11
-1.599835936
 21
25.940509345
 31
0.000000000
  0
ARC
  5
A10
330
A02
100
AcDbEntity
  8
Array
100
AcDbCircle
 10
-0.014180728
 20
0.324753241
 30
0.000000000
 40
38.064731447
100
AcDbArc
 50
91.390076074
 51
93.609878355
  0
LINE
  5
A11
330
A02
100
AcDbEntity
  8
Array
100
AcDbLine
 10
-0.667089400
 20
25.981233387
 30
0.000000000
 11
-0.937593973
 21
38.378282487
 31
0.000000000
  0
LINE
  5
A12
330
A02
100
AcDbEntity
  8
Array
100
AcDbLine
 10
-0.000000000
 20
-0.000000000
 30
0.000000000
 11
0.043577871
 21
-0.498097349
 31
0.000000000
  0
ARC
  5
A13
330
A02
100
AcDbEntity
  8
Array
100
AcDbCircle
 10
-0.028332768
 20
0.323825593
 30
0.000000000
 40
25.664786444
100
AcDbArc
 50
93.957754096
 51
96.042178314
  0
LINE
  5
A14
330
A02
100
AcDbEntity
  8
Array
100
AcDbLine
 10
-4.079771621
 20
38.172334458
 30
0.000000000
 11
-2.729822373
 21
25.846035864
 31
0.000000000
  0
ARC
  5
A15
330
A02
100
AcDbEntity
  8
Array
100
AcDbCircle
 10
-0.028332768
 20
0.323825593
 30
0.000000000
 40
38.064731447
100
AcDbArc
 50
93.890076074
 51
96.109878355
  0
LINE
  5
A16
330
A02
100
AcDbEntity
  8
Array
100
AcDbLine
 10
-1.799739962
 20
25.927406979
 30
0.000000000
 11
-2.610738762
 21
38.300857591
 31
0.000000000
  0
LINE
  5
A17
330
A02
100
AcDbEntity
  8
Array
100
AcDbLine
 10
-0.000000000
 20
-0.000000000
 30
0.000000000
 11
0.065263096
 21
-0.495722431
 31
0.000000000
  0
ARC
  5
A18
330
A02
100
AcDbEntity
  8
Array
100
AcDbCircle
 10
-0.042430876
 20
0.322281525
 30
0.000000000
 40
25.664786444
100
AcDbArc
 50
96.457754096
 51
98.542178314
  0
LINE
  5
A19
330
A02
100
AcDbEntity
  8
Array
100
AcDbLine
 10
-5.740942426
 20
37.958045716
 30
0.000000000
 11
-3.854612437
 21
25.702362986
 31
0.000000000
  0
ARC
  5
A1A
330
A02
100
AcDbEntity
  8
Array
100
AcDbCircle
 10
-0.042430876
 20
0.322281525
 30
0.000000000
 40
38.064731447
100
AcDbArc
 50
96.390076074
 51
98.609878355
  0
LINE
  5
A1B
330
A02
100
AcDbEntity
  8
Array
100
AcDbLine
 10
-2.928964616
 20
25.824226278
 30
0.000000000
 11
-4.278913861
 21
38.150524836
 31
0.000000000
  0
LINE
  5
A1C
330
A02
100
AcDbEntity
  8
Array
100
AcDbLine
 10
-0.000000000
 20
-0.000000000
 30
0.000000000
 11
0.086824089
 21
-0.492403877
 31
0.000000000
  0
ARC
  5
A1D
330
A02
100
AcDbEntity
  8
Array
100
AcDbCircle
 10
-0.056448214
 20
0.320123975
 30
0.000000000
 40
25.664786444
100
AcDbArc
 50
98.957754096
 51
101.042178314
  0
LINE
  5
A1E
330
A02
100
AcDbEntity
  8
Array
100
AcDbLine
 10
-7.391185020
 20
37.671501675
 30
0.000000000
 11
-4.972065027
 21
25.509764198
 31
0.000000000
  0
ARC
  5
A1F
330
A02
100
AcDbEntity
  8
Array
100
AcDbCircle
 10
-0.056448214
 20
0.320123975
 30
0.000000000
 40
38.064731447
100
AcDbArc
 50
98.890076074
 51
101.109878355
  0
LINE
  5
A20
330
A02
100
AcDbEntity
  8
Array
100
AcDbLine
 10
-4.052613820
 20
25.671887694
 30
0.000000000
 11
-5.938943804
 21
37.927570389
 31
0.000000000
  0
LINE
  5
A21
330
A02
100
AcDbEntity
  8
Array
100
AcDbLine
 10
-0.000000000
 20
-0.000000000
 30
0.000000000
 11
0.108219807
 21
-0.488148004
 31
0.000000000
  0
ARC
  5
A22
330
A02
100
AcDbEntity
  8
Array
100
AcDbCircle
 10
-0.070358099
 20
0.317357052
 30
0.000000000
 40
25.664786444
100
AcDbArc
 50
101.457754096
 51
103.542178314
  0
LINE
  5
A23
330
A02
100
AcDbEntity
  8
Array
100
AcDbLine
 10
-9.027358074
 20
37.313247791
 30
0.000000000
 11
-6.080053009
 21
25.268606125
 31
0.000000000
  0
ARC
  5
A24
330
A02
100
AcDbEntity
  8
Array
100
AcDbCircle
 10
-0.070358099
 20
0.317357052
 30
0.000000000
 40
38.064731447
100
AcDbArc
 50
101.390076074
 51
103.609878355
  0
LINE
  5
A25
330
A02
100
AcDbEntity
  8
Array
100
AcDbLine
 10
-5.168548644
 20
25.470681213
 30
0.000000000
 11
-7.587668630
 21
37.632418656
 31
0.000000000
  0
LINE
  5
A26
330
A02
100
AcDbEntity
  8
Array
100
AcDbLine
 10
-0.000000000
 20
-0.000000000
 30
0.000000000
 11
0.129409523
 21
-0.482962913
 31
0.000000000
  0
ARC
  5
A27
330
A02
100
AcDbEntity
  8
Array
100
AcDbCircle
 10
-0.084134054
 20
0.313986021
 30
0.000000000
 40
25.664786444
100
AcDbArc
 50
103.957754096
 51
106.042178314
  0
LINE
  5
A28
330
A02
100
AcDbEntity
  8
Array
100
AcDbLine
 10
-10.646347039
 20
36.883966018
 30
0.000000000
 11
-7.176467265
 21
24.979347823
 31
0.000000000
  0
ARC
  5
A29
330
A02
100
AcDbEntity
  8
Array
100
AcDbCircle
 10
-0.084134054
 20
0.313986021
 30
0.000000000
 40
38.064731447
100
AcDbArc
 50
103.890076074
 51
106.109878355
  0
LINE
  5
A2A
330
A02
100
AcDbEntity
  8
Array
100
AcDbLine
 10
-6.274644841
 20
25.220989843
 30
0.000000000
 11
-9.221949897
 21
37.265631474
 31
0.000000000
  0
LINE
  5
A2B
330
A02
100
AcDbEntity
  8
Array
100
AcDbLine
 10
-0.000000000
 20
-0.000000000
 30
0.000000000
 11
0.150352900
 21
-0.476858475
 31
0.000000000
  0
ARC
  5
A2C
330
A02
100
AcDbEntity
  8
Array
100
AcDbCircle
 10
-0.097749855
 20
0.310017300
 30
0.000000000
 40
25.664786444
100
AcDbArc
 50
106.457754096
 51
108.542178314
  0
LINE
  5
A2D
330
A02
100
AcDbEntity
  8
Array
100
AcDbLine
 10
-12.245070077
 20
36.384473520
 30
0.000000000
 11
-8.259220707
 21
24.642539914
 31
0.000000000
  0
ARC
  5
A2E
330
A02
100
AcDbEntity
  8
Array
100
AcDbCircle
 10
-0.097749855
 20
0.310017300
 30
0.000000000
 40
38.064731447
100
AcDbArc
 50
106.390076074
 51
108.609878355
  0
LINE
  5
A2F
330
A02
100
AcDbEntity
  8
Array
100
AcDbLine
 10
-7.368796895
 20
24.923288886
 30
0.000000000
 11
-10.838676659
 21
36.827907046
 31
0.000000000
  0
LINE
  5
A30
330
A02
100
AcDbEntity
  8
Array
100
AcDbLine
 10
-0.000000000
 20
-0.000000000
 30
0.000000000
 11
0.171010072
 21
-0.469846310
 31
0.000000000
  0
ARC
  5
A31
330
A02
100
AcDbEntity
  8
Array
100
AcDbCircle
 10
-0.111179584
 20
0.305458443
 30
0.000000000
 40
25.664786444
100
AcDbArc
 50
108.957754096
 51
111.042178314
  0
LINE
  5
A32
330
A02
100
AcDbEntity
  8
Array
100
AcDbLine
 10
-13.820483928
 20
35.815721108
 30
0.000000000
 11
-9.326252253
 21
24.258823529
 31
0.000000000
  0
ARC
  5
A33
330
A02
100
AcDbEntity
  8
Array
100
AcDbCircle
 10
-0.111179584
 20
0.305458443
 30
0.000000000
 40
38.064731447
100
AcDbArc
 50
108.890076074
 51
111.109878355
  0
LINE
  5
A34
330
A02
100
AcDbEntity
  8
Array
100
AcDbLine
 10
-8.448922026
 20
24.578145031
 30
0.000000000
 11
-12.434771384
 21
36.320078603
 31
0.000000000
  0
LINE
  5
A35
330
A02
100
AcDbEntity
  8
Array
100
AcDbLine
 10
-0.000000000
 20
-0.000000000
 30
0.000000000
 11
0.191341716
 21
-0.461939766
 31
0.000000000
  0
ARC
  5
A36
330
A02
100
AcDbEntity
  8
Array
100
AcDbCircle
 10
-0.124397675
 20
0.300318129
 30
0.000000000
 40
25.664786444
100
AcDbArc
 50
111.457754096
 51
113.542178314
  0
LINE
  5
A37
330
A02
100
AcDbEntity
  8
Array
100
AcDbLine
 10
-15.369589702
 20
35.178791436
 30
0.000000000
 11
-10.375530748
 21
23.828929094
 31
0.000000000
  0
ARC
  5
A38
330
A02
100
AcDbEntity
  8
Array
100
AcDbCircle
 10
-0.124397675
 20
0.300318129
 30
0.000000000
 40
38.064731447
100
AcDbArc
 50
111.390076074
 51
113.609878355
  0
LINE
  5
A39
330
A02
100
AcDbEntity
  8
Array
100
AcDbLine
 10
-9.512964153
 20
24.186215280
 30
0.000000000
 11
-14.007195815
 21
35.743112826
 31
0.000000000
  0
LINE
  5
A3A
330
A02
100
AcDbEntity
  8
Array
100
AcDbLine
 10
-0.000000000
 20
-0.000000000
 30
0.000000000
 11
0.211309131
 21
-0.453153894
 31
0.000000000
  0
ARC
  5
A3B
330
A02
100
AcDbEntity
  8
Array
100
AcDbCircle
 10
-0.137378969
 20
0.294606143
 30
0.000000000
 40
25.664786444
100
AcDbArc
 50
113.957754096
 51
116.042178314
  0
LINE
  5
A3C
330
A02
100
AcDbEntity
  8
Array
100
AcDbLine
 10
-16.889438589
 20
34.474896934
 30
0.000000000
 11
-11.405058830
 21
23.353674939
 31
0.000000000
  0
ARC
  5
A3D
330
A02
100
AcDbEntity
  8
Array
100
AcDbCircle
 10
-0.137378969
 20
0.294606143
 30
0.000000000
 40
38.064731447
100
AcDbArc
 50
113.890076074
 51
116.109878355
  0
LINE
  5
A3E
330
A02
100
AcDbEntity
  8
Array
100
AcDbLine
 10
-10.558897812
 20
23.748245694
 30
0.000000000
 11
-15.552956752
 21
35.098108003
 31
0.000000000
  0
LINE
  5
A3F
330
A02
100
AcDbEntity
  8
Array
100
AcDbLine
 10
-0.000000000
 20
-0.000000000
 30
0.000000000
 11
0.230874307
 21
-0.443505417
 31
0.000000000
  0
ARC
  5
A40
330
A02
100
AcDbEntity
  8
Array
100
AcDbCircle
 10
-0.150098754
 20
0.288333356
 30
0.000000000
 40
25.664786444
100
AcDbArc
 50
116.457754096
 51
118.542178314
  0
LINE
  5
A41
330
A02
100
AcDbEntity
  8
Array
100
AcDbLine
 10
-18.377137470
 20
33.705377507
 30
0.000000000
 11
-12.412876735
 21
22.833965736
 31
0.000000000
  0
ARC
  5
A42
330
A02
100
AcDbEntity
  8
Array
100
AcDbCircle
 10
-0.150098754
 20
0.288333356
 30
0.000000000
 40
38.064731447
100
AcDbArc
 50
116.390076074
 51
118.609878355
  0
LINE
  5
A43
330
A02
100
AcDbEntity
  8
Array
100
AcDbLine
 10
-11.584732009
 20
23.265069973
 30
0.000000000
 11
-17.069111752
 21
34.386291936
 31
0.000000000
  0
LINE
  5
A44
330
A02
100
AcDbEntity
  8
Array
100
AcDbLine
 10
-0.000000000
 20
-0.000000000
 30
0.000000000
 11
0.250000000
 21
-0.433012702
 31
0.000000000
  0
ARC
  5
A45
330
A02
100
AcDbEntity
  8
Array
100
AcDbCircle
 10
-0.162532818
 20
0.281511711
 30
0.000000000
 40
25.664786444
100
AcDbArc
 50
118.957754096
 51
121.042178314
  0
LINE
  5
A46
330
A02
100
AcDbEntity
  8
Array
100
AcDbLine
 10
-19.829854425
 20
32.871697978
 30
0.000000000
 11
-13.397066023
 21
22.270790782
 31
0.000000000
  0
ARC
  5
A47
330
A02
100
AcDbEntity
  8
Array
100
AcDbCircle
 10
-0.162532818
 20
0.281511711
 30
0.000000000
 40
38.064731447
100
AcDbArc
 50
118.890076074
 51
121.109878355
  0
LINE
  5
A48
330
A02
100
AcDbEntity
  8
Array
100
AcDbLine
 10
-12.588514011
 20
22.737607868
 30
0.000000000
 11
-18.552774728
 21
33.609019608
 31
0.000000000
  0
LINE
  5
A49
330
A02
100
AcDbEntity
  8
Array
100
AcDbLine
 10
-0.000000000
 20
-0.000000000
 30
0.000000000
 11
0.268649804
 21
-0.421695723
 31
0.000000000
  0
ARC
  5
A4A
330
A02
100
AcDbEntity
  8
Array
100
AcDbCircle
 10
-0.174657491
 20
0.274154192
 30
0.000000000
 40
25.664786444
100
AcDbArc
 50
121.457754096
 51
123.542178314
  0
LINE
  5
A4B
330
A02
100
AcDbEntity
  8
Array
100
AcDbLine
 10
-21.244824125
 20
31.975445304
 30
0.000000000
 11
-14.355753235
 21
21.665222111
 31
0.000000000
  0
ARC
  5
A4C
330
A02
100
AcDbEntity
  8
Array
100
AcDbCircle
 10
-0.174657491
 20
0.274154192
 30
0.000000000
 40
38.064731447
100
AcDbArc
 50
121.390076074
 51
123.609878355
  0
LINE
  5
A4D
330
A02
100
AcDbEntity
  8
Array
100
AcDbLine
 10
-13.568333060
 20
22.166863435
 30
0.000000000
 11
-20.001121443
 21
32.767770601
 31
0.000000000
  0
LINE
  5
A4E
330
A02
100
AcDbEntity
  8
Array
100
AcDbLine
 10
-0.000000000
 20
-0.000000000
 30
0.000000000
 11
0.286788218
 21
-0.409576022
 31
0.000000000
  0
ARC
  5
A4F
330
A02
100
AcDbEntity
  8
Array
100
AcDbCircle
 10
-0.186449694
 20
0.266274806
 30
0.000000000
 40
25.664786444
100
AcDbArc
 50
123.957754096
 51
126.042178314
  0
LINE
  5
A50
330
A02
100
AcDbEntity
  8
Array
100
AcDbLine
 10
-22.619353094
 20
31.018325552
 30
0.000000000
 11
-15.287113455
 21
21.018412459
 31
0.000000000
  0
ARC
  5
A51
330
A02
100
AcDbEntity
  8
Array
100
AcDbCircle
 10
-0.186449694
 20
0.266274806
 30
0.000000000
 40
38.064731447
100
AcDbArc
 50
123.890076074
 51
126.109878355
  0
LINE
  5
A52
330
A02
100
AcDbEntity
  8
Array
100
AcDbLine
 10
-14.522324016
 20
21.553923117
 30
0.000000000
 11
-21.411394886
 21
31.864146280
 31
0.000000000
  0
LINE
  5
A53
330
A02
100
AcDbEntity
  8
Array
100
AcDbLine
 10
-0.000000000
 20
-0.000000000
 30
0.000000000
 11
0.304380715
 21
-0.396676670
 31
0.000000000
  0
ARC
  5
A54
330
A02
100
AcDbEntity
  8
Array
100
AcDbCircle
 10
-0.197886979
 20
0.257888550
 30
0.000000000
 40
25.664786444
100
AcDbArc
 50
126.457754096
 51
128.542178314
  0
LINE
  5
A55
330
A02
100
AcDbEntity
  8
Array
100
AcDbLine
 10
-23.950824840
 20
30.002160655
 30
0.000000000
 11
-16.189373785
 21
20.331593064
 31
0.000000000
  0
ARC
  5
A56
330
A02
100
AcDbEntity
  8
Array
100
AcDbCircle
 10
-0.197886979
 20
0.257888550
 30
0.000000000
 40
38.064731447
100
AcDbArc
 50
126.390076074
 51
128.609878355
  0
LINE
  5
A57
330
A02
100
AcDbEntity
  8
Array
100
AcDbLine
 10
-15.448670903
 20
20.899953681
 30
0.000000000
 11
-22.780910522
 21
30.899866746
 31
0.000000000
  0
LINE
  5
A58
330
A02
100
AcDbEntity
  8
Array
100
AcDbLine
 10
-0.000000000
 20
-0.000000000
 30
0.000000000
 11
0.321393805
 21
-0.383022222
 31
0.000000000
  0
ARC
  5
A59
330
A02
100
AcDbEntity
  8
Array
100
AcDbCircle
 10
-0.208947575
 20
0.249011388
 30
0.000000000
 40
25.664786444
100
AcDbArc
 50
128.957754096
 51
131.042178314
  0
LINE
  5
A5A
330
A02
100
AcDbEntity
  8
Array
100
AcDbLine
 10
-25.236704829
 20
28.928884939
 30
0.000000000
 11
-17.060816722
 21
19.606071327
 31
0.000000000
  0
ARC
  5
A5B
330
A02
100
AcDbEntity
  8
Array
100
AcDbCircle
 10
-0.208947575
 20
0.249011388
 30
0.000000000
 40
38.064731447
100
AcDbArc
 50
128.890076074
 51
131.109878355
  0
LINE
  5
A5C
330
A02
100
AcDbEntity
  8
Array
100
AcDbLine
 10
-16.345610367
 20
20.206199996
 30
0.000000000
 11
-24.107061400
 21
29.876767559
 31
0.000000000
  0
LINE
  5
A5D
330
A02
100
AcDbEntity
  8
Array
100
AcDbLine
 10
-0.000000000
 20
-0.000000000
 30
0.000000000
 11
0.337795104
 21
-0.368638668
 31
0.000000000
  0
ARC
  5
A5E
330
A02
100
AcDbEntity
  8
Array
100
AcDbCircle
 10
-0.219610427
 20
0.239660219
 30
0.000000000
 40
25.664786444
100
AcDbArc
 50
131.457754096
 51
133.542178314
  0
LINE
  5
A5F
330
A02
100
AcDbEntity
  8
Array
100
AcDbLine
 10
-26.474545316
 20
27.800541447
 30
0.000000000
 11
-17.899783425
 21
18.843228318
 31
0.000000000
  0
ARC
  5
A60
330
A02
100
AcDbEntity
  8
Array
100
AcDbCircle
 10
-0.219610427
 20
0.239660219
 30
0.000000000
 40
38.064731447
100
AcDbArc
 50
131.390076074
 51
133.609878355
  0
LINE
  5
A61
330
A02
100
AcDbEntity
  8
Array
100
AcDbLine
 10
-17.211435033
 20
19.473982661
 30
0.000000000
 11
-25.387323117
 21
28.796796247
 31
0.000000000
  0
LINE
  5
A62
330
A02
100
AcDbEntity
  8
Array
100
AcDbLine
 10
-0.000000000
 20
-0.000000000
 30
0.000000000
 11
0.353553391
 21
-0.353553391
 31
0.000000000
  0
ARC
  5
A63
330
A02
100
AcDbEntity
  8
Array
100
AcDbCircle
 10
-0.229855239
 20
0.229852844
 30
0.000000000
 40
25.664786444
100
AcDbArc
 50
133.957754096
 51
136.042178314
  0
LINE
  5
A64
330
A02
100
AcDbEntity
  8
Array
100
AcDbLine
 10
-27.661990002
 20
26.619278045
 30
0.000000000
 11
-18.704676872
 21
18.044516153
 31
0.000000000
  0
ARC
  5
A65
330
A02
100
AcDbEntity
  8
Array
100
AcDbCircle
 10
-0.229855239
 20
0.229852844
 30
0.000000000
 40
38.064731447
100
AcDbArc
 50
133.890076074
 51
136.109878355
  0
LINE
  5
A66
330
A02
100
AcDbEntity
  8
Array
100
AcDbLine
 10
-18.044496754
 20
18.704695492
 30
0.000000000
 11
-26.619258621
 21
27.662008596
 31
0.000000000
  0
LINE
  5
A67
330
A02
100
AcDbEntity
  8
Array
100
AcDbLine
 10
-0.000000000
 20
-0.000000000
 30
0.000000000
 11
0.368638668
 21
-0.337795104
 31
0.000000000
  0
ARC
  5
A68
330
A02
100
AcDbEntity
  8
Array
100
AcDbCircle
 10
-0.239662508
 20
0.219607930
 30
0.000000000
 40
25.664786444
100
AcDbArc
 50
136.457754096
 51
138.542178314
  0
LINE
  5
A69
330
A02
100
AcDbEntity
  8
Array
100
AcDbLine
 10
-28.796778517
 20
25.387343333
 30
0.000000000
 11
-19.473964904
 21
17.211455226
 31
0.000000000
  0
ARC
  5
A6A
330
A02
100
AcDbEntity
  8
Array
100
AcDbCircle
 10
-0.239662508
 20
0.219607930
 30
0.000000000
 40
38.064731447
100
AcDbArc
 50
136.390076074
 51
138.609878355
  0
LINE
  5
A6B
330
A02
100
AcDbEntity
  8
Array
100
AcDbLine
 10
-18.843209749
 20
17.899802873
 30
0.000000000
 11
-27.800522853
 21
26.474564740
 31
0.000000000
  0
LINE
  5
A6C
330
A02
100
AcDbEntity
  8
Array
100
AcDbLine
 10
-0.000000000
 20
-0.000000000
 30
0.000000000
 11
0.383022222
 21
-0.321393805
 31
0.000000000
  0
ARC
  5
A6D
330
A02
100
AcDbEntity
  8
Array
100
AcDbCircle
 10
-0.249013565
 20
0.208944980
 30
0.000000000
 40
25.664786444
100
AcDbArc
 50
138.957754096
 51
141.042178314
  0
LINE
  5
A6E
330
A02
100
AcDbEntity
  8
Array
100
AcDbLine
 10
-29.876750728
 20
24.107082370
 30
0.000000000
 11
-20.206183138
 21
16.345631315
 31
0.000000000
  0
ARC
  5
A6F
330
A02
100
AcDbEntity
  8
Array
100
AcDbCircle
 10
-0.249013565
 20
0.208944980
 30
0.000000000
 40
38.064731447
100
AcDbArc
 50
138.890076074
 51
141.109878355
  0
LINE
  5
A70
330
A02
100
AcDbEntity
  8
Array
100
AcDbLine
 10
-19.606053624
 20
17.060836962
 30
0.000000000
 11
-28.928867210
 21
25.236725046
 31
0.000000000
  0
LINE
  5
A71
330
A02
100
AcDbEntity
  8
Array
100
AcDbLine
 10
-0.000000000
 20
-0.000000000
 30
0.000000000
 11
0.396676670
 21
-0.304380715
 31
0.000000000
  0
ARC
  5
A72
330
A02
100
AcDbEntity
  8
Array
100
AcDbCircle
 10
-0.257890612
 20
0.197884292
 30
0.000000000
 40
25.664786444
100
AcDbArc
 50
141.457754096
 51
143.542178314
  0
LINE
  5
A73
330
A02
100
AcDbEntity
  8
Array
100
AcDbLine
 10
-30.899850846
 20
22.780932207
 30
0.000000000
 11
-20.899937753
 21
15.448692567
 31
0.000000000
  0
ARC
  5
A74
330
A02
100
AcDbEntity
  8
Array
100
AcDbCircle
 10
-0.257890612
 20
0.197884292
 30
0.000000000
 40
38.064731447
100
AcDbArc
 50
141.390076074
 51
143.609878355
  0
LINE
  5
A75
330
A02
100
AcDbEntity
  8
Array
100
AcDbLine
 10
-20.331576262
 20
16.189394778
 30
0.000000000
 11
-30.002143824
 21
23.950845811
 31
0.000000000
  0
LINE
  5
A76
330
A02
100
AcDbEntity
  8
Array
100
AcDbLine
 10
-0.000000000
 20
-0.000000000
 30
0.000000000
 11
0.409576022
 21
-0.286788218
 31
0.000000000
  0
ARC
  5
A77
330
A02
100
AcDbEntity
  8
Array
100
AcDbCircle
 10
-0.266276749
 20
0.186446919
 30
0.000000000
 40
25.664786444
100
AcDbArc
 50
143.957754096
 51
146.042178314
  0
LINE
  5
A78
330
A02
100
AcDbEntity
  8
Array
100
AcDbLine
 10
-31.864131341
 20
21.411417243
 30
0.000000000
 11
-21.553908148
 21
14.522346354
 31
0.000000000
  0
ARC
  5
A79
330
A02
100
AcDbEntity
  8
Array
100
AcDbCircle
 10
-0.266276749
 20
0.186446919
 30
0.000000000
 40
38.064731447
100
AcDbArc
 50
143.890076074
 51
146.109878355
  0
LINE
  5
A7A
330
A02
100
AcDbEntity
  8
Array
100
AcDbLine
 10
-21.018396588
 20
15.287135160
 30
0.000000000
 11
-31.018309653
 21
22.619374779
 31
0.000000000
  0
LINE
  5
A7B
330
A02
100
AcDbEntity
  8
Array
100
AcDbLine
 10
-0.000000000
 20
-0.000000000
 30
0.000000000
 11
0.421695723
 21
-0.268649804
 31
0.000000000
  0
ARC
  5
A7C
330
A02
100
AcDbEntity
  8
Array
100
AcDbCircle
 10
-0.274156012
 20
0.174654634
 30
0.000000000
 40
25.664786444
100
AcDbArc
 50
146.457754096
 51
148.542178314
  0
LINE
  5
A7D
330
A02
100
AcDbEntity
  8
Array
100
AcDbLine
 10
-32.767756651
 20
20.001144430
 30
0.000000000
 11
-22.166849455
 21
13.568356029
 31
0.000000000
  0
ARC
  5
A7E
330
A02
100
AcDbEntity
  8
Array
100
AcDbCircle
 10
-0.274156012
 20
0.174654634
 30
0.000000000
 40
38.064731447
100
AcDbArc
 50
146.390076074
 51
148.609878355
  0
LINE
  5
A7F
330
A02
100
AcDbEntity
  8
Array
100
AcDbLine
 10
-21.665207202
 20
14.355775613
 30
0.000000000
 11
-31.975430365
 21
21.244846482
 31
0.000000000
  0
LINE
  5
A80
330
A02
100
AcDbEntity
  8
Array
100
AcDbLine
 10
-0.000000000
 20
-0.000000000
 30
0.000000000
 11
0.433012702
 21
-0.250000000
 31
0.000000000
  0
ARC
  5
A81
330
A02
100
AcDbEntity
  8
Array
100
AcDbCircle
 10
-0.281513405
 20
0.162529884
 30
0.000000000
 40
25.664786444
100
AcDbArc
 50
148.957754096
 51
151.042178314
  0
LINE
  5
A82
330
A02
100
AcDbEntity
  8
Array
100
AcDbLine
 10
-33.609006674
 20
18.552798302
 30
0.000000000
 11
-22.737594903
 21
12.588537568
 31
0.000000000
  0
ARC
  5
A83
330
A02
100
AcDbEntity
  8
Array
100
AcDbCircle
 10
-0.281513405
 20
0.162529884
 30
0.000000000
 40
38.064731447
100
AcDbArc
 50
148.890076074
 51
151.109878355
  0
LINE
  5
A84
330
A02
100
AcDbEntity
  8
Array
100
AcDbLine
 10
-22.270776863
 20
13.397089030
 30
0.000000000
 11
-32.871684029
 21
19.829877413
 31
0.000000000
  0
LINE
  5
A85
330
A02
100
AcDbEntity
  8
Array
100
AcDbLine
 10
-0.000000000
 20
-0.000000000
 30
0.000000000
 11
0.443505417
 21
-0.230874307
 31
0.000000000
  0
ARC
  5
A86
330
A02
100
AcDbEntity
  8
Array
100
AcDbCircle
 10
-0.288334920
 20
0.150095750
 30
0.000000000
 40
25.664786444
100
AcDbArc
 50
151.457754096
 51
153.542178314
  0
LINE
  5
A87
330
A02
100
AcDbEntity
  8
Array
100
AcDbLine
 10
-34.386280043
 20
17.069135868
 30
0.000000000
 11
-23.265058048
 21
11.584756110
 31
0.000000000
  0
ARC
  5
A88
330
A02
100
AcDbEntity
  8
Array
100
AcDbCircle
 10
-0.288334920
 20
0.150095750
 30
0.000000000
 40
38.064731447
100
AcDbArc
 50
151.390076074
 51
153.609878355
  0
LINE
  5
A89
330
A02
100
AcDbEntity
  8
Array
100
AcDbLine
 10
-22.833952834
 20
12.412900327
 30
0.000000000
 11
-33.705364574
 21
18.377161044
 31
0.000000000
  0
LINE
  5
A8A
330
A02
100
AcDbEntity
  8
Array
100
AcDbLine
 10
-0.000000000
 20
-0.000000000
 30
0.000000000
 11
0.453153894
 21
-0.211309131
 31
0.000000000
  0
ARC
  5
A8B
330
A02
100
AcDbEntity
  8
Array
100
AcDbCircle
 10
-0.294607574
 20
0.137375899
 30
0.000000000
 40
25.664786444
100
AcDbArc
 50
153.957754096
 51
156.042178314
  0
LINE
  5
A8C
330
A02
100
AcDbEntity
  8
Array
100
AcDbLine
 10
-35.098097173
 20
15.552981364
 30
0.000000000
 11
-23.748234832
 21
10.558922410
 31
0.000000000
  0
ARC
  5
A8D
330
A02
100
AcDbEntity
  8
Array
100
AcDbCircle
 10
-0.294607574
 20
0.137375899
 30
0.000000000
 40
38.064731447
100
AcDbArc
 50
153.890076074
 51
156.109878355
  0
LINE
  5
A8E
330
A02
100
AcDbEntity
  8
Array
100
AcDbLine
 10
-23.353663079
 20
11.405082962
 30
0.000000000
 11
-34.474885042
 21
16.889462705
 31
0.000000000
  0
LINE
  5
A8F
330
A02
100
AcDbEntity
  8
Array
100
AcDbLine
 10
-0.000000000
 20
-0.000000000
 30
0.000000000
 11
0.461939766
 21
-0.191341716
 31
0.000000000
  0
ARC
  5
A90
330
A02
100
AcDbEntity
  8
Array
100
AcDbCircle
 10
-0.300319426
 20
0.124394546
 30
0.000000000
 40
25.664786444
100
AcDbArc
 50
156.457754096
 51
158.542178314
  0
LINE
  5
A91
330
A02
100
AcDbEntity
  8
Array
100
AcDbLine
 10
-35.743103081
 20
14.007220876
 30
0.000000000
 11
-24.186205501
 21
9.512989201
 31
0.000000000
  0
ARC
  5
A92
330
A02
100
AcDbEntity
  8
Array
100
AcDbCircle
 10
-0.300319426
 20
0.124394546
 30
0.000000000
 40
38.064731447
100
AcDbArc
 50
156.390076074
 51
158.609878355
  0
LINE
  5
A93
330
A02
100
AcDbEntity
  8
Array
100
AcDbLine
 10
-23.828918298
 20
10.375555374
 30
0.000000000
 11
-35.178780606
 21
15.369614314
 31
0.000000000
  0
LINE
  5
A94
330
A02
100
AcDbEntity
  8
Array
100
AcDbLine
 10
-0.000000000
 20
-0.000000000
 30
0.000000000
 11
0.469846310
 21
-0.171010072
 31
0.000000000
  0
ARC
  5
A95
330
A02
100
AcDbEntity
  8
Array
100
AcDbCircle
 10
-0.305459602
 20
0.111176401
 30
0.000000000
 40
25.664786444
100
AcDbArc
 50
158.957754096
 51
161.042178314
  0
LINE
  5
A96
330
A02
100
AcDbEntity
  8
Array
100
AcDbLine
 10
-36.320069960
 20
12.434796846
 30
0.000000000
 11
-24.578136354
 21
8.448947476
 31
0.000000000
  0
ARC
  5
A97
330
A02
100
AcDbEntity
  8
Array
100
AcDbCircle
 10
-0.305459602
 20
0.111176401
 30
0.000000000
 40
38.064731447
100
AcDbArc
 50
158.890076074
 51
161.109878355
  0
LINE
  5
A98
330
A02
100
AcDbEntity
  8
Array
100
AcDbLine
 10
-24.258813817
 20
9.326277327
 30
0.000000000
 11
-35.815711362
 21
13.820508989
 31
0.000000000
  0
LINE
  5
A99
330
A02
100
AcDbEntity
  8
Array
100
AcDbLine
 10
-0.000000000
 20
-0.000000000
 30
0.000000000
 11
0.476858475
 21
-0.150352900
 31
0.000000000
  0
ARC
  5
A9A
330
A02
100
AcDbEntity
  8
Array
100
AcDbCircle
 10
-0.310018319
 20
0.097746625
 30
0.000000000
 40
25.664786444
100
AcDbArc
 50
161.457754096
 51
163.542178314
  0
LINE
  5
A9B
330
A02
100
AcDbEntity
  8
Array
100
AcDbLine
 10
-36.827899521
 20
10.838702474
 30
0.000000000
 11
-24.923281327
 21
7.368822700
 31
0.000000000
  0
ARC
  5
A9C
330
A02
100
AcDbEntity
  8
Array
100
AcDbCircle
 10
-0.310018319
 20
0.097746625
 30
0.000000000
 40
38.064731447
100
AcDbArc
 50
161.390076074
 51
163.609878355
  0
LINE
  5
A9D
330
A02
100
AcDbEntity
  8
Array
100
AcDbLine
 10
-24.642531304
 20
8.259246180
 30
0.000000000
 11
-36.384464877
 21
12.245095539
 31
0.000000000
  0
LINE
  5
A9E
330
A02
100
AcDbEntity
  8
Array
100
AcDbLine
 10
-0.000000000
 20
-0.000000000
 30
0.000000000
 11
0.482962913
 21
-0.129409523
 31
0.000000000
  0
ARC
  5
A9F
330
A02
100
AcDbEntity
  8
Array
100
AcDbCircle
 10
-0.313986898
 20
0.084130782
 30
0.000000000
 40
25.664786444
100
AcDbArc
 50
163.957754096
 51
166.042178314
  0
LINE
  5
AA0
330
A02
100
AcDbEntity
  8
Array
100
AcDbLine
 10
-37.265625083
 20
9.221976016
 30
0.000000000
 11
-25.220983417
 21
6.274670951
 31
0.000000000
  0
ARC
  5
AA1
330
A02
100
AcDbEntity
  8
Array
100
AcDbCircle
 10
-0.313986898
 20
0.084130782
 30
0.000000000
 40
38.064731447
100
AcDbArc
 50
163.890076074
 51
166.109878355
  0
LINE
  5
AA2
330
A02
100
AcDbEntity
  8
Array
100
AcDbLine
 10
-24.979340334
 20
7.176493090
 30
0.000000000
 11
-36.883958494
 21
10.646372854
 31
0.000000000
  0
LINE
  5
AA3
330
A02
100
AcDbEntity
  8
Array
100
AcDbLine
 10
-0.000000000
 20
-0.000000000
 30
0.000000000
 11
0.488148004
 21
-0.108219807
 31
0.000000000
  0
ARC
  5
AA4
330
A02
100
AcDbEntity
  8
Array
100
AcDbCircle
 10
-0.317357785
 20
0.070354792
 30
0.000000000
 40
25.664786444
100
AcDbArc
 50
166.457754096
 51
168.542178314
  0
LINE
  5
AA5
330
A02
100
AcDbEntity
  8
Array
100
AcDbLine
 10
-37.632413410
 20
7.587695002
 30
0.000000000
 11
-25.470675932
 21
5.168575009
 31
0.000000000
  0
ARC
  5
AA6
330
A02
100
AcDbEntity
  8
Array
100
AcDbCircle
 10
-0.317357785
 20
0.070354792
 30
0.000000000
 40
38.064731447
100
AcDbArc
 50
166.390076074
 51
168.609878355
  0
LINE
  5
AA7
330
A02
100
AcDbEntity
  8
Array
100
AcDbLine
 10
-25.268599768
 20
6.080079136
 30
0.000000000
 11
-37.313241400
 21
9.027384193
 31
0.000000000
  0
LINE
  5
AA8
330
A02
100
AcDbEntity
  8
Array
100
AcDbLine
 10
-0.000000000
 20
-0.000000000
 30
0.000000000
 11
0.492403877
 21
-0.086824089
 31
0.000000000
  0
ARC
  5
AA9
330
A02
100
AcDbEntity
  8
Array
100
AcDbCircle
 10
-0.320124564
 20
0.056444878
 30
0.000000000
 40
25.664786444
100
AcDbArc
 50
168.957754096
 51
171.042178314
  0
LINE
  5
AAA
330
A02
100
AcDbEntity
  8
Array
100
AcDbLine
 10
-37.927566298
 20
5.938970380
 30
0.000000000
 11
-25.671883568
 21
4.052640391
 31
0.000000000
  0
ARC
  5
AAB
330
A02
100
AcDbEntity
  8
Array
100
AcDbCircle
 10
-0.320124564
 20
0.056444878
 30
0.000000000
 40
38.064731447
100
AcDbArc
 50
168.890076074
 51
171.109878355
  0
LINE
  5
AAC
330
A02
100
AcDbEntity
  8
Array
100
AcDbLine
 10
-25.509758988
 20
4.972091407
 30
0.000000000
 11
-37.671496430
 21
7.391211393
 31
0.000000000
  0
LINE
  5
AAD
330
A02
100
AcDbEntity
  8
Array
100
AcDbLine
 10
-0.000000000
 20
-0.000000000
 30
0.000000000
 11
0.495722431
 21
-0.065263096
 31
0.000000000
  0
ARC
  5
AAE
330
A02
100
AcDbEntity
  8
Array
100
AcDbCircle
 10
-0.322281967
 20
0.042427518
 30
0.000000000
 40
25.664786444
100
AcDbArc
 50
171.457754096
 51
173.542178314
  0
LINE
  5
AAF
330
A02
100
AcDbEntity
  8
Array
100
AcDbLine
 10
-38.150521909
 20
4.278940590
 30
0.000000000
 11
-25.824223315
 21
2.928991342
 31
0.000000000
  0
ARC
  5
AB0
330
A02
100
AcDbEntity
  8
Array
100
AcDbCircle
 10
-0.322281967
 20
0.042427518
 30
0.000000000
 40
38.064731447
100
AcDbArc
 50
171.390076074
 51
173.609878355
  0
LINE
  5
AB1
330
A02
100
AcDbEntity
  8
Array
100
AcDbLine
 10
-25.702358931
 20
3.854639018
 30
0.000000000
 11
-37.958041625
 21
5.740969002
 31
0.000000000
  0
LINE
  5
AB2
330
A02
100
AcDbEntity
  8
Array
100
AcDbLine
 10
-0.000000000
 20
-0.000000000
 30
0.000000000
 11
0.498097349
 21
-0.043577871
 31
0.000000000
  0
ARC
  5
AB3
330
A02
100
AcDbEntity
  8
Array
100
AcDbCircle
 10
-0.323825888
 20
0.028329394
 30
0.000000000
 40
25.664786444
100
AcDbArc
 50
173.957754096
 51
176.042178314
  0
LINE
  5
AB4
330
A02
100
AcDbEntity
  8
Array
100
AcDbLine
 10
-38.300855832
 20
2.610765593
 30
0.000000000
 11
-25.927405184
 21
1.799766791
 31
0.000000000
  0
ARC
  5
AB5
330
A02
100
AcDbEntity
  8
Array
100
AcDbCircle
 10
-0.323825888
 20
0.028329394
 30
0.000000000
 40
38.064731447
100
AcDbArc
 50
173.890076074
 51
176.109878355
  0
LINE
  5
AB6
330
A02
100
AcDbEntity
  8
Array
100
AcDbLine
 10
-25.846032973
 20
2.729849106
 30
0.000000000
 11
-38.172331531
 21
4.079798350
 31
0.000000000
  0
LINE
  5
AB7
330
A02
100
AcDbEntity
  8
Array
100
AcDbLine
 10
-0.000000000
 20
-0.000000000
 30
0.000000000
 11
0.499524111
 21
-0.021809694
 31
0.000000000
  0
ARC
  5
AB8
330
A02
100
AcDbEntity
  8
Array
100
AcDbCircle
 10
-0.324753389
 20
0.014177344
 30
0.000000000
 40
25.664786444
100
AcDbArc
 50
176.457754096
 51
178.542178314
  0
LINE
  5
AB9
330
A02
100
AcDbEntity
  8
Array
100
AcDbLine
 10
-38.378281900
 20
0.937620856
 30
0.000000000
 11
-25.981232764
 21
0.667116282
 31
0.000000000
  0
ARC
  5
ABA
330
A02
100
AcDbEntity
  8
Array
100
AcDbCircle
 10
-0.324753389
 20
0.014177344
 30
0.000000000
 40
38.064731447
100
AcDbArc
 50
176.390076074
 51
178.609878355
  0
LINE
  5
ABB
330
A02
100
AcDbEntity
  8
Array
100
AcDbLine
 10
-25.940507622
 20
1.599862770
 30
0.000000000
 11
-38.313958234
 21
2.410861570
 31
0.000000000
  0
LINE
  5
ABC
330
A02
100
AcDbEntity
  8
Array
100
AcDbLine
 10
-0.000000000
 20
-0.000000000
 30
0.000000000
 11
0.500000000
 21
0.000000000
 31
0.000000000
  0
ARC
  5
ABD
330
A02
100
AcDbEntity
  8
Array
100
AcDbCircle
 10
-0.325062702
 20
-0.000001694
 30
0.000000000
 40
25.664786444
100
AcDbArc
 50
178.957754096
 51
-178.957821686
  0
LINE
  5
ABE
330
A02
100
AcDbEntity
  8
Array
100
AcDbLine
 10
-38.382652727
 20
-0.737308696
 30
0.000000000
 11
-25.985603591
 21
-0.466804122
 31
0.000000000
  0
ARC
  5
ABF
330
A02
100
AcDbEntity
  8
Array
100
AcDbCircle
 10
-0.325062702
 20
-0.000001694
 30
0.000000000
 40
38.064731447
100
AcDbArc
 50
178.890076074
 51
-178.890121645
  0
LINE
  5
AC0
330
A02
100
AcDbEntity
  8
Array
100
AcDbLine
 10
-25.985603040
 20
0.466831005
 30
0.000000000
 11
-38.382652141
 21
0.737335579
 31
0.000000000
  0
LINE
  5
AC1
330
A02
100
AcDbEntity
  8
Array
100
AcDbLine
 10
0.000000000
 20
-0.000000000
 30
0.000000000
 11
0.499524111
 21
0.021809694
 31
0.000000000
  0
ARC
  5
AC2
330
A02
100
AcDbEntity
  8
Array
100
AcDbCircle
 10
-0.324753241
 20
-0.014180728
 30
0.000000000
 40
25.664786444
100
AcDbArc
 50
-178.542245904
 51
-176.457821686
  0
LINE
  5
AC3
330
A02
100
AcDbEntity
  8
Array
100
AcDbLine
 10
-38.313959993
 20
-2.410834739
 30
0.000000000
 11
-25.940509345
 21
-1.599835936
 31
0.000000000
  0
ARC
  5
AC4
330
A02
100
AcDbEntity
  8
Array
100
AcDbCircle
 10
-0.324753241
 20
-0.014180728
 30
0.000000000
 40
38.064731447
100
AcDbArc
 50
-178.609923926
 51
-176.390121645
  0
LINE
  5
AC5
330
A02
100
AcDbEntity
  8
Array
100
AcDbLine
 10
-25.981233387
 20
-0.667089400
 30
0.000000000
 11
-38.378282487
 21
-0.937593973
 31
0.000000000
  0
LINE
  5
AC6
330
A02
100
AcDbEntity
  8
Array
100
AcDbLine
 10
0.000000000
 20
-0.000000000
 30
0.000000000
 11
0.498097349
 21
0.043577871
 31
0.000000000
  0
ARC
  5
AC7
330
A02
100
AcDbEntity
  8
Array
100
AcDbCircle
 10
-0.323825593
 20
-0.028332768
 30
0.000000000
 40
25.664786444
100
AcDbArc
 50
-176.042245904
 51
-173.957821686
  0
LINE
  5
AC8
330
A02
100
AcDbEntity
  8
Array
100
AcDbLine
 10
-38.172334458
 20
-4.079771621
 30
0.000000000
 11
-25.846035864
 21
-2.729822373
 31
0.000000000
  0
ARC
  5
AC9
330
A02
100
AcDbEntity
  8
Array
100
AcDbCircle
 10
-0.323825593
 20
-0.028332768
 30
0.000000000
 40
38.064731447
100
AcDbArc
 50
-176.109923926
 51
-173.890121645
  0
LINE
  5
ACA
330
A02
100
AcDbEntity
  8
Array
100
AcDbLine
 10
-25.927406979
 20
-1.799739962
 30
0.000000000
 11
-38.300857591
 21
-2.610738762
 31
0.000000000
  0
LINE
  5
ACB
330
A02
100
AcDbEntity
  8
Array
100
AcDbLine
 10
0.000000000
 20
-0.000000000
 30
0.000000000
 11
0.495722431
 21
0.065263096
 31
0.000000000
  0
ARC
  5
ACC
330
A02
100
AcDbEntity
  8
Array
100
AcDbCircle
 10
-0.322281525
 20
-0.042430876
 30
0.000000000
 40
25.664786444
100
AcDbArc
 50
-173.542245904
 51
-171.457821686
  0
LINE
  5
ACD
330
A02
100
AcDbEntity
  8
Array
100
AcDbLine
 10
-37.958045716
 20
-5.740942426
 30
0.000000000
 11
-25.702362986
 21
-3.854612437
 31
0.000000000
  0
ARC
  5
ACE
330
A02
100
AcDbEntity
  8
Array
100
AcDbCircle
 10
-0.322281525
 20
-0.042430876
 30
0.000000000
 40
38.064731447
100
AcDbArc
 50
-173.609923926
 51
-171.390121645
  0
LINE
  5
ACF
330
A02
100
AcDbEntity
  8
Array
100
AcDbLine
 10
-25.824226278
 20
-2.928964616
 30
0.000000000
 11
-38.150524836
 21
-4.278913861
 31
0.000000000
  0
LINE
  5
AD0
330
A02
100
AcDbEntity
  8
Array
100
AcDbLine
 10
0.000000000
 20
-0.000000000
 30
0.000000000
 11
0.492403877
 21
0.086824089
 31
0.000000000
  0
ARC
  5
AD1
330
A02
100
AcDbEntity
  8
Array
100
AcDbCircle
 10
-0.320123975
 20
-0.056448214
 30
0.000000000
 40
25.664786444
100
AcDbArc
 50
-171.042245904
 51
-168.957821686
  0
LINE
  5
AD2
330
A02
100
AcDbEntity
  8
Array
100
AcDbLine
 10
-37.671501675
 20
-7.391185020
 30
0.000000000
 11
-25.509764198
 21
-4.972065027
 31
0.000000000
  0
ARC
  5
AD3
330
A02
100
AcDbEntity
  8
Array
100
AcDbCircle
 10
-0.320123975
 20
-0.056448214
 30
0.000000000
 40
38.064731447
100
AcDbArc
 50
-171.109923926
 51
-168.890121645
  0
LINE
  5
AD4
330
A02
100
AcDbEntity
  8
Array
100
AcDbLine
 10
-25.671887694
 20
-4.052613820
 30
0.000000000
 11
-37.927570389
 21
-5.938943804
 31
0.000000000
  0
LINE
  5
AD5
330
A02
100
AcDbEntity
  8
Array
100
AcDbLine
 10
0.000000000
 20
-0.000000000
 30
0.000000000
 11
0.488148004
 21
0.108219807
 31
0.000000000
  0
ARC
  5
AD6
330
A02
100
AcDbEntity
  8
Array
100
AcDbCircle
 10
-0.317357052
 20
-0.070358099
 30
0.000000000
 40
25.664786444
100
AcDbArc
 50
-168.542245904
 51
-166.457821686
  0
LINE
  5
AD7
330
A02
100
AcDbEntity
  8
Array
100
AcDbLine
 10
-37.313247791
 20
-9.027358074
 30
0.000000000
 11
-25.268606125
 21
-6.080053009
 31
0.000000000
  0
ARC
  5
AD8
330
A02
100
AcDbEntity
  8
Array
100
AcDbCircle
 10
-0.317357052
 20
-0.070358099
 30
0.000000000
 40
38.064731447
100
AcDbArc
 50
-168.609923926
 51
-166.390121645
  0
LINE
  5
AD9
330
A02
100
AcDbEntity
  8
Array
100
AcDbLine
 10
-25.470681213
 20
-5.168548644
 30
0.000000000
 11
-37.632418656
 21
-7.587668630
 31
0.000000000
  0
LINE
  5
ADA
330
A02
100
AcDbEntity
  8
Array
100
AcDbLine
 10
0.000000000
 20
-0.000000000
 30
0.000000000
 11
0.482962913
 21
0.129409523
 31
0.000000000
  0
ARC
  5
ADB
330
A02
100
AcDbEntity
  8
Array
100
AcDbCircle
 10
-0.313986021
 20
-0.084134054
 30
0.000000000
 40
25.664786444
100
AcDbArc
 50
-166.042245904
 51
-163.957821686
  0
LINE
  5
ADC
330
A02
100
AcDbEntity
  8
Array
100
AcDbLine
 10
-36.883966018
 20
-10.646347039
 30
0.000000000
 11
-24.979347823
 21
-7.176467265
 31
0.000000000
  0
ARC
  5
ADD
330
A02
100
AcDbEntity
  8
Array
100
AcDbCircle
 10
-0.313986021
 20
-0.084134054
 30
0.000000000
 40
38.064731447
100
AcDbArc
 50
-166.109923926
 51
-163.890121645
  0
LINE
  5
ADE
330
A02
100
AcDbEntity
  8
Array
100
AcDbLine
 10
-25.220989843
 20
-6.274644841
 30
0.000000000
 11
-37.265631474
 21
-9.221949897
 31
0.000000000
  0
LINE
  5
ADF
330
A02
100
AcDbEntity
  8
Array
100
AcDbLine
 10
0.000000000
 20
-0.000000000
 30
0.000000000
 11
0.476858475
 21
0.150352900
 31
0.000000000
  0
ARC
  5
AE0
330
A02
100
AcDbEntity
  8
Array
100
AcDbCircle
 10
-0.310017300
 20
-0.097749855
 30
0.000000000
 40
25.664786444
100
AcDbArc
 50
-163.542245904
 51
-161.457821686
  0
LINE
  5
AE1
330
A02
100
AcDbEntity
  8
Array
100
AcDbLine
 10
-36.384473520
 20
-12.245070077
 30
0.000000000
 11
-24.642539914
 21
-8.259220707
 31
0.000000000
  0
ARC
  5
AE2
330
A02
100
AcDbEntity
  8
Array
100
AcDbCircle
 10
-0.310017300
 20
-0.097749855
 30
0.000000000
 40
38.064731447
100
AcDbArc
 50
-163.609923926
 51
-161.390121645
  0
LINE
  5
AE3
330
A02
100
AcDbEntity
  8
Array
100
AcDbLine
 10
-24.923288886
 20
-7.368796895
 30
0.000000000
 11
-36.827907046
 21
-10.838676659
 31
0.000000000
  0
LINE
  5
AE4
330
A02
100
AcDbEntity
  8
Array
100
AcDbLine
 10
0.000000000
 20
-0.000000000
 30
0.000000000
 11
0.469846310
 21
0.171010072
 31
0.000000000
  0
ARC
  5
AE5
330
A02
100
AcDbEntity
  8
Array
100
AcDbCircle
 10
-0.305458443
 20
-0.111179584
 30
0.000000000
 40
25.664786444
100
AcDbArc
 50
-161.042245904
 51
-158.957821686
  0
LINE
  5
AE6
330
A02
100
AcDbEntity
  8
Array
100
AcDbLine
 10
-35.815721108
 20
-13.820483928
 30
0.000000000
 11
-24.258823529
 21
-9.326252253
 31
0.000000000
  0
ARC
  5
AE7
330
A02
100
AcDbEntity
  8
Array
100
AcDbCircle
 10
-0.305458443
 20
-0.111179584
 30
0.000000000
 40
38.064731447
100
AcDbArc
 50
-161.109923926
 51
-158.890121645
  0
LINE
  5
AE8
330
A02
100
AcDbEntity
  8
Array
100
AcDbLine
 10
-24.578145031
 20
-8.448922026
 30
0.000000000
 11
-36.320078603
 21
-12.434771384
 31
0.000000000
  0
LINE
  5
AE9
330
A02
100
AcDbEntity
  8
Array
100
AcDbLine
 10
0.000000000
 20
-0.000000000
 30
0.000000000
 11
0.461939766
 21
0.191341716
 31
0.000000000
  0
ARC
  5
AEA
330
A02
100
AcDbEntity
  8
Array
100
AcDbCircle
 10
-0.300318129
 20
-0.124397675
 30
0.000000000
 40
25.664786444
100
AcDbArc
 50
-158.542245904
 51
-156.457821686
  0
LINE
  5
AEB
330
A02
100
AcDbEntity
  8
Array
100
AcDbLine
 10
-35.178791436
 20
-15.369589702
 30
0.000000000
 11
-23.828929094
 21
-10.375530748
 31
0.000000000
  0
ARC
  5
AEC
330
A02
100
AcDbEntity
  8
Array
100
AcDbCircle
 10
-0.300318129
 20
-0.124397675
 30
0.000000000
 40
38.064731447
100
AcDbArc
 50
-158.609923926
 51
-156.390121645
  0
LINE
  5
AED
330
A02
100
AcDbEntity
  8
Array
100
AcDbLine
 10
-24.186215280
 20
-9.512964153
 30
0.000000000
 11
-35.743112826
 21
-14.007195815
 31
0.000000000
  0
LINE
  5
AEE
330
A02
100
AcDbEntity
  8
Array
100
AcDbLine
 10
0.000000000
 20
-0.000000000
 30
0.000000000
 11
0.453153894
 21
0.211309131
 31
0.000000000
  0
ARC
  5
AEF
330
A02
100
AcDbEntity
  8
Array
100
AcDbCircle
 10
-0.294606143
 20
-0.137378969
 30
0.000000000
 40
25.664786444
100
AcDbArc
 50
-156.042245904
 51
-153.957821686
  0
LINE
  5
AF0
330
A02
100
AcDbEntity
  8
Array
100
AcDbLine
 10
-34.474896934
 20
-16.889438589
 30
0.000000000
 11
-23.353674939
 21
-11.405058830
 31
0.000000000
  0
ARC
  5
AF1
330
A02
100
AcDbEntity
  8
Array
100
AcDbCircle
 10
-0.294606143
 20
-0.137378969
 30
0.000000000
 40
38.064731447
100
AcDbArc
 50
-156.109923926
 51
-153.890121645
  0
LINE
  5
AF2
330
A02
100
AcDbEntity
  8
Array
100
AcDbLine
 10
-23.748245694
 20
-10.558897812
 30
0.000000000
 11
-35.098108003
 21
-15.552956752
 31
0.000000000
  0
LINE
  5
AF3
330
A02
100
AcDbEntity
  8
Array
100
AcDbLine
 10
0.000000000
 20
-0.000000000
 30
0.000000000
 11
0.443505417
 21
0.230874307
 31
0.000000000
  0
ARC
  5
AF4
330
A02
100
AcDbEntity
  8
Array
100
AcDbCircle
 10
-0.288333356
 20
-0.150098754
 30
0.000000000
 40
25.664786444
100
AcDbArc
 50
-153.542245904
 51
-151.457821686
  0
LINE
  5
AF5
330
A02
100
AcDbEntity
  8
Array
100
AcDbLine
 10
-33.705377507
 20
-18.377137470
 30
0.000000000
 11
-22.833965736
 21
-12.412876735
 31
0.000000000
  0
ARC
  5
AF6
330
A02
100
AcDbEntity
  8
Array
100
AcDbCircle
 10
-0.288333356
 20
-0.150098754
 30
0.000000000
 40
38.064731447
100
AcDbArc
 50
-153.609923926
 51
-151.390121645
  0
LINE
  5
AF7
330
A02
100
AcDbEntity
  8
Array
100
AcDbLine
 10
-23.265069973
 20
-11.584732009
 30
0.000000000
 11
-34.386291936
 21
-17.069111752
 31
0.000000000
  0
LINE
  5
AF8
330
A02
100
AcDbEntity
  8
Array
100
AcDbLine
 10
0.000000000
 20
-0.000000000
 30
0.000000000
 11
0.433012702
 21
0.250000000
 31
0.000000000
  0
ARC
  5
AF9
330
A02
100
AcDbEntity
  8
Array
100
AcDbCircle
 10
-0.281511711
 20
-0.162532818
 30
0.000000000
 40
25.664786444
100
AcDbArc
 50
-151.042245904
 51
-148.957821686
  0
LINE
  5
AFA
330
A02
100
AcDbEntity
  8
Array
100
AcDbLine
 10
-32.871697978
 20
-19.829854425
 30
0.000000000
 11
-22.270790782
 21
-13.397066023
 31
0.000000000
  0
ARC
  5
AFB
330
A02
100
AcDbEntity
  8
Array
100
AcDbCircle
 10
-0.281511711
 20
-0.162532818
 30
0.000000000
 40
38.064731447
100
AcDbArc
 50
-151.109923926
 51
-148.890121645
  0
LINE
  5
AFC
330
A02
100
AcDbEntity
  8
Array
100
AcDbLine
 10
-22.737607868
 20
-12.588514011
 30
0.000000000
 11
-33.609019608
 21
-18.552774728
 31
0.000000000
  0
LINE
  5
AFD
330
A02
100
AcDbEntity
  8
Array
100
AcDbLine
 10
0.000000000
 20
-0.000000000
 30
0.000000000
 11
0.421695723
 21
0.268649804
 31
0.000000000
  0
ARC
  5
AFE
330
A02
100
AcDbEntity
  8
Array
100
AcDbCircle
 10
-0.274154192
 20
-0.174657491
 30
0.000000000
 40
25.664786444
100
AcDbArc
 50
-148.542245904
 51
-146.457821686
  0
LINE
  5
AFF
330
A02
100
AcDbEntity
  8
Array
100
AcDbLine
 10
-31.975445304
 20
-21.244824125
 30
0.000000000
 11
-21.665222111
 21
-14.355753235
 31
0.000000000
  0
ARC
  5
B00
330
A02
100
AcDbEntity
  8
Array
100
AcDbCircle
 10
-0.274154192
 20
-0.174657491
 30
0.000000000
 40
38.064731447
100
AcDbArc
 50
-148.609923926
 51
-146.390121645
  0
LINE
  5
B01
330
A02
100
AcDbEntity
  8
Array
100
AcDbLine
 10
-22.166863435
 20
-13.568333060
 30
0.000000000
 11
-32.767770601
 21
-20.001121443
 31
0.000000000
  0
LINE
  5
B02
330
A02
100
AcDbEntity
  8
Array
100
AcDbLine
 10
0.000000000
 20
-0.000000000
 30
0.000000000
 11
0.409576022
 21
0.286788218
 31
0.000000000
  0
ARC
  5
B03
330
A02
100
AcDbEntity
  8
Array
100
AcDbCircle
 10
-0.266274806
 20
-0.186449694
 30
0.000000000
 40
25.664786444
100
AcDbArc
 50
-146.042245904
 51
-143.957821686
  0
LINE
  5
B04
330
A02
100
AcDbEntity
  8
Array
100
AcDbLine
 10
-31.018325552
 20
-22.619353094
 30
0.000000000
 11
-21.018412459
 21
-15.287113455
 31
0.000000000
  0
ARC
  5
B05
330
A02
100
AcDbEntity
  8
Array
100
AcDbCircle
 10
-0.266274806
 20
-0.186449694
 30
0.000000000
 40
38.064731447
100
AcDbArc
 50
-146.109923926
 51
-143.890121645
  0
LINE
  5
B06
330
A02
100
AcDbEntity
  8
Array
100
AcDbLine
 10
-21.553923117
 20
-14.522324016
 30
0.000000000
 11
-31.864146280
 21
-21.411394886
 31
0.000000000
  0
LINE
  5
B07
330
A02
100
AcDbEntity
  8
Array
100
AcDbLine
 10
0.000000000
 20
-0.000000000
 30
0.000000000
 11
0.396676670
 21
0.304380715
 31
0.000000000
  0
ARC
  5
B08
330
A02
100
AcDbEntity
  8
Array
100
AcDbCircle
 10
-0.257888550
 20
-0.197886979
 30
0.000000000
 40
25.664786444
100
AcDbArc
 50
-143.542245904
 51
-141.457821686
  0
LINE
  5
B09
330
A02
100
AcDbEntity
  8
Array
100
AcDbLine
 10
-30.002160655
 20
-23.950824840
 30
0.000000000
 11
-20.331593064
 21
-16.189373785
 31
0.000000000
  0
ARC
  5
B0A
330
A02
100
AcDbEntity
  8
Array
100
AcDbCircle
 10
-0.257888550
 20
-0.197886979
 30
0.000000000
 40
38.064731447
100
AcDbArc
 50
-143.609923926
 51
-141.390121645
  0
LINE
  5
B0B
330
A02
100
AcDbEntity
  8
Array
100
AcDbLine
 10
-20.899953681
 20
-15.448670903
 30
0.000000000
 11
-30.899866746
 21
-22.780910522
 31
0.000000000
  0
LINE
  5
B0C
330
A02
100
AcDbEntity
  8
Array
100
AcDbLine
 10
0.000000000
 20
-0.000000000
 30
0.000000000
 11
0.383022222
 21
0.321393805
 31
0.000000000
  0
ARC
  5
B0D
330
A02
100
AcDbEntity
  8
Array
100
AcDbCircle
 10
-0.249011388
 20
-0.208947575
 30
0.000000000
 40
25.664786444
100
AcDbArc
 50
-141.042245904
 51
-138.957821686
  0
LINE
  5
B0E
330
A02
100
AcDbEntity
  8
Array
100
AcDbLine
 10
-28.928884939
 20
-25.236704829
 30
0.000000000
 11
-19.606071327
 21
-17.060816722
 31
0.000000000
  0
ARC
  5
B0F
330
A02
100
AcDbEntity
  8
Array
100
AcDbCircle
 10
-0.249011388
 20
-0.208947575
 30
0.000000000
 40
38.064731447
100
AcDbArc
 50
-141.109923926
 51
-138.890121645
  0
LINE
  5
B10
330
A02
100
AcDbEntity
  8
Array
100
AcDbLine
 10
-20.206199996
 20
-16.345610367
 30
0.000000000
 11
-29.876767559
 21
-24.107061400
 31
0.000000000
  0
LINE
  5
B11
330
A02
100
AcDbEntity
  8
Array
100
AcDbLine
 10
0.000000000
 20
-0.000000000
 30
0.000000000
 11
0.368638668
 21
0.337795104
 31
0.000000000
  0
ARC
  5
B12
330
A02
100
AcDbEntity
  8
Array
100
AcDbCircle
 10
-0.239660219
 20
-0.219610427
 30
0.000000000
 40
25.664786444
100
AcDbArc
 50
-138.542245904
 51
-136.457821686
  0
LINE
  5
B13
330
A02
100
AcDbEntity
  8
Array
100
AcDbLine
 10
-27.800541447
 20
-26.474545316
 30
0.000000000
 11
-18.843228318
 21
-17.899783425
 31
0.000000000
  0
ARC
  5
B14
330
A02
100
AcDbEntity
  8
Array
100
AcDbCircle
 10
-0.239660219
 20
-0.219610427
 30
0.000000000
 40
38.064731447
100
AcDbArc
 50
-138.609923926
 51
-136.390121645
  0
LINE
  5
B15
330
A02
100
AcDbEntity
  8
Array
100
AcDbLine
 10
-19.473982661
 20
-17.211435033
 30
0.000000000
 11
-28.796796247
 21
-25.387323117
 31
0.000000000
  0
LINE
  5
B16
330
A02
100
AcDbEntity
  8
Array
100
AcDbLine
 10
0.000000000
 20
-0.000000000
 30
0.000000000
 11
0.353553391
 21
0.353553391
 31
0.000000000
  0
ARC
  5
B17
330
A02
100
AcDbEntity
  8
Array
100
AcDbCircle
 10
-0.229852844
 20
-0.229855239
 30
0.000000000
 40
25.664786444
100
AcDbArc
 50
-136.042245904
 51
-133.957821686
  0
LINE
  5
B18
330
A02
100
AcDbEntity
  8
Array
100
AcDbLine
 10
-26.619278045
 20
-27.661990002
 30
0.000000000
 11
-18.044516153
 21
-18.704676872
 31
0.000000000
  0
ARC
  5
B19
330
A02
100
AcDbEntity
  8
Array
100
AcDbCircle
 10
-0.229852844
 20
-0.229855239
 30
0.000000000
 40
38.064731447
100
AcDbArc
 50
-136.109923926
 51
-133.890121645
  0
LINE
  5
B1A
330
A02
100
AcDbEntity
  8
Array
100
AcDbLine
 10
-18.704695492
 20
-18.044496754
 30
0.000000000
 11
-27.662008596
 21
-26.619258621
 31
0.000000000
  0
LINE
  5
B1B
330
A02
100
AcDbEntity
  8
Array
100
AcDbLine
 10
0.000000000
 20
-0.000000000
 30
0.000000000
 11
0.337795104
 21
0.368638668
 31
0.000000000
  0
ARC
  5
B1C
330
A02
100
AcDbEntity
  8
Array
100
AcDbCircle
 10
-0.219607930
 20
-0.239662508
 30
0.000000000
 40
25.664786444
100
AcDbArc
 50
-133.542245904
 51
-131.457821686
  0
LINE
  5
B1D
330
A02
100
AcDbEntity
  8
Array
100
AcDbLine
 10
-25.387343333
 20
-28.796778517
 30
0.000000000
 11
-17.211455226
 21
-19.473964904
 31
0.000000000
  0
ARC
  5
B1E
330
A02
100
AcDbEntity
  8
Array
100
AcDbCircle
 10
-0.219607930
 20
-0.239662508
 30
0.000000000
 40
38.064731447
100
AcDbArc
 50
-133.609923926
 51
-131.390121645
  0
LINE
  5
B1F
330
A02
100
AcDbEntity
  8
Array
100
AcDbLine
 10
-17.899802873
 20
-18.843209749
 30
0.000000000
 11
-26.474564740
 21
-27.800522853
 31
0.000000000
  0
LINE
  5
B20
330
A02
100
AcDbEntity
  8
Array
100
AcDbLine
 10
0.000000000
 20
-0.000000000
 30
0.000000000
 11
0.321393805
 21
0.383022222
 31
0.000000000
  0
ARC
  5
B21
330
A02
100
AcDbEntity
  8
Array
100
AcDbCircle
 10
-0.208944980
 20
-0.249013565
 30
0.000000000
 40
25.664786444
100
AcDbArc
 50
-131.042245904
 51
-128.957821686
  0
LINE
  5
B22
330
A02
100
AcDbEntity
  8
Array
100
AcDbLine
 10
-24.107082370
 20
-29.876750728
 30
0.000000000
 11
-16.345631315
 21
-20.206183138
 31
0.000000000
  0
ARC
  5
B23
330
A02
100
AcDbEntity
  8
Array
100
AcDbCircle
 10
-0.208944980
 20
-0.249013565
 30
0.000000000
 40
38.064731447
100
AcDbArc
 50
-131.109923926
 51
-128.890121645
  0
LINE
  5
B24
330
A02
100
AcDbEntity
  8
Array
100
AcDbLine
 10
-17.060836962
 20
-19.606053624
 30
0.000000000
 11
-25.236725046
 21
-28.928867210
 31
0.000000000
  0
LINE
  5
B25
330
A02
100
AcDbEntity
  8
Array
100
AcDbLine
 10
0.000000000
 20
-0.000000000
 30
0.000000000
 11
0.304380715
 21
0.396676670
 31
0.000000000
  0
ARC
  5
B26
330
A02
100
AcDbEntity
  8
Array
100
AcDbCircle
 10
-0.197884292
 20
-0.257890612
 30
0.000000000
 40
25.664786444
100
AcDbArc
 50
-128.542245904
 51
-126.457821686
  0
LINE
  5
B27
330
A02
100
AcDbEntity
  8
Array
100
AcDbLine
 10
-22.780932207
 20
-30.899850846
 30
0.000000000
 11
-15.448692567
 21
-20.899937753
 31
0.000000000
  0
ARC
  5
B28
330
A02
100
AcDbEntity
  8
Array
100
AcDbCircle
 10
-0.197884292
 20
-0.257890612
 30
0.000000000
 40
38.064731447
100
AcDbArc
 50
-128.609923926
 51
-126.390121645
  0
LINE
  5
B29
330
A02
100
AcDbEntity
  8
Array
100
AcDbLine
 10
-16.189394778
 20
-20.331576262
 30
0.000000000
 11
-23.950845811
 21
-30.002143824
 31
0.000000000
  0
LINE
  5
B2A
330
A02
100
AcDbEntity
  8
Array
100
AcDbLine
 10
0.000000000
 20
-0.000000000
 30
0.000000000
 11
0.286788218
 21
0.409576022
 31
0.000000000
  0
ARC
  5
B2B
330
A02
100
AcDbEntity
  8
Array
100
AcDbCircle
 10
-0.186446919
 20
-0.266276749
 30
0.000000000
 40
25.664786444
100
AcDbArc
 50
-126.042245904
 51
-123.957821686
  0
LINE
  5
B2C
330
A02
100
AcDbEntity
  8
Array
100
AcDbLine
 10
-21.411417243
 20
-31.864131341
 30
0.000000000
 11
-14.522346354
 21
-21.553908148
 31
0.000000000
  0
ARC
  5
B2D
330
A02
100
AcDbEntity
  8
Array
100
AcDbCircle
 10
-0.186446919
 20
-0.266276749
 30
0.000000000
 40
38.064731447
100
AcDbArc
 50
-126.109923926
 51
-123.890121645
  0
LINE
  5
B2E
330
A02
100
AcDbEntity
  8
Array
100
AcDbLine
 10
-15.287135160
 20
-21.018396588
 30
0.000000000
 11
-22.619374779
 21
-31.018309653
 31
0.000000000
  0
LINE
  5
B2F
330
A02
100
AcDbEntity
  8
Array
100
AcDbLine
 10
0.000000000
 20
-0.000000000
 30
0.000000000
 11
0.268649804
 21
0.421695723
 31
0.000000000
  0
ARC
  5
B30
330
A02
100
AcDbEntity
  8
Array
100
AcDbCircle
 10
-0.174654634
 20
-0.274156012
 30
0.000000000
 40
25.664786444
100
AcDbArc
 50
-123.542245904
 51
-121.457821686
  0
LINE
  5
B31
330
A02
100
AcDbEntity
  8
Array
100
AcDbLine
 10
-20.001144430
 20
-32.767756651
 30
0.000000000
 11
-13.568356029
 21
-22.166849455
 31
0.000000000
  0
ARC
  5
B32
330
A02
100
AcDbEntity
  8
Array
100
AcDbCircle
 10
-0.174654634
 20
-0.274156012
 30
0.000000000
 40
38.064731447
100
AcDbArc
 50
-123.609923926
 51
-121.390121645
  0
LINE
  5
B33
330
A02
100
AcDbEntity
  8
Array
100
AcDbLine
 10
-14.355775613
 20
-21.665207202
 30
0.000000000
 11
-21.244846482
 21
-31.975430365
 31
0.000000000
  0
LINE
  5
B34
330
A02
100
AcDbEntity
  8
Array
100
AcDbLine
 10
0.000000000
 20
-0.000000000
 30
0.000000000
 11
0.250000000
 21
0.433012702
 31
0.000000000
  0
ARC
  5
B35
330
A02
100
AcDbEntity
  8
Array
100
AcDbCircle
 10
-0.162529884
 20
-0.281513405
 30
0.000000000
 40
25.664786444
100
AcDbArc
 50
-121.042245904
 51
-118.957821686
  0
LINE
  5
B36
330
A02
100
AcDbEntity
  8
Array
100
AcDbLine
 10
-18.552798302
 20
-33.609006674
 30
0.000000000
 11
-12.588537568
 21
-22.737594903
 31
0.000000000
  0
ARC
  5
B37
330
A02
100
AcDbEntity
  8
Array
100
AcDbCircle
 10
-0.162529884
 20
-0.281513405
 30
0.000000000
 40
38.064731447
100
AcDbArc
 50
-121.109923926
 51
-118.890121645
  0
LINE
  5
B38
330
A02
100
AcDbEntity
  8
Array
100
AcDbLine
 10
-13.397089030
 20
-22.270776863
 30
0.000000000
 11
-19.829877413
 21
-32.871684029
 31
0.000000000
  0
LINE
  5
B39
330
A02
100
AcDbEntity
  8
Array
100
AcDbLine
 10
0.000000000
 20
-0.000000000
 30
0.000000000
 11
0.230874307
 21
0.443505417
 31
0.000000000
  0
ARC
  5
B3A
330
A02
100
AcDbEntity
  8
Array
100
AcDbCircle
 10
-0.150095750
 20
-0.288334920
 30
0.000000000
 40
25.664786444
100
AcDbArc
 50
-118.542245904
 51
-116.457821686
  0
LINE
  5
B3B
330
A02
100
AcDbEntity
  8
Array
100
AcDbLine
 10
-17.069135868
 20
-34.386280043
 30
0.000000000
 11
-11.584756110
 21
-23.265058048
 31
0.000000000
  0
ARC
  5
B3C
330
A02
100
AcDbEntity
  8
Array
100
AcDbCircle
 10
-0.150095750
 20
-0.288334920
 30
0.000000000
 40
38.064731447
100
AcDbArc
 50
-118.609923926
 51
-116.390121645
  0
LINE
  5
B3D
330
A02
100
AcDbEntity
  8
Array
100
AcDbLine
 10
-12.412900327
 20
-22.833952834
 30
0.000000000
 11
-18.377161044
 21
-33.705364574
 31
0.000000000
  0
LINE
  5
B3E
330
A02
100
AcDbEntity
  8
Array
100
AcDbLine
 10
0.000000000
 20
-0.000000000
 30
0.000000000
 11
0.211309131
 21
0.453153894
 31
0.000000000
  0
ARC
  5
B3F
330
A02
100
AcDbEntity
  8
Array
100
AcDbCircle
 10
-0.137375899
 20
-0.294607574
 30
0.000000000
 40
25.664786444
100
AcDbArc
 50
-116.042245904
 51
-113.957821686
  0
LINE
  5
B40
330
A02
100
AcDbEntity
  8
Array
100
AcDbLine
 10
-15.552981364
 20
-35.098097173
 30
0.000000000
 11
-10.558922410
 21
-23.748234832
 31
0.000000000
  0
ARC
  5
B41
330
A02
100
AcDbEntity
  8
Array
100
AcDbCircle
 10
-0.137375899
 20
-0.294607574
 30
0.000000000
 40
38.064731447
100
AcDbArc
 50
-116.109923926
 51
-113.890121645
  0
LINE
  5
B42
330
A02
100
AcDbEntity
  8
Array
100
AcDbLine
 10
-11.405082962
 20
-23.353663079
 30
0.000000000
 11
-16.889462705
 21
-34.474885042
 31
0.000000000
  0
LINE
  5
B43
330
A02
100
AcDbEntity
  8
Array
100
AcDbLine
 10
0.000000000
 20
-0.000000000
 30
0.000000000
 11
0.191341716
 21
0.461939766
 31
0.000000000
  0
ARC
  5
B44
330
A02
100
AcDbEntity
  8
Array
100
AcDbCircle
 10
-0.124394546
 20
-0.300319426
 30
0.000000000
 40
25.664786444
100
AcDbArc
 50
-113.542245904
 51
-111.457821686
  0
LINE
  5
B45
330
A02
100
AcDbEntity
  8
Array
100
AcDbLine
 10
-14.007220876
 20
-35.743103081
 30
0.000000000
 11
-9.512989201
 21
-24.186205501
 31
0.000000000
  0
ARC
  5
B46
330
A02
100
AcDbEntity
  8
Array
100
AcDbCircle
 10
-0.124394546
 20
-0.300319426
 30
0.000000000
 40
38.064731447
100
AcDbArc
 50
-113.609923926
 51
-111.390121645
  0
LINE
  5
B47
330
A02
100
AcDbEntity
  8
Array
100
AcDbLine
 10
-10.375555374
 20
-23.828918298
 30
0.000000000
 11
-15.369614314
 21
-35.178780606
 31
0.000000000
  0
LINE
  5
B48
330
A02
100
AcDbEntity
  8
Array
100
AcDbLine
 10
0.000000000
 20
-0.000000000
 30
0.000000000
 11
0.171010072
 21
0.469846310
 31
0.000000000
  0
ARC
  5
B49
330
A02
100
AcDbEntity
  8
Array
100
AcDbCircle
 10
-0.111176401
 20
-0.305459602
 30
0.000000000
 40
25.664786444
100
AcDbArc
 50
-111.042245904
 51
-108.957821686
  0
LINE
  5
B4A
330
A02
100
AcDbEntity
  8
Array
100
AcDbLine
 10
-12.434796846
 20
-36.320069960
 30
0.000000000
 11
-8.448947476
 21
-24.578136354
 31
0.000000000
  0
ARC
  5
B4B
330
A02
100
AcDbEntity
  8
Array
100
AcDbCircle
 10
-0.111176401
 20
-0.305459602
 30
0.000000000
 40
38.064731447
100
AcDbArc
 50
-111.109923926
 51
-108.890121645
  0
LINE
  5
B4C
330
A02
100
AcDbEntity
  8
Array
100
AcDbLine
 10
-9.326277327
 20
-24.258813817
 30
0.000000000
 11
-13.820508989
 21
-35.815711362
 31
0.000000000
  0
LINE
  5
B4D
330
A02
100
AcDbEntity
  8
Array
100
AcDbLine
 10
0.000000000
 20
-0.000000000
 30
0.000000000
 11
0.150352900
 21
0.476858475
 31
0.000000000
  0
ARC
  5
B4E
330
A02
100
AcDbEntity
  8
Array
100
AcDbCircle
 10
-0.097746625
 20
-0.310018319
 30
0.000000000
 40
25.664786444
100
AcDbArc
 50
-108.542245904
 51
-106.457821686
  0
LINE
  5
B4F
330
A02
100
AcDbEntity
  8
Array
100
AcDbLine
 10
-10.838702474
 20
-36.827899521
 30
0.000000000
 11
-7.368822700
 21
-24.923281327
 31
0.000000000
  0
ARC
  5
B50
330
A02
100
AcDbEntity
  8
Array
100
AcDbCircle
 10
-0.097746625
 20
-0.310018319
 30
0.000000000
 40
38.064731447
100
AcDbArc
 50
-108.609923926
 51
-106.390121645
  0
LINE
  5
B51
330
A02
100
AcDbEntity
  8
Array
100
AcDbLine
 10
-8.259246180
 20
-24.642531304
 30
0.000000000
 11
-12.245095539
 21
-36.384464877
 31
0.000000000
  0
LINE
  5
B52
330
A02
100
AcDbEntity
  8
Array
100
AcDbLine
 10
0.000000000
 20
-0.000000000
 30
0.000000000
 11
0.129409523
 21
0.482962913
 31
0.000000000
  0
ARC
  5
B53
330
A02
100
AcDbEntity
  8
Array
100
AcDbCircle
 10
-0.084130782
 20
-0.313986898
 30
0.000000000
 40
25.664786444
100
AcDbArc
 50
-106.042245904
 51
-103.957821686
  0
LINE
  5
B54
330
A02
100
AcDbEntity
  8
Array
100
AcDbLine
 10
-9.221976016
 20
-37.265625083
 30
0.000000000
 11
-6.274670951
 21
-25.220983417
 31
0.000000000
  0
ARC
  5
B55
330
A02
100
AcDbEntity
  8
Array
100
AcDbCircle
 10
-0.084130782
 20
-0.313986898
 30
0.000000000
 40
38.064731447
100
AcDbArc
 50
-106.109923926
 51
-103.890121645
  0
LINE
  5
B56
330
A02
100
AcDbEntity
  8
Array
100
AcDbLine
 10
-7.176493090
 20
-24.979340334
 30
0.000000000
 11
-10.646372854
 21
-36.883958494
 31
0.000000000
  0
LINE
  5
B57
330
A02
100
AcDbEntity
  8
Array
100
AcDbLine
 10
0.000000000
 20
-0.000000000
 30
0.000000000
 11
0.108219807
 21
0.488148004
 31
0.000000000
  0
ARC
  5
B58
330
A02
100
AcDbEntity
  8
Array
100
AcDbCircle
 10
-0.070354792
 20
-0.317357785
 30
0.000000000
 40
25.664786444
100
AcDbArc
 50
-103.542245904
 51
-101.457821686
  0
LINE
  5
B59
330
A02
100
AcDbEntity
  8
Array
100
AcDbLine
 10
-7.587695002
 20
-37.632413410
 30
0.000000000
 11
-5.168575009
 21
-25.470675932
 31
0.000000000
  0
ARC
  5
B5A
330
A02
100
AcDbEntity
  8
Array
100
AcDbCircle
 10
-0.070354792
 20
-0.317357785
 30
0.000000000
 40
38.064731447
100
AcDbArc
 50
-103.609923926
 51
-101.390121645
  0
LINE
  5
B5B
330
A02
100
AcDbEntity
  8
Array
100
AcDbLine
 10
-6.080079136
 20
-25.268599768
 30
0.000000000
 11
-9.027384193
 21
-37.313241400
 31
0.000000000
  0
LINE
  5
B5C
330
A02
100
AcDbEntity
  8
Array
100
AcDbLine
 10
0.000000000
 20
-0.000000000
 30
0.000000000
 11
0.086824089
 21
0.492403877
 31
0.000000000
  0
ARC
  5
B5D
330
A02
100
AcDbEntity
  8
Array
100
AcDbCircle
 10
-0.056444878
 20
-0.320124564
 30
0.000000000
 40
25.664786444
100
AcDbArc
 50
-101.042245904
 51
-98.957821686
  0
LINE
  5
B5E
330
A02
100
AcDbEntity
  8
Array
100
AcDbLine
 10
-5.938970380
 20
-37.927566298
 30
0.000000000
 11
-4.052640391
 21
-25.671883568
 31
0.000000000
  0
ARC
  5
B5F
330
A02
100
AcDbEntity
  8
Array
100
AcDbCircle
 10
-0.056444878
 20
-0.320124564
 30
0.000000000
 40
38.064731447
100
AcDbArc
 50
-101.109923926
 51
-98.890121645
  0
LINE
  5
B60
330
A02
100
AcDbEntity
  8
Array
100
AcDbLine
 10
-4.972091407
 20
-25.509758988
 30
0.000000000
 11
-7.391211393
 21
-37.671496430
 31
0.000000000
  0
LINE
  5
B61
330
A02
100
AcDbEntity
  8
Array
100
AcDbLine
 10
0.000000000
 20
-0.000000000
 30
0.000000000
 11
0.065263096
 21
0.495722431
 31
0.000000000
  0
ARC
  5
B62
330
A02
100
AcDbEntity
  8
Array
100
AcDbCircle
 10
-0.042427518
 20
-0.322281967
 30
0.000000000
 40
25.664786444
100
AcDbArc
 50
-98.542245904
 51
-96.457821686
  0
LINE
  5
B63
330
A02
100
AcDbEntity
  8
Array
100
AcDbLine
 10
-4.278940590
 20
-38.150521909
 30
0.000000000
 11
-2.928991342
 21
-25.824223315
 31
0.000000000
  0
ARC
  5
B64
330
A02
100
AcDbEntity
  8
Array
100
AcDbCircle
 10
-0.042427518
 20
-0.322281967
 30
0.000000000
 40
38.064731447
100
AcDbArc
 50
-98.609923926
 51
-96.390121645
  0
LINE
  5
B65
330
A02
100
AcDbEntity
  8
Array
100
AcDbLine
 10
-3.854639018
 20
-25.702358931
 30
0.000000000
 11
-5.740969002
 21
-37.958041625
 31
0.000000000
  0
LINE
  5
B66
330
A02
100
AcDbEntity
  8
Array
100
AcDbLine
 10
0.000000000
 20
-0.000000000
 30
0.000000000
 11
0.043577871
 21
0.498097349
 31
0.000000000
  0
ARC
  5
B67
330
A02
100
AcDbEntity
  8
Array
100
AcDbCircle
 10
-0.028329394
 20
-0.323825888
 30
0.000000000
 40
25.664786444
100
AcDbArc
 50
-96.042245904
 51
-93.957821686
  0
LINE
  5
B68
330
A02
100
AcDbEntity
  8
Array
100
AcDbLine
 10
-2.610765593
 20
-38.300855832
 30
0.000000000
 11
-1.799766791
 21
-25.927405184
 31
0.000000000
  0
ARC
  5
B69
330
A02
100
AcDbEntity
  8
Array
100
AcDbCircle
 10
-0.028329394
 20
-0.323825888
 30
0.000000000
 40
38.064731447
100
AcDbArc
 50
-96.109923926
 51
-93.890121645
  0
LINE
  5
B6A
330
A02
100
AcDbEntity
  8
Array
100
AcDbLine
 10
-2.729849106
 20
-25.846032973
 30
0.000000000
 11
-4.079798350
 21
-38.172331531
 31
0.000000000
  0
LINE
  5
B6B
330
A02
100
AcDbEntity
  8
Array
100
AcDbLine
 10
0.000000000
 20
-0.000000000
 30
0.000000000
 11
0.021809694
 21
0.499524111
 31
0.000000000
  0
ARC
  5
B6C
330
A02
100
AcDbEntity
  8
Array
100
AcDbCircle
 10
-0.014177344
 20
-0.324753389
 30
0.000000000
 40
25.664786444
100
AcDbArc
 50
-93.542245904
 51
-91.457821686
  0
LINE
  5
B6D
330
A02
100
AcDbEntity
  8
Array
100
AcDbLine
 10
-0.937620856
 20
-38.378281900
 30
0.000000000
 11
-0.667116282
 21
-25.981232764
 31
0.000000000
  0
ARC
  5
B6E
330
A02
100
AcDbEntity
  8
Array
100
AcDbCircle
 10
-0.014177344
 20
-0.324753389
 30
0.000000000
 40
38.064731447
100
AcDbArc
 50
-93.609923926
 51
-91.390121645
  0
LINE
  5
B6F
330
A02
100
AcDbEntity
  8
Array
100
AcDbLine
 10
-1.599862770
 20
-25.940507622
 30
0.000000000
 11
-2.410861570
 21
-38.313958234
 31
0.000000000
  0
LINE
  5
B70
330
A02
100
AcDbEntity
  8
Array
100
AcDbLine
 10
0.000000000
 20
-0.000000000
 30
0.000000000
 11
0.000000000
 21
0.500000000
 31
0.000000000
  0
ARC
  5
B71
330
A02
100
AcDbEntity
  8
Array
100
AcDbCircle
 10
0.000001694
 20
-0.325062702
 30
0.000000000
 40
25.664786444
100
AcDbArc
 50
-91.042245904
 51
-88.957821686
  0
LINE
  5
B72
330
A02
100
AcDbEntity
  8
Array
100
AcDbLine
 10
0.737308696
 20
-38.382652727
 30
0.000000000
 11
0.466804122
 21
-25.985603591
 31
0.000000000
  0
ARC
  5
B73
330
A02
100
AcDbEntity
  8
Array
100
AcDbCircle
 10
0.000001694
 20
-0.325062702
 30
0.000000000
 40
38.064731447
100
AcDbArc
 50
-91.109923926
 51
-88.890121645
  0
LINE
  5
B74
330
A02
100
AcDbEntity
  8
Array
100
AcDbLine
 10
-0.466831005
 20
-25.985603040
 30
0.000000000
 11
-0.737335579
 21
-38.382652141
 31
0.000000000
  0
LINE
  5
B75
330
A02
100
AcDbEntity
  8
Array
100
AcDbLine
 10
0.000000000
 20
0.000000000
 30
0.000000000
 11
-0.021809694
 21
0.499524111
 31
0.000000000
  0
ARC
  5
B76
330
A02
100
AcDbEntity
  8
Array
100
AcDbCircle
 10
0.014180728
 20
-0.324753241
 30
0.000000000
 40
25.664786444
100
AcDbArc
 50
-88.542245904
 51
-86.457821686
  0
LINE
  5
B77
330
A02
100
AcDbEntity
  8
Array
100
AcDbLine
 10
2.410834739
 20
-38.313959993
 30
0.000000000
 11
1.599835936
 21
-25.940509345
 31
0.000000000
  0
ARC
  5
B78
330
A02
100
AcDbEntity
  8
Array
100
AcDbCircle
 10
0.014180728
 20
-0.324753241
 30
0.000000000
 40
38.064731447
100
AcDbArc
 50
-88.609923926
 51
-86.390121645
  0
LINE
  5
B79
330
A02
100
AcDbEntity
  8
Array
100
AcDbLine
 10
0.667089400
 20
-25.981233387
 30
0.000000000
 11
0.937593973
 21
-38.378282487
 31
0.000000000
  0
LINE
  5
B7A
330
A02
100
AcDbEntity
  8
Array
100
AcDbLine
 10
0.000000000
 20
0.000000000
 30
0.000000000
 11
-0.043577871
 21
0.498097349
 31
0.000000000
  0
ARC
  5
B7B
330
A02
100
AcDbEntity
  8
Array
100
AcDbCircle
 10
0.028332768
 20
-0.323825593
 30
0.000000000
 40
25.664786444
100
AcDbArc
 50
-86.042245904
 51
-83.957821686
  0
LINE
  5
B7C
330
A02
100
AcDbEntity
  8
Array
100
AcDbLine
 10
4.079771621
 20
-38.172334458
 30
0.000000000
 11
2.729822373
 21
-25.846035864
 31
0.000000000
  0
ARC
  5
B7D
330
A02
100
AcDbEntity
  8
Array
100
AcDbCircle
 10
0.028332768
 20
-0.323825593
 30
0.000000000
 40
38.064731447
100
AcDbArc
 50
-86.109923926
 51
-83.890121645
  0
LINE
  5
B7E
330
A02
100
AcDbEntity
  8
Array
100
AcDbLine
 10
1.799739962
 20
-25.927406979
 30
0.000000000
 11
2.610738762
 21
-38.300857591
 31
0.000000000
  0
LINE
  5
B7F
330
A02
100
AcDbEntity
  8
Array
100
AcDbLine
 10
0.000000000
 20
0.000000000
 30
0.000000000
 11
-0.065263096
 21
0.495722431
 31
0.000000000
  0
ARC
  5
B80
330
A02
100
AcDbEntity
  8
Array
100
AcDbCircle
 10
0.042430876
 20
-0.322281525
 30
0.000000000
 40
25.664786444
100
AcDbArc
 50
-83.542245904
 51
-81.457821686
  0
LINE
  5
B81
330
A02
100
AcDbEntity
  8
Array
100
AcDbLine
 10
5.740942426
 20
-37.958045716
 30
0.000000000
 11
3.854612437
 21
-25.702362986
 31
0.000000000
  0
ARC
  5
B82
330
A02
100
AcDbEntity
  8
Array
100
AcDbCircle
 10
0.042430876
 20
-0.322281525
 30
0.000000000
 40
38.064731447
100
AcDbArc
 50
-83.609923926
 51
-81.390121645
  0
LINE
  5
B83
330
A02
100
AcDbEntity
  8
Array
100
AcDbLine
 10
2.928964616
 20
-25.824226278
 30
0.000000000
 11
4.278913861
 21
-38.150524836
 31
0.000000000
  0
LINE
  5
B84
330
A02
100
AcDbEntity
  8
Array
100
AcDbLine
 10
0.000000000
 20
0.000000000
 30
0.000000000
 11
-0.086824089
 21
0.492403877
 31
0.000000000
  0
ARC
  5
B85
330
A02
100
AcDbEntity
  8
Array
100
AcDbCircle
 10
0.056448214
 20
-0.320123975
 30
0.000000000
 40
25.664786444
100
AcDbArc
 50
-81.042245904
 51
-78.957821686
  0
LINE
  5
B86
330
A02
100
AcDbEntity
  8
Array
100
AcDbLine
 10
7.391185020
 20
-37.671501675
 30
0.000000000
 11
4.972065027
 21
-25.509764198
 31
0.000000000
  0
ARC
  5
B87
330
A02
100
AcDbEntity
  8
Array
100
AcDbCircle
 10
0.056448214
 20
-0.320123975
 30
0.000000000
 40
38.064731447
100
AcDbArc
 50
-81.109923926
 51
-78.890121645
  0
LINE
  5
B88
330
A02
100
AcDbEntity
  8
Array
100
AcDbLine
 10
4.052613820
 20
-25.671887694
 30
0.000000000
 11
5.938943804
 21
-37.927570389
 31
0.000000000
  0
LINE
  5
B89
330
A02
100
AcDbEntity
  8
Array
100
AcDbLine
 10
0.000000000
 20
0.000000000
 30
0.000000000
 11
-0.108219807
 21
0.488148004
 31
0.000000000
  0
ARC
  5
B8A
330
A02
100
AcDbEntity
  8
Array
100
AcDbCircle
 10
0.070358099
 20
-0.317357052
 30
0.000000000
 40
25.664786444
100
AcDbArc
 50
-78.542245904
 51
-76.457821686
  0
LINE
  5
B8B
330
A02
100
AcDbEntity
  8
Array
100
AcDbLine
 10
9.027358074
 20
-37.313247791
 30
0.000000000
 11
6.080053009
 21
-25.268606125
 31
0.000000000
  0
ARC
  5
B8C
330
A02
100
AcDbEntity
  8
Array
100
AcDbCircle
 10
0.070358099
 20
-0.317357052
 30
0.000000000
 40
38.064731447
100
AcDbArc
 50
-78.609923926
 51
-76.390121645
  0
LINE
  5
B8D
330
A02
100
AcDbEntity
  8
Array
100
AcDbLine
 10
5.168548644
 20
-25.470681213
 30
0.000000000
 11
7.587668630
 21
-37.632418656
 31
0.000000000
  0
LINE
  5
B8E
330
A02
100
AcDbEntity
  8
Array
100
AcDbLine
 10
0.000000000
 20
0.000000000
 30
0.000000000
 11
-0.129409523
 21
0.482962913
 31
0.000000000
  0
ARC
  5
B8F
330
A02
100
AcDbEntity
  8
Array
100
AcDbCircle
 10
0.084134054
 20
-0.313986021
 30
0.000000000
 40
25.664786444
100
AcDbArc
 50
-76.042245904
 51
-73.957821686
  0
LINE
  5
B90
330
A02
100
AcDbEntity
  8
Array
100
AcDbLine
 10
10.646347039
 20
-36.883966018
 30
0.000000000
 11
7.176467265
 21
-24.979347823
 31
0.000000000
  0
ARC
  5
B91
330
A02
100
AcDbEntity
  8
Array
100
AcDbCircle
 10
0.084134054
 20
-0.313986021
 30
0.000000000
 40
38.064731447
100
AcDbArc
 50
-76.109923926
 51
-73.890121645
  0
LINE
  5
B92
330
A02
100
AcDbEntity
  8
Array
100
AcDbLine
 10
6.274644841
 20
-25.220989843
 30
0.000000000
 11
9.221949897
 21
-37.265631474
 31
0.000000000
  0
LINE
  5
B93
330
A02
100
AcDbEntity
  8
Array
100
AcDbLine
 10
0.000000000
 20
0.000000000
 30
0.000000000
 11
-0.150352900
 21
0.476858475
 31
0.000000000
  0
ARC
  5
B94
330
A02
100
AcDbEntity
  8
Array
100
AcDbCircle
 10
0.097749855
 20
-0.310017300
 30
0.000000000
 40
25.664786444
100
AcDbArc
 50
-73.542245904
 51
-71.457821686
  0
LINE
  5
B95
330
A02
100
AcDbEntity
  8
Array
100
AcDbLine
 10
12.245070077
 20
-36.384473520
 30
0.000000000
 11
8.259220707
 21
-24.642539914
 31
0.000000000
  0
ARC
  5
B96
330
A02
100
AcDbEntity
  8
Array
100
AcDbCircle
 10
0.097749855
 20
-0.310017300
 30
0.000000000
 40
38.064731447
100
AcDbArc
 50
-73.609923926
 51
-71.390121645
  0
LINE
  5
B97
330
A02
100
AcDbEntity
  8
Array
100
AcDbLine
 10
7.368796895
 20
-24.923288886
 30
0.000000000
 11
10.838676659
 21
-36.827907046
 31
0.000000000
  0
LINE
  5
B98
330
A02
100
AcDbEntity
  8
Array
100
AcDbLine
 10
0.000000000
 20
0.000000000
 30
0.000000000
 11
-0.171010072
 21
0.469846310
 31
0.000000000
  0
ARC
  5
B99
330
A02
100
AcDbEntity
  8
Array
100
AcDbCircle
 10
0.111179584
 20
-0.305458443
 30
0.000000000
 40
25.664786444
100
AcDbArc
 50
-71.042245904
 51
-68.957821686
  0
LINE
  5
B9A
330
A02
100
AcDbEntity
  8
Array
100
AcDbLine
 10
13.820483928
 20
-35.815721108
 30
0.000000000
 11
9.326252253
 21
-24.258823529
 31
0.000000000
  0
ARC
  5
B9B
330
A02
100
AcDbEntity
  8
Array
100
AcDbCircle
 10
0.111179584
 20
-0.305458443
 30
0.000000000
 40
38.064731447
100
AcDbArc
 50
-71.109923926
 51
-68.890121645
  0
LINE
  5
B9C
330
A02
100
AcDbEntity
  8
Array
100
AcDbLine
 10
8.448922026
 20
-24.578145031
 30
0.000000000
 11
12.434771384
 21
-36.320078603
 31
0.000000000
  0
LINE
  5
B9D
330
A02
100
AcDbEntity
  8
Array
100
AcDbLine
 10
0.000000000
 20
0.000000000
 30
0.000000000
 11
-0.191341716
 21
0.461939766
 31
0.000000000
  0
ARC
  5
B9E
330
A02
100
AcDbEntity
  8
Array
100
AcDbCircle
 10
0.124397675
 20
-0.300318129
 30
0.000000000
 40
25.664786444
100
AcDbArc
 50
-68.542245904
 51
-66.457821686
  0
LINE
  5
B9F
330
A02
100
AcDbEntity
  8
Array
100
AcDbLine
 10
15.369589702
 20
-35.178791436
 30
0.000000000
 11
10.375530748
 21
-23.828929094
 31
0.000000000
  0
ARC
  5
BA0
330
A02
100
AcDbEntity
  8
Array
100
AcDbCircle
 10
0.124397675
 20
-0.300318129
 30
0.000000000
 40
38.064731447
100
AcDbArc
 50
-68.609923926
 51
-66.390121645
  0
LINE
  5
BA1
330
A02
100
AcDbEntity
  8
Array
100
AcDbLine
 10
9.512964153
 20
-24.186215280
 30
0.000000000
 11
14.007195815
 21
-35.743112826
 31
0.000000000
  0
LINE
  5
BA2
330
A02
100
AcDbEntity
  8
Array
100
AcDbLine
 10
0.000000000
 20
0.000000000
 30
0.000000000
 11
-0.211309131
 21
0.453153894
 31
0.000000000
  0
ARC
  5
BA3
330
A02
100
AcDbEntity
  8
Array
100
AcDbCircle
 10
0.137378969
 20
-0.294606143
 30
0.000000000
 40
25.664786444
100
AcDbArc
 50
-66.042245904
 51
-63.957821686
  0
LINE
  5
BA4
330
A02
100
AcDbEntity
  8
Array
100
AcDbLine
 10
16.889438589
 20
-34.474896934
 30
0.000000000
 11
11.405058830
 21
-23.353674939
 31
0.000000000
  0
ARC
  5
BA5
330
A02
100
AcDbEntity
  8
Array
100
AcDbCircle
 10
0.137378969
 20
-0.294606143
 30
0.000000000
 40
38.064731447
100
AcDbArc
 50
-66.109923926
 51
-63.890121645
  0
LINE
  5
BA6
330
A02
100
AcDbEntity
  8
Array
100
AcDbLine
 10
10.558897812
 20
-23.748245694
 30
0.000000000
 11
15.552956752
 21
-35.098108003
 31
0.000000000
  0
LINE
  5
BA7
330
A02
100
AcDbEntity
  8
Array
100
AcDbLine
 10
0.000000000
 20
0.000000000
 30
0.000000000
 11
-0.230874307
 21
0.443505417
 31
0.000000000
  0
ARC
  5
BA8
330
A02
100
AcDbEntity
  8
Array
100
AcDbCircle
 10
0.150098754
 20
-0.288333356
 30
0.000000000
 40
25.664786444
100
AcDbArc
 50
-63.542245904
 51
-61.457821686
  0
LINE
  5
BA9
330
A02
100
AcDbEntity
  8
Array
100
AcDbLine
 10
18.377137470
 20
-33.705377507
 30
0.000000000
 11
12.412876735
 21
-22.833965736
 31
0.000000000
  0
ARC
  5
BAA
330
A02
100
AcDbEntity
  8
Array
100
AcDbCircle
 10
0.150098754
 20
-0.288333356
 30
0.000000000
 40
38.064731447
100
AcDbArc
 50
-63.609923926
 51
-61.390121645
  0
LINE
  5
BAB
330
A02
100
AcDbEntity
  8
Array
100
AcDbLine
 10
11.584732009
 20
-23.265069973
 30
0.000000000
 11
17.069111752
 21
-34.386291936
 31
0.000000000
  0
LINE
  5
BAC
330
A02
100
AcDbEntity
  8
Array
100
AcDbLine
 10
0.000000000
 20
0.000000000
 30
0.000000000
 11
-0.250000000
 21
0.433012702
 31
0.000000000
  0
ARC
  5
BAD
330
A02
100
AcDbEntity
  8
Array
100
AcDbCircle
 10
0.162532818
 20
-0.281511711
 30
0.000000000
 40
25.664786444
100
AcDbArc
 50
-61.042245904
 51
-58.957821686
  0
LINE
  5
BAE
330
A02
100
AcDbEntity
  8
Array
100
AcDbLine
 10
19.829854425
 20
-32.871697978
 30
0.000000000
 11
13.397066023
 21
-22.270790782
 31
0.000000000
  0
ARC
  5
BAF
330
A02
100
AcDbEntity
  8
Array
100
AcDbCircle
 10
0.162532818
 20
-0.281511711
 30
0.000000000
 40
38.064731447
100
AcDbArc
 50
-61.109923926
 51
-58.890121645
  0
LINE
  5
BB0
330
A02
100
AcDbEntity
  8
Array
100
AcDbLine
 10
12.588514011
 20
-22.737607868
 30
0.000000000
 11
18.552774728
 21
-33.609019608
 31
0.000000000
  0
LINE
  5
BB1
330
A02
100
AcDbEntity
  8
Array
100
AcDbLine
 10
0.000000000
 20
0.000000000
 30
0.000000000
 11
-0.268649804
 21
0.421695723
 31
0.000000000
  0
ARC
  5
BB2
330
A02
100
AcDbEntity
  8
Array
100
AcDbCircle
 10
0.174657491
 20
-0.274154192
 30
0.000000000
 40
25.664786444
100
AcDbArc
 50
-58.542245904
 51
-56.457821686
  0
LINE
  5
BB3
330
A02
100
AcDbEntity
  8
Array
100
AcDbLine
 10
21.244824125
 20
-31.975445304
 30
0.000000000
 11
14.355753235
 21
-21.665222111
 31
0.000000000
  0
ARC
  5
BB4
330
A02
100
AcDbEntity
  8
Array
100
AcDbCircle
 10
0.174657491
 20
-0.274154192
 30
0.000000000
 40
38.064731447
100
AcDbArc
 50
-58.609923926
 51
-56.390121645
  0
LINE
  5
BB5
330
A02
100
AcDbEntity
  8
Array
100
AcDbLine
 10
13.568333060
 20
-22.166863435
 30
0.000000000
 11
20.001121443
 21
-32.767770601
 31
0.000000000
  0
LINE
  5
BB6
330
A02
100
AcDbEntity
  8
Array
100
AcDbLine
 10
0.000000000
 20
0.000000000
 30
0.000000000
 11
-0.286788218
 21
0.409576022
 31
0.000000000
  0
ARC
  5
BB7
330
A02
100
AcDbEntity
  8
Array
100
AcDbCircle
 10
0.186449694
 20
-0.266274806
 30
0.000000000
 40
25.664786444
100
AcDbArc
 50
-56.042245904
 51
-53.957821686
  0
LINE
  5
BB8
330
A02
100
AcDbEntity
  8
Array
100
AcDbLine
 10
22.619353094
 20
-31.018325552
 30
0.000000000
 11
15.287113455
 21
-21.018412459
 31
0.000000000
  0
ARC
  5
BB9
330
A02
100
AcDbEntity
  8
Array
100
AcDbCircle
 10
0.186449694
 20
-0.266274806
 30
0.000000000
 40
38.064731447
100
AcDbArc
 50
-56.109923926
 51
-53.890121645
  0
LINE
  5
BBA
330
A02
100
AcDbEntity
  8
Array
100
AcDbLine
 10
14.522324016
 20
-21.553923117
 30
0.000000000
 11
21.411394886
 21
-31.864146280
 31
0.000000000
  0
LINE
  5
BBB
330
A02
100
AcDbEntity
  8
Array
100
AcDbLine
 10
0.000000000
 20
0.000000000
 30
0.000000000
 11
-0.304380715
 21
0.396676670
 31
0.000000000
  0
ARC
  5
BBC
330
A02
100
AcDbEntity
  8
Array
100
AcDbCircle
 10
0.197886979
 20
-0.257888550
 30
0.000000000
 40
25.664786444
100
AcDbArc
 50
-53.542245904
 51
-51.457821686
  0
LINE
  5
BBD
330
A02
100
AcDbEntity
  8
Array
100
AcDbLine
 10
23.950824840
 20
-30.002160655
 30
0.000000000
 11
16.189373785
 21
-20.331593064
 31
0.000000000
  0
ARC
  5
BBE
330
A02
100
AcDbEntity
  8
Array
100
AcDbCircle
 10
0.197886979
 20
-0.257888550
 30
0.000000000
 40
38.064731447
100
AcDbArc
 50
-53.609923926
 51
-51.390121645
  0
LINE
  5
BBF
330
A02
100
AcDbEntity
  8
Array
100
AcDbLine
 10
15.448670903
 20
-20.899953681
 30
0.000000000
 11
22.780910522
 21
-30.899866746
 31
0.000000000
  0
LINE
  5
BC0
330
A02
100
AcDbEntity
  8
Array
100
AcDbLine
 10
0.000000000
 20
0.000000000
 30
0.000000000
 11
-0.321393805
 21
0.383022222
 31
0.000000000
  0
ARC
  5
BC1
330
A02
100
AcDbEntity
  8
Array
100
AcDbCircle
 10
0.208947575
 20
-0.249011388
 30
0.000000000
 40
25.664786444
100
AcDbArc
 50
-51.042245904
 51
-48.957821686
  0
LINE
  5
BC2
330
A02
100
AcDbEntity
  8
Array
100
AcDbLine
 10
25.236704829
 20
-28.928884939
 30
0.000000000
 11
17.060816722
 21
-19.606071327
 31
0.000000000
  0
ARC
  5
BC3
330
A02
100
AcDbEntity
  8
Array
100
AcDbCircle
 10
0.208947575
 20
-0.249011388
 30
0.000000000
 40
38.064731447
100
AcDbArc
 50
-51.109923926
 51
-48.890121645
  0
LINE
  5
BC4
330
A02
100
AcDbEntity
  8
Array
100
AcDbLine
 10
16.345610367
 20
-20.206199996
 30
0.000000000
 11
24.107061400
 21
-29.876767559
 31
0.000000000
  0
LINE
  5
BC5
330
A02
100
AcDbEntity
  8
Array
100
AcDbLine
 10
0.000000000
 20
0.000000000
 30
0.000000000
 11
-0.337795104
 21
0.368638668
 31
0.000000000
  0
ARC
  5
BC6
330
A02
100
AcDbEntity
  8
Array
100
AcDbCircle
 10
0.219610427
 20
-0.239660219
 30
0.000000000
 40
25.664786444
100
AcDbArc
 50
-48.542245904
 51
-46.457821686
  0
LINE
  5
BC7
330
A02
100
AcDbEntity
  8
Array
100
AcDbLine
 10
26.474545316
 20
-27.800541447
 30
0.000000000
 11
17.899783425
 21
-18.843228318
 31
0.000000000
  0
ARC
  5
BC8
330
A02
100
AcDbEntity
  8
Array
100
AcDbCircle
 10
0.219610427
 20
-0.239660219
 30
0.000000000
 40
38.064731447
100
AcDbArc
 50
-48.609923926
 51
-46.390121645
  0
LINE
  5
BC9
330
A02
100
AcDbEntity
  8
Array
100
AcDbLine
 10
17.211435033
 20
-19.473982661
 30
0.000000000
 11
25.387323117
 21
-28.796796247
 31
0.000000000
  0
LINE
  5
BCA
330
A02
100
AcDbEntity
  8
Array
100
AcDbLine
 10
0.000000000
 20
0.000000000
 30
0.000000000
 11
-0.353553391
 21
0.353553391
 31
0.000000000
  0
ARC
  5
BCB
330
A02
100
AcDbEntity
  8
Array
100
AcDbCircle
 10
0.229855239
 20
-0.229852844
 30
0.000000000
 40
25.664786444
100
AcDbArc
 50
-46.042245904
 51
-43.957821686
  0
LINE
  5
BCC
330
A02
100
AcDbEntity
  8
Array
100
AcDbLine
 10
27.661990002
 20
-26.619278045
 30
0.000000000
 11
18.704676872
 21
-18.044516153
 31
0.000000000
  0
ARC
  5
BCD
330
A02
100
AcDbEntity
  8
Array
100
AcDbCircle
 10
0.229855239
 20
-0.229852844
 30
0.000000000
 40
38.064731447
100
AcDbArc
 50
-46.109923926
 51
-43.890121645
  0
LINE
  5
BCE
330
A02
100
AcDbEntity
  8
Array
100
AcDbLine
 10
18.044496754
 20
-18.704695492
 30
0.000000000
 11
26.619258621
 21
-27.662008596
 31
0.000000000
  0
LINE
  5
BCF
330
A02
100
AcDbEntity
  8
Array
100
AcDbLine
 10
0.000000000
 20
0.000000000
 30
0.000000000
 11
-0.368638668
 21
0.337795104
 31
0.000000000
  0
ARC
  5
BD0
330
A02
100
AcDbEntity
  8
Array
100
AcDbCircle
 10
0.239662508
 20
-0.219607930
 30
0.000000000
 40
25.664786444
100
AcDbArc
 50
-43.542245904
 51
-41.457821686
  0
LINE
  5
BD1
330
A02
100
AcDbEntity
  8
Array
100
AcDbLine
 10
28.796778517
 20
-25.387343333
 30
0.000000000
 11
19.473964904
 21
-17.211455226
 31
0.000000000
  0
ARC
  5
BD2
330
A02
100
AcDbEntity
  8
Array
100
AcDbCircle
 10
0.239662508
 20
-0.219607930
 30
0.000000000
 40
38.064731447
100
AcDbArc
 50
-43.609923926
 51
-41.390121645
  0
LINE
  5
BD3
330
A02
100
AcDbEntity
  8
Array
100
AcDbLine
 10
18.843209749
 20
-17.899802873
 30
0.000000000
 11
27.800522853
 21
-26.474564740
 31
0.000000000
  0
LINE
  5
BD4
330
A02
100
AcDbEntity
  8
Array
100
AcDbLine
 10
0.000000000
 20
0.000000000
 30
0.000000000
 11
-0.383022222
 21
0.321393805
 31
0.000000000
  0
ARC
  5
BD5
330
A02
100
AcDbEntity
  8
Array
100
AcDbCircle
 10
0.249013565
 20
-0.208944980
 30
0.000000000
 40
25.664786444
100
AcDbArc
 50
-41.042245904
 51
-38.957821686
  0
LINE
  5
BD6
330
A02
100
AcDbEntity
  8
Array
100
AcDbLine
 10
29.876750728
 20
-24.107082370
 30
0.000000000
 11
20.206183138
 21
-16.345631315
 31
0.000000000
  0
ARC
  5
BD7
330
A02
100
AcDbEntity
  8
Array
100
AcDbCircle
 10
0.249013565
 20
-0.208944980
 30
0.000000000
 40
38.064731447
100
AcDbArc
 50
-41.109923926
 51
-38.890121645
  0
LINE
  5
BD8
330
A02
100
AcDbEntity
  8
Array
100
AcDbLine
 10
19.606053624
 20
-17.060836962
 30
0.000000000
 11
28.928867210
 21
-25.236725046
 31
0.000000000
  0
LINE
  5
BD9
330
A02
100
AcDbEntity
  8
Array
100
AcDbLine
 10
0.000000000
 20
0.000000000
 30
0.000000000
 11
-0.396676670
 21
0.304380715
 31
0.000000000
  0
ARC
  5
BDA
330
A02
100
AcDbEntity
  8
Array
100
AcDbCircle
 10
0.257890612
 20
-0.197884292
 30
0.000000000
 40
25.664786444
100
AcDbArc
 50
-38.542245904
 51
-36.457821686
  0
LINE
  5
BDB
330
A02
100
AcDbEntity
  8
Array
100
AcDbLine
 10
30.899850846
 20
-22.780932207
 30
0.000000000
 11
20.899937753
 21
-15.448692567
 31
0.000000000
  0
ARC
  5
BDC
330
A02
100
AcDbEntity
  8
Array
100
AcDbCircle
 10
0.257890612
 20
-0.197884292
 30
0.000000000
 40
38.064731447
100
AcDbArc
 50
-38.609923926
 51
-36.390121645
  0
LINE
  5
BDD
330
A02
100
AcDbEntity
  8
Array
100
AcDbLine
 10
20.331576262
 20
-16.189394778
 30
0.000000000
 11
30.002143824
 21
-23.950845811
 31
0.000000000
  0
LINE
  5
BDE
330
A02
100
AcDbEntity
  8
Array
100
AcDbLine
 10
0.000000000
 20
0.000000000
 30
0.000000000
 11
-0.409576022
 21
0.286788218
 31
0.000000000
  0
ARC
  5
BDF
330
A02
100
AcDbEntity
  8
Array
100
AcDbCircle
 10
0.266276749
 20
-0.186446919
 30
0.000000000
 40
25.664786444
100
AcDbArc
 50
-36.042245904
 51
-33.957821686
  0
LINE
  5
BE0
330
A02
100
AcDbEntity
  8
Array
100
AcDbLine
 10
31.864131341
 20
-21.411417243
 30
0.000000000
 11
21.553908148
 21
-14.522346354
 31
0.000000000
  0
ARC
  5
BE1
330
A02
100
AcDbEntity
  8
Array
100
AcDbCircle
 10
0.266276749
 20
-0.186446919
 30
0.000000000
 40
38.064731447
100
AcDbArc
 50
-36.109923926
 51
-33.890121645
  0
LINE
  5
BE2
330
A02
100
AcDbEntity
  8
Array
100
AcDbLine
 10
21.018396588
 20
-15.287135160
 30
0.000000000
 11
31.018309653
 21
-22.619374779
 31
0.000000000
  0
LINE
  5
BE3
330
A02
100
AcDbEntity
  8
Array
100
AcDbLine
 10
0.000000000
 20
0.000000000
 30
0.000000000
 11
-0.421695723
 21
0.268649804
 31
0.000000000
  0
ARC
  5
BE4
330
A02
100
AcDbEntity
  8
Array
100
AcDbCircle
 10
0.274156012
 20
-0.174654634
 30
0.000000000
 40
25.664786444
100
AcDbArc
 50
-33.542245904
 51
-31.457821686
  0
LINE
  5
BE5
330
A02
100
AcDbEntity
  8
Array
100
AcDbLine
 10
32.767756651
 20
-20.001144430
 30
0.000000000
 11
22.166849455
 21
-13.568356029
 31
0.000000000
  0
ARC
  5
BE6
330
A02
100
AcDbEntity
  8
Array
100
AcDbCircle
 10
0.274156012
 20
-0.174654634
 30
0.000000000
 40
38.064731447
100
AcDbArc
 50
-33.609923926
 51
-31.390121645
  0
LINE
  5
BE7
330
A02
100
AcDbEntity
  8
Array
100
AcDbLine
 10
21.665207202
 20
-14.355775613
 30
0.000000000
 11
31.975430365
 21
-21.244846482
 31
0.000000000
  0
LINE
  5
BE8
330
A02
100
AcDbEntity
  8
Array
100
AcDbLine
 10
0.000000000
 20
0.000000000
 30
0.000000000
 11
-0.433012702
 21
0.250000000
 31
0.000000000
  0
ARC
  5
BE9
330
A02
100
AcDbEntity
  8
Array
100
AcDbCircle
 10
0.281513405
 20
-0.162529884
 30
0.000000000
 40
25.664786444
100
AcDbArc
 50
-31.042245904
 51
-28.957821686
  0
LINE
  5
BEA
330
A02
100
AcDbEntity
  8
Array
100
AcDbLine
 10
33.609006674
 20
-18.552798302
 30
0.000000000
 11
22.737594903
 21
-12.588537568
 31
0.000000000
  0
ARC
  5
BEB
330
A02
100
AcDbEntity
  8
Array
100
AcDbCircle
 10
0.281513405
 20
-0.162529884
 30
0.000000000
 40
38.064731447
100
AcDbArc
 50
-31.109923926
 51
-28.890121645
  0
LINE
  5
BEC
330
A02
100
AcDbEntity
  8
Array
100
AcDbLine
 10
22.270776863
 20
-13.397089030
 30
0.000000000
 11
32.871684029
 21
-19.829877413
 31
0.000000000
  0
LINE
  5
BED
330
A02
100
AcDbEntity
  8
Array
100
AcDbLine
 10
0.000000000
 20
0.000000000
 30
0.000000000
 11
-0.443505417
 21
0.230874307
 31
0.000000000
  0
ARC
  5
BEE
330
A02
100
AcDbEntity
  8
Array
100
AcDbCircle
 10
0.288334920
 20
-0.150095750
 30
0.000000000
 40
25.664786444
100
AcDbArc
 50
-28.542245904
 51
-26.457821686
  0
LINE
  5
BEF
330
A02
100
AcDbEntity
  8
Array
100
AcDbLine
 10
34.386280043
 20
-17.069135868
 30
0.000000000
 11
23.265058048
 21
-11.584756110
 31
0.000000000
  0
ARC
  5
BF0
330
A02
100
AcDbEntity
  8
Array
100
AcDbCircle
 10
0.288334920
 20
-0.150095750
 30
0.000000000
 40
38.064731447
100
AcDbArc
 50
-28.609923926
 51
-26.390121645
  0
LINE
  5
BF1
330
A02
100
AcDbEntity
  8
Array
100
AcDbLine
 10
22.833952834
 20
-12.412900327
 30
0.000000000
 11
33.705364574
 21
-18.377161044
 31
0.000000000
  0
LINE
  5
BF2
330
A02
100
AcDbEntity
  8
Array
100
AcDbLine
 10
0.000000000
 20
0.000000000
 30
0.000000000
 11
-0.453153894
 21
0.211309131
 31
0.000000000
  0
ARC
  5
BF3
330
A02
100
AcDbEntity
  8
Array
100
AcDbCircle
 10
0.294607574
 20
-0.137375899
 30
0.000000000
 40
25.664786444
100
AcDbArc
 50
-26.042245904
 51
-23.957821686
  0
LINE
  5
BF4
330
A02
100
AcDbEntity
  8
Array
100
AcDbLine
 10
35.098097173
 20
-15.552981364
 30
0.000000000
 11
23.748234832
 21
-10.558922410
 31
0.000000000
  0
ARC
  5
BF5
330
A02
100
AcDbEntity
  8
Array
100
AcDbCircle
 10
0.294607574
 20
-0.137375899
 30
0.000000000
 40
38.064731447
100
AcDbArc
 50
-26.109923926
 51
-23.890121645
  0
LINE
  5
BF6
330
A02
100
AcDbEntity
  8
Array
100
AcDbLine
 10
23.353663079
 20
-11.405082962
 30
0.000000000
 11
34.474885042
 21
-16.889462705
 31
0.000000000
  0
LINE
  5
BF7
330
A02
100
AcDbEntity
  8
Array
100
AcDbLine
 10
0.000000000
 20
0.000000000
 30
0.000000000
 11
-0.461939766
 21
0.191341716
 31
0.000000000
  0
ARC
  5
BF8
330
A02
100
AcDbEntity
  8
Array
100
AcDbCircle
 10
0.300319426
 20
-0.124394546
 30
0.000000000
 40
25.664786444
100
AcDbArc
 50
-23.542245904
 51
-21.457821686
  0
LINE
  5
BF9
330
A02
100
AcDbEntity
  8
Array
100
AcDbLine
 10
35.743103081
 20
-14.007220876
 30
0.000000000
 11
24.186205501
 21
-9.512989201
 31
0.000000000
  0
ARC
  5
BFA
330
A02
100
AcDbEntity
  8
Array
100
AcDbCircle
 10
0.300319426
 20
-0.124394546
 30
0.000000000
 40
38.064731447
100
AcDbArc
 50
-23.609923926
 51
-21.390121645
  0
LINE
  5
BFB
330
A02
100
AcDbEntity
  8
Array
100
AcDbLine
 10
23.828918298
 20
-10.375555374
 30
0.000000000
 11
35.178780606
 21
-15.369614314
 31
0.000000000
  0
LINE
  5
BFC
330
A02
100
AcDbEntity
  8
Array
100
AcDbLine
 10
0.000000000
 20
0.000000000
 30
0.000000000
 11
-0.469846310
 21
0.171010072
 31
0.000000000
  0
ARC
  5
BFD
330
A02
100
AcDbEntity
  8
Array
100
AcDbCircle
 10
0.305459602
 20
-0.111176401
 30
0.000000000
 40
25.664786444
100
AcDbArc
 50
-21.042245904
 51
-18.957821686
  0
LINE
  5
BFE
330
A02
100
AcDbEntity
  8
Array
100
AcDbLine
 10
36.320069960
 20
-12.434796846
 30
0.000000000
 11
24.578136354
 21
-8.448947476
 31
0.000000000
  0
ARC
  5
BFF
330
A02
100
AcDbEntity
  8
Array
100
AcDbCircle
 10
0.305459602
 20
-0.111176401
 30
0.000000000
 40
38.064731447
100
AcDbArc
 50
-21.109923926
 51
-18.890121645
  0
LINE
  5
C00
330
A02
100
AcDbEntity
  8
Array
100
AcDbLine
 10
24.258813817
 20
-9.326277327
 30
0.000000000
 11
35.815711362
 21
-13.820508989
 31
0.000000000
  0
LINE
  5
C01
330
A02
100
AcDbEntity
  8
Array
100
AcDbLine
 10
0.000000000
 20
0.000000000
 30
0.000000000
 11
-0.476858475
 21
0.150352900
 31
0.000000000
  0
ARC
  5
C02
330
A02
100
AcDbEntity
  8
Array
100
AcDbCircle
 10
0.310018319
 20
-0.097746625
 30
0.000000000
 40
25.664786444
100
AcDbArc
 50
-18.542245904
 51
-16.457821686
  0
LINE
  5
C03
330
A02
100
AcDbEntity
  8
Array
100
AcDbLine
 10
36.827899521
 20
-10.838702474
 30
0.000000000
 11
24.923281327
 21
-7.368822700
 31
0.000000000
  0
ARC
  5
C04
330
A02
100
AcDbEntity
  8
Array
100
AcDbCircle
 10
0.310018319
 20
-0.097746625
 30
0.000000000
 40
38.064731447
100
AcDbArc
 50
-18.609923926
 51
-16.390121645
  0
LINE
  5
C05
330
A02
100
AcDbEntity
  8
Array
100
AcDbLine
 10
24.642531304
 20
-8.259246180
 30
0.000000000
 11
36.384464877
 21
-12.245095539
 31
0.000000000
  0
LINE
  5
C06
330
A02
100
AcDbEntity
  8
Array
100
AcDbLine
 10
0.000000000
 20
0.000000000
 30
0.000000000
 11
-0.482962913
 21
0.129409523
 31
0.000000000
  0
ARC
  5
C07
330
A02
100
AcDbEntity
  8
Array
100
AcDbCircle
 10
0.313986898
 20
-0.084130782
 30
0.000000000
 40
25.664786444
100
AcDbArc
 50
-16.042245904
 51
-13.957821686
  0
LINE
  5
C08
330
A02
100
AcDbEntity
  8
Array
100
AcDbLine
 10
37.265625083
 20
-9.221976016
 30
0.000000000
 11
25.220983417
 21
-6.274670951
 31
0.000000000
  0
ARC
  5
C09
330
A02
100
AcDbEntity
  8
Array
100
AcDbCircle
 10
0.313986898
 20
-0.084130782
 30
0.000000000
 40
38.064731447
100
AcDbArc
 50
-16.109923926
 51
-13.890121645
  0
LINE
  5
C0A
330
A02
100
AcDbEntity
  8
Array
100
AcDbLine
 10
24.979340334
 20
-7.176493090
 30
0.000000000
 11
36.883958494
 21
-10.646372854
 31
0.000000000
  0
LINE
  5
C0B
330
A02
100
AcDbEntity
  8
Array
100
AcDbLine
 10
0.000000000
 20
0.000000000
 30
0.000000000
 11
-0.488148004
 21
0.108219807
 31
0.000000000
  0
ARC
  5
C0C
330
A02
100
AcDbEntity
  8
Array
100
AcDbCircle
 10
0.317357785
 20
-0.070354792
 30
0.000000000
 40
25.664786444
100
AcDbArc
 50
-13.542245904
 51
-11.457821686
  0
LINE
  5
C0D
330
A02
100
AcDbEntity
  8
Array
100
AcDbLine
 10
37.632413410
 20
-7.587695002
 30
0.000000000
 11
25.470675932
 21
-5.168575009
 31
0.000000000
  0
ARC
  5
C0E
330
A02
100
AcDbEntity
  8
Array
100
AcDbCircle
 10
0.317357785
 20
-0.070354792
 30
0.000000000
 40
38.064731447
100
AcDbArc
 50
-13.609923926
 51
-11.390121645
  0
LINE
  5
C0F
330
A02
100
AcDbEntity
  8
Array
100
AcDbLine
 10
25.268599768
 20
-6.080079136
 30
0.000000000
 11
37.313241400
 21
-9.027384193
 31
0.000000000
  0
LINE
  5
C10
330
A02
100
AcDbEntity
  8
Array
100
AcDbLine
 10
0.000000000
 20
0.000000000
 30
0.000000000
 11
-0.492403877
 21
0.086824089
 31
0.000000000
  0
ARC
  5
C11
330
A02
100
AcDbEntity
  8
Array
100
AcDbCircle
 10
0.320124564
 20
-0.056444878
 30
0.000000000
 40
25.664786444
100
AcDbArc
 50
-11.042245904
 51
-8.957821686
  0
LINE
  5
C12
330
A02
100
AcDbEntity
  8
Array
100
AcDbLine
 10
37.927566298
 20
-5.938970380
 30
0.000000000
 11
25.671883568
 21
-4.052640391
 31
0.000000000
  0
ARC
  5
C13
330
A02
100
AcDbEntity
  8
Array
100
AcDbCircle
 10
0.320124564
 20
-0.056444878
 30
0.000000000
 40
38.064731447
100
AcDbArc
 50
-11.109923926
 51
-8.890121645
  0
LINE
  5
C14
330
A02
100
AcDbEntity
  8
Array
100
AcDbLine
 10
25.509758988
 20
-4.972091407
 30
0.000000000
 11
37.671496430
 21
-7.391211393
 31
0.000000000
  0
LINE
  5
C15
330
A02
100
AcDbEntity
  8
Array
100
AcDbLine
 10
0.000000000
 20
0.000000000
 30
0.000000000
 11
-0.495722431
 21
0.065263096
 31
0.000000000
  0
ARC
  5
C16
330
A02
100
AcDbEntity
  8
Array
100
AcDbCircle
 10
0.322281967
 20
-0.042427518
 30
0.000000000
 40
25.664786444
100
AcDbArc
 50
-8.542245904
 51
-6.457821686
  0
LINE
  5
C17
330
A02
100
AcDbEntity
  8
Array
100
AcDbLine
 10
38.150521909
 20
-4.278940590
 30
0.000000000
 11
25.824223315
 21
-2.928991342
 31
0.000000000
  0
ARC
  5
C18
330
A02
100
AcDbEntity
  8
Array
100
AcDbCircle
 10
0.322281967
 20
-0.042427518
 30
0.000000000
 40
38.064731447
100
AcDbArc
 50
-8.609923926
 51
-6.390121645
  0
LINE
  5
C19
330
A02
100
AcDbEntity
  8
Array
100
AcDbLine
 10
25.702358931
 20
-3.854639018
 30
0.000000000
 11
37.958041625
 21
-5.740969002
 31
0.000000000
  0
LINE
  5
C1A
330
A02
100
AcDbEntity
  8
Array
100
AcDbLine
 10
0.000000000
 20
0.000000000
 30
0.000000000
 11
-0.498097349
 21
0.043577871
 31
0.000000000
  0
ARC
  5
C1B
330
A02
100
AcDbEntity
  8
Array
100
AcDbCircle
 10
0.323825888
 20
-0.028329394
 30
0.000000000
 40
25.664786444
100
AcDbArc
 50
-6.042245904
 51
-3.957821686
  0
LINE
  5
C1C
330
A02
100
AcDbEntity
  8
Array
100
AcDbLine
 10
38.300855832
 20
-2.610765593
 30
0.000000000
 11
25.927405184
 21
-1.799766791
 31
0.000000000
  0
ARC
  5
C1D
330
A02
100
AcDbEntity
  8
Array
100
AcDbCircle
 10
0.323825888
 20
-0.028329394
 30
0.000000000
 40
38.064731447
100
AcDbArc
 50
-6.109923926
 51
-3.890121645
  0
LINE
  5
C1E
330
A02
100
AcDbEntity
  8
Array
100
AcDbLine
 10
25.846032973
 20
-2.729849106
 30
0.000000000
 11
38.172331531
 21
-4.079798350
 31
0.000000000
  0
LINE
  5
C1F
330
A02
100
AcDbEntity
  8
Array
100
AcDbLine
 10
0.000000000
 20
0.000000000
 30
0.000000000
 11
-0.499524111
 21
0.021809694
 31
0.000000000
  0
ARC
  5
C20
330
A02
100
AcDbEntity
  8
Array
100
AcDbCircle
 10
0.324753389
 20
-0.014177344
 30
0.000000000
 40
25.664786444
100
AcDbArc
 50
-3.542245904
 51
-1.457821686
  0
LINE
  5
C21
330
A02
100
AcDbEntity
  8
Array
100
AcDbLine
 10
38.378281900
 20
-0.937620856
 30
0.000000000
 11
25.981232764
 21
-0.667116282
 31
0.000000000
  0
ARC
  5
C22
330
A02
100
AcDbEntity
  8
Array
100
AcDbCircle
 10
0.324753389
 20
-0.014177344
 30
0.000000000
 40
38.064731447
100
AcDbArc
 50
-3.609923926
 51
-1.390121645
  0
LINE
  5
C23
330
A02
100
AcDbEntity
  8
Array
100
AcDbLine
 10
25.940507622
 20
-1.599862770
 30
0.000000000
 11
38.313958234
 21
-2.410861570
 31
0.000000000
  0
LINE
  5
C24
330
A02
100
AcDbEntity
  8
Array
100
AcDbLine
 10
0.000000000
 20
0.000000000
 30
0.000000000
 11
-0.500000000
 21
0.000000000
 31
0.000000000
  0
ARC
  5
C25
330
A02
100
AcDbEntity
  8
Array
100
AcDbCircle
 10
0.325062702
 20
0.000001694
 30
0.000000000
 40
25.664786444
100
AcDbArc
 50
-1.042245904
 51
1.042178314
  0
LINE
  5
C26
330
A02
100
AcDbEntity
  8
Array
100
AcDbLine
 10
38.382652727
 20
0.737308696
 30
0.000000000
 11
25.985603591
 21
0.466804122
 31
0.000000000
  0
ARC
  5
C27
330
A02
100
AcDbEntity
  8
Array
100
AcDbCircle
 10
0.325062702
 20
0.000001694
 30
0.000000000
 40
38.064731447
100
AcDbArc
 50
-1.109923926
 51
1.109878355
  0
LINE
  5
C28
330
A02
100
AcDbEntity
  8
Array
100
AcDbLine
 10
25.985603040
 20
-0.466831005
 30
0.000000000
 11
38.382652141
 21
-0.737335579
 31
0.000000000
  0
LINE
  5
C29
330
A02
100
AcDbEntity
  8
Array
100
AcDbLine
 10
-0.000000000
 20
0.000000000
 30
0.000000000
 11
-0.499524111
 21
-0.021809694
 31
0.000000000
  0
ARC
  5
C2A
330
A02
100
AcDbEntity
  8
Array
100
AcDbCircle
 10
0.324753241
 20
0.014180728
 30
0.000000000
 40
25.664786444
100
AcDbArc
 50
1.457754096
 51
3.542178314
  0
LINE
  5
C2B
330
A02
100
AcDbEntity
  8
Array
100
AcDbLine
 10
38.313959993
 20
2.410834739
 30
0.000000000
 11
25.940509345
 21
1.599835936
 31
0.000000000
  0
ARC
  5
C2C
330
A02
100
AcDbEntity
  8
Array
100
AcDbCircle
 10
0.324753241
 20
0.014180728
 30
0.000000000
 40
38.064731447
100
AcDbArc
 50
1.390076074
 51
3.609878355
  0
LINE
  5
C2D
330
A02
100
AcDbEntity
  8
Array
100
AcDbLine
 10
25.981233387
 20
0.667089400
 30
0.000000000
 11
38.378282487
 21
0.937593973
 31
0.000000000
  0
LINE
  5
C2E
330
A02
100
AcDbEntity
  8
Array
100
AcDbLine
 10
-0.000000000
 20
0.000000000
 30
0.000000000
 11
-0.498097349
 21
-0.043577871
 31
0.000000000
  0
ARC
  5
C2F
330
A02
100
AcDbEntity
  8
Array
100
AcDbCircle
 10
0.323825593
 20
0.028332768
 30
0.000000000
 40
25.664786444
100
AcDbArc
 50
3.957754096
 51
6.042178314
  0
LINE
  5
C30
330
A02
100
AcDbEntity
  8
Array
100
AcDbLine
 10
38.172334458
 20
4.079771621
 30
0.000000000
 11
25.846035864
 21
2.729822373
 31
0.000000000
  0
ARC
  5
C31
330
A02
100
AcDbEntity
  8
Array
100
AcDbCircle
 10
0.323825593
 20
0.028332768
 30
0.000000000
 40
38.064731447
100
AcDbArc
 50
3.890076074
 51
6.109878355
  0
LINE
  5
C32
330
A02
100
AcDbEntity
  8
Array
100
AcDbLine
 10
25.927406979
 20
1.799739962
 30
0.000000000
 11
38.300857591
 21
2.610738762
 31
0.000000000
  0
LINE
  5
C33
330
A02
100
AcDbEntity
  8
Array
100
AcDbLine
 10
-0.000000000
 20
0.000000000
 30
0.000000000
 11
-0.495722431
 21
-0.065263096
 31
0.000000000
  0
ARC
  5
C34
330
A02
100
AcDbEntity
  8
Array
100
AcDbCircle
 10
0.322281525
 20
0.042430876
 30
0.000000000
 40
25.664786444
100
AcDbArc
 50
6.457754096
 51
8.542178314
  0
LINE
  5
C35
330
A02
100
AcDbEntity
  8
Array
100
AcDbLine
 10
37.958045716
 20
5.740942426
 30
0.000000000
 11
25.702362986
 21
3.854612437
 31
0.000000000
  0
ARC
  5
C36
330
A02
100
AcDbEntity
  8
Array
100
AcDbCircle
 10
0.322281525
 20
0.042430876
 30
0.000000000
 40
38.064731447
100
AcDbArc
 50
6.390076074
 51
8.609878355
  0
LINE
  5
C37
330
A02
100
AcDbEntity
  8
Array
100
AcDbLine
 10
25.824226278
 20
2.928964616
 30
0.000000000
 11
38.150524836
 21
4.278913861
 31
0.000000000
  0
LINE
  5
C38
330
A02
100
AcDbEntity
  8
Array
100
AcDbLine
 10
-0.000000000
 20
0.000000000
 30
0.000000000
 11
-0.492403877
 21
-0.086824089
 31
0.000000000
  0
ARC
  5
C39
330
A02
100
AcDbEntity
  8
Array
100
AcDbCircle
 10
0.320123975
 20
0.056448214
 30
0.000000000
 40
25.664786444
100
AcDbArc
 50
8.957754096
 51
11.042178314
  0
LINE
  5
C3A
330
A02
100
AcDbEntity
  8
Array
100
AcDbLine
 10
37.671501675
 20
7.391185020
 30
0.000000000
 11
25.509764198
 21
4.972065027
 31
0.000000000
  0
ARC
  5
C3B
330
A02
100
AcDbEntity
  8
Array
100
AcDbCircle
 10
0.320123975
 20
0.056448214
 30
0.000000000
 40
38.064731447
100
AcDbArc
 50
8.890076074
 51
11.109878355
  0
LINE
  5
C3C
330
A02
100
AcDbEntity
  8
Array
100
AcDbLine
 10
25.671887694
 20
4.052613820
 30
0.000000000
 11
37.927570389
 21
5.938943804
 31
0.000000000
  0
LINE
  5
C3D
330
A02
100
AcDbEntity
  8
Array
100
AcDbLine
 10
-0.000000000
 20
0.000000000
 30
0.000000000
 11
-0.488148004
 21
-0.108219807
 31
0.000000000
  0
ARC
  5
C3E
330
A02
100
AcDbEntity
  8
Array
100
AcDbCircle
 10
0.317357052
 20
0.070358099
 30
0.000000000
 40
25.664786444
100
AcDbArc
 50
11.457754096
 51
13.542178314
  0
LINE
  5
C3F
330
A02
100
AcDbEntity
  8
Array
100
AcDbLine
 10
37.313247791
 20
9.027358074
 30
0.000000000
 11
25.268606125
 21
6.080053009
 31
0.000000000
  0
ARC
  5
C40
330
A02
100
AcDbEntity
  8
Array
100
AcDbCircle
 10
0.317357052
 20
0.070358099
 30
0.000000000
 40
38.064731447
100
AcDbArc
 50
11.390076074
 51
13.609878355
  0
LINE
  5
C41
330
A02
100
AcDbEntity
  8
Array
100
AcDbLine
 10
25.470681213
 20
5.168548644
 30
0.000000000
 11
37.632418656
 21
7.587668630
 31
0.000000000
  0
LINE
  5
C42
330
A02
100
AcDbEntity
  8
Array
100
AcDbLine
 10
-0.000000000
 20
0.000000000
 30
0.000000000
 11
-0.482962913
 21
-0.129409523
 31
0.000000000
  0
ARC
  5
C43
330
A02
100
AcDbEntity
  8
Array
100
AcDbCircle
 10
0.313986021
 20
0.084134054
 30
0.000000000
 40
25.664786444
100
AcDbArc
 50
13.957754096
 51
16.042178314
  0
LINE
  5
C44
330
A02
100
AcDbEntity
  8
Array
100
AcDbLine
 10
36.883966018
 20
10.646347039
 30
0.000000000
 11
24.979347823
 21
7.176467265
 31
0.000000000
  0
ARC
  5
C45
330
A02
100
AcDbEntity
  8
Array
100
AcDbCircle
 10
0.313986021
 20
0.084134054
 30
0.000000000
 40
38.064731447
100
AcDbArc
 50
13.890076074
 51
16.109878355
  0
LINE
  5
C46
330
A02
100
AcDbEntity
  8
Array
100
AcDbLine
 10
25.220989843
 20
6.274644841
 30
0.000000000
 11
37.265631474
 21
9.221949897
 31
0.000000000
  0
LINE
  5
C47
330
A02
100
AcDbEntity
  8
Array
100
AcDbLine
 10
-0.000000000
 20
0.000000000
 30
0.000000000
 11
-0.476858475
 21
-0.150352900
 31
0.000000000
  0
ARC
  5
C48
330
A02
100
AcDbEntity
  8
Array
100
AcDbCircle
 10
0.310017300
 20
0.097749855
 30
0.000000000
 40
25.664786444
100
AcDbArc
 50
16.457754096
 51
18.542178314
  0
LINE
  5
C49
330
A02
100
AcDbEntity
  8
Array
100
AcDbLine
 10
36.384473520
 20
12.245070077
 30
0.000000000
 11
24.642539914
 21
8.259220707
 31
0.000000000
  0
ARC
  5
C4A
330
A02
100
AcDbEntity
  8
Array
100
AcDbCircle
 10
0.310017300
 20
0.097749855
 30
0.000000000
 40
38.064731447
100
AcDbArc
 50
16.390076074
 51
18.609878355
  0
LINE
  5
C4B
330
A02
100
AcDbEntity
  8
Array
100
AcDbLine
 10
24.923288886
 20
7.368796895
 30
0.000000000
 11
36.827907046
 21
10.838676659
 31
0.000000000
  0
LINE
  5
C4C
330
A02
100
AcDbEntity
  8
Array
100
AcDbLine
 10
-0.000000000
 20
0.000000000
 30
0.000000000
 11
-0.469846310
 21
-0.171010072
 31
0.000000000
  0
ARC
  5
C4D
330
A02
100
AcDbEntity
  8
Array
100
AcDbCircle
 10
0.305458443
 20
0.111179584
 30
0.000000000
 40
25.664786444
100
AcDbArc
 50
18.957754096
 51
21.042178314
  0
LINE
  5
C4E
330
A02
100
AcDbEntity
  8
Array
100
AcDbLine
 10
35.815721108
 20
13.820483928
 30
0.000000000
 11
24.258823529
 21
9.326252253
 31
0.000000000
  0
ARC
  5
C4F
330
A02
100
AcDbEntity
  8
Array
100
AcDbCircle
 10
0.305458443
 20
0.111179584
 30
0.000000000
 40
38.064731447
100
AcDbArc
 50
18.890076074
 51
21.109878355
  0
LINE
  5
C50
330
A02
100
AcDbEntity
  8
Array
100
AcDbLine
 10
24.578145031
 20
8.448922026
 30
0.000000000
 11
36.320078603
 21
12.434771384
 31
0.000000000
  0
LINE
  5
C51
330
A02
100
AcDbEntity
  8
Array
100
AcDbLine
 10
-0.000000000
 20
0.000000000
 30
0.000000000
 11
-0.461939766
 21
-0.191341716
 31
0.000000000
  0
ARC
  5
C52
330
A02
100
AcDbEntity
  8
Array
100
AcDbCircle
 10
0.300318129
 20
0.124397675
 30
0.000000000
 40
25.664786444
100
AcDbArc
 50
21.457754096
 51
23.542178314
  0
LINE
  5
C53
330
A02
100
AcDbEntity
  8
Array
100
AcDbLine
 10
35.178791436
 20
15.369589702
 30
0.000000000
 11
23.828929094
 21
10.375530748
 31
0.000000000
  0
ARC
  5
C54
330
A02
100
AcDbEntity
  8
Array
100
AcDbCircle
 10
0.300318129
 20
0.124397675
 30
0.000000000
 40
38.064731447
100
AcDbArc
 50
21.390076074
 51
23.609878355
  0
LINE
  5
C55
330
A02
100
AcDbEntity
  8
Array
100
AcDbLine
 10
24.186215280
 20
9.512964153
 30
0.000000000
 11
35.743112826
 21
14.007195815
 31
0.000000000
  0
LINE
  5
C56
330
A02
100
AcDbEntity
  8
Array
100
AcDbLine
 10
-0.000000000
 20
0.000000000
 30
0.000000000
 11
-0.453153894
 21
-0.211309131
 31
0.000000000
  0
ARC
  5
C57
330
A02
100
AcDbEntity
  8
Array
100
AcDbCircle
 10
0.294606143
 20
0.137378969
 30
0.000000000
 40
25.664786444
100
AcDbArc
 50
23.957754096
 51
26.042178314
  0
LINE
  5
C58
330
A02
100
AcDbEntity
  8
Array
100
AcDbLine
 10
34.474896934
 20
16.889438589
 30
0.000000000
 11
23.353674939
 21
11.405058830
 31
0.000000000
  0
ARC
  5
C59
330
A02
100
AcDbEntity
  8
Array
100
AcDbCircle
 10
0.294606143
 20
0.137378969
 30
0.000000000
 40
38.064731447
100
AcDbArc
 50
23.890076074
 51
26.109878355
  0
LINE
  5
C5A
330
A02
100
AcDbEntity
  8
Array
100
AcDbLine
 10
23.748245694
 20
10.558897812
 30
0.000000000
 11
35.098108003
 21
15.552956752
 31
0.000000000
  0
LINE
  5
C5B
330
A02
100
AcDbEntity
  8
Array
100
AcDbLine
 10
-0.000000000
 20
0.000000000
 30
0.000000000
 11
-0.443505417
 21
-0.230874307
 31
0.000000000
  0
ARC
  5
C5C
330
A02
100
AcDbEntity
  8
Array
100
AcDbCircle
 10
0.288333356
 20
0.150098754
 30
0.000000000
 40
25.664786444
100
AcDbArc
 50
26.457754096
 51
28.542178314
  0
LINE
  5
C5D
330
A02
100
AcDbEntity
  8
Array
100
AcDbLine
 10
33.705377507
 20
18.377137470
 30
0.000000000
 11
22.833965736
 21
12.412876735
 31
0.000000000
  0
ARC
  5
C5E
330
A02
100
AcDbEntity
  8
Array
100
AcDbCircle
 10
0.288333356
 20
0.150098754
 30
0.000000000
 40
38.064731447
100
AcDbArc
 50
26.390076074
 51
28.609878355
  0
LINE
  5
C5F
330
A02
100
AcDbEntity
  8
Array
100
AcDbLine
 10
23.265069973
 20
11.584732009
 30
0.000000000
 11
34.386291936
 21
17.069111752
 31
0.000000000
  0
LINE
  5
C60
330
A02
100
AcDbEntity
  8
Array
100
AcDbLine
 10
-0.000000000
 20
0.000000000
 30
0.000000000
 11
-0.433012702
 21
-0.250000000
 31
0.000000000
  0
ARC
  5
C61
330
A02
100
AcDbEntity
  8
Array
100
AcDbCircle
 10
0.281511711
 20
0.162532818
 30
0.000000000
 40
25.664786444
100
AcDbArc
 50
28.957754096
 51
31.042178314
  0
LINE
  5
C62
330
A02
100
AcDbEntity
  8
Array
100
AcDbLine
 10
32.871697978
 20
19.829854425
 30
0.000000000
 11
22.270790782
 21
13.397066023
 31
0.000000000
  0
ARC
  5
C63
330
A02
100
AcDbEntity
  8
Array
100
AcDbCircle
 10
0.281511711
 20
0.162532818
 30
0.000000000
 40
38.064731447
100
AcDbArc
 50
28.890076074
 51
31.109878355
  0
LINE
  5
C64
330
A02
100
AcDbEntity
  8
Array
100
AcDbLine
 10
22.737607868
 20
12.588514011
 30
0.000000000
 11
33.609019608
 21
18.552774728
 31
0.000000000
  0
LINE
  5
C65
330
A02
100
AcDbEntity
  8
Array
100
AcDbLine
 10
-0.000000000
 20
0.000000000
 30
0.000000000
 11
-0.421695723
 21
-0.268649804
 31
0.000000000
  0
ARC
  5
C66
330
A02
100
AcDbEntity
  8
Array
100
AcDbCircle
 10
0.274154192
 20
0.174657491
 30
0.000000000
 40
25.664786444
100
AcDbArc
 50
31.457754096
 51
33.542178314
  0
LINE
  5
C67
330
A02
100
AcDbEntity
  8
Array
100
AcDbLine
 10
31.975445304
 20
21.244824125
 30
0.000000000
 11
21.665222111
 21
14.355753235
 31
0.000000000
  0
ARC
  5
C68
330
A02
100
AcDbEntity
  8
Array
100
AcDbCircle
 10
0.274154192
 20
0.174657491
 30
0.000000000
 40
38.064731447
100
AcDbArc
 50
31.390076074
 51
33.609878355
  0
LINE
  5
C69
330
A02
100
AcDbEntity
  8
Array
100
AcDbLine
 10
22.166863435
 20
13.568333060
 30
0.000000000
 11
32.767770601
 21
20.001121443
 31
0.000000000
  0
LINE
  5
C6A
330
A02
100
AcDbEntity
  8
Array
100
AcDbLine
 10
-0.000000000
 20
0.000000000
 30
0.000000000
 11
-0.409576022
 21
-0.286788218
 31
0.000000000
  0
ARC
  5
C6B
330
A02
100
AcDbEntity
  8
Array
100
AcDbCircle
 10
0.266274806
 20
0.186449694
 30
0.000000000
 40
25.664786444
100
AcDbArc
 50
33.957754096
 51
36.042178314
  0
LINE
  5
C6C
330
A02
100
AcDbEntity
  8
Array
100
AcDbLine
 10
31.018325552
 20
22.619353094
 30
0.000000000
 11
21.018412459
 21
15.287113455
 31
0.000000000
  0
ARC
  5
C6D
330
A02
100
AcDbEntity
  8
Array
100
AcDbCircle
 10
0.266274806
 20
0.186449694
 30
0.000000000
 40
38.064731447
100
AcDbArc
 50
33.890076074
 51
36.109878355
  0
LINE
  5
C6E
330
A02
100
AcDbEntity
  8
Array
100
AcDbLine
 10
21.553923117
 20
14.522324016
 30
0.000000000
 11
31.864146280
 21
21.411394886
 31
0.000000000
  0
LINE
  5
C6F
330
A02
100
AcDbEntity
  8
Array
100
AcDbLine
 10
-0.000000000
 20
0.000000000
 30
0.000000000
 11
-0.396676670
 21
-0.304380715
 31
0.000000000
  0
ARC
  5
C70
330
A02
100
AcDbEntity
  8
Array
100
AcDbCircle
 10
0.257888550
 20
0.197886979
 30
0.000000000
 40
25.664786444
100
AcDbArc
 50
36.457754096
 51
38.542178314
  0
LINE
  5
C71
330
A02
100
AcDbEntity
  8
Array
100
AcDbLine
 10
30.002160655
 20
23.950824840
 30
0.000000000
 11
20.331593064
 21
16.189373785
 31
0.000000000
  0
ARC
  5
C72
330
A02
100
AcDbEntity
  8
Array
100
AcDbCircle
 10
0.257888550
 20
0.197886979
 30
0.000000000
 40
38.064731447
100
AcDbArc
 50
36.390076074
 51
38.609878355
  0
LINE
  5
C73
330
A02
100
AcDbEntity
  8
Array
100
AcDbLine
 10
20.899953681
 20
15.448670903
 30
0.000000000
 11
30.899866746
 21
22.780910522
 31
0.000000000
  0
LINE
  5
C74
330
A02
100
AcDbEntity
  8
Array
100
AcDbLine
 10
-0.000000000
 20
0.000000000
 30
0.000000000
 11
-0.383022222
 21
-0.321393805
 31
0.000000000
  0
ARC
  5
C75
330
A02
100
AcDbEntity
  8
Array
100
AcDbCircle
 10
0.249011388
 20
0.208947575
 30
0.000000000
 40
25.664786444
100
AcDbArc
 50
38.957754096
 51
41.042178314
  0
LINE
  5
C76
330
A02
100
AcDbEntity
  8
Array
100
AcDbLine
 10
28.928884939
 20
25.236704829
 30
0.000000000
 11
19.606071327
 21
17.060816722
 31
0.000000000
  0
ARC
  5
C77
330
A02
100
AcDbEntity
  8
Array
100
AcDbCircle
 10
0.249011388
 20
0.208947575
 30
0.000000000
 40
38.064731447
100
AcDbArc
 50
38.890076074
 51
41.109878355
  0
LINE
  5
C78
330
A02
100
AcDbEntity
  8
Array
100
AcDbLine
 10
20.206199996
 20
16.345610367
 30
0.000000000
 11
29.876767559
 21
24.107061400
 31
0.000000000
  0
LINE
  5
C79
330
A02
100
AcDbEntity
  8
Array
100
AcDbLine
 10
-0.000000000
 20
0.000000000
 30
0.000000000
 11
-0.368638668
 21
-0.337795104
 31
0.000000000
  0
ARC
  5
C7A
330
A02
100
AcDbEntity
  8
Array
100
AcDbCircle
 10
0.239660219
 20
0.219610427
 30
0.000000000
 40
25.664786444
100
AcDbArc
 50
41.457754096
 51
43.542178314
  0
LINE
  5
C7B
330
A02
100
AcDbEntity
  8
Array
100
AcDbLine
 10
27.800541447
 20
26.474545316
 30
0.000000000
 11
18.843228318
 21
17.899783425
 31
0.000000000
  0
ARC
  5
C7C
330
A02
100
AcDbEntity
  8
Array
100
AcDbCircle
 10
0.239660219
 20
0.219610427
 30
0.000000000
 40
38.064731447
100
AcDbArc
 50
41.390076074
 51
43.609878355
  0
LINE
  5
C7D
330
A02
100
AcDbEntity
  8
Array
100
AcDbLine
 10
19.473982661
 20
17.211435033
 30
0.000000000
 11
28.796796247
 21
25.387323117
 31
0.000000000
  0
LINE
  5
C7E
330
A02
100
AcDbEntity
  8
Array
100
AcDbLine
 10
-0.000000000
 20
0.000000000
 30
0.000000000
 11
-0.353553391
 21
-0.353553391
 31
0.000000000
  0
ARC
  5
C7F
330
A02
100
AcDbEntity
  8
Array
100
AcDbCircle
 10
0.229852844
 20
0.229855239
 30
0.000000000
 40
25.664786444
100
AcDbArc
 50
43.957754096
 51
46.042178314
  0
LINE
  5
C80
330
A02
100
AcDbEntity
  8
Array
100
AcDbLine
 10
26.619278045
 20
27.661990002
 30
0.000000000
 11
18.044516153
 21
18.704676872
 31
0.000000000
  0
ARC
  5
C81
330
A02
100
AcDbEntity
  8
Array
100
AcDbCircle
 10
0.229852844
 20
0.229855239
 30
0.000000000
 40
38.064731447
100
AcDbArc
 50
43.890076074
 51
46.109878355
  0
LINE
  5
C82
330
A02
100
AcDbEntity
  8
Array
100
AcDbLine
 10
18.704695492
 20
18.044496754
 30
0.000000000
 11
27.662008596
 21
26.619258621
 31
0.000000000
  0
LINE
  5
C83
330
A02
100
AcDbEntity
  8
Array
100
AcDbLine
 10
-0.000000000
 20
0.000000000
 30
0.000000000
 11
-0.337795104
 21
-0.368638668
 31
0.000000000
  0
ARC
  5
C84
330
A02
100
AcDbEntity
  8
Array
100
AcDbCircle
 10
0.219607930
 20
0.239662508
 30
0.000000000
 40
25.664786444
100
AcDbArc
 50
46.457754096
 51
48.542178314
  0
LINE
  5
C85
330
A02
100
AcDbEntity
  8
Array
100
AcDbLine
 10
25.387343333
 20
28.796778517
 30
0.000000000
 11
17.211455226
 21
19.473964904
 31
0.000000000
  0
ARC
  5
C86
330
A02
100
AcDbEntity
  8
Array
100
AcDbCircle
 10
0.219607930
 20
0.239662508
 30
0.000000000
 40
38.064731447
100
AcDbArc
 50
46.390076074
 51
48.609878355
  0
LINE
  5
C87
330
A02
100
AcDbEntity
  8
Array
100
AcDbLine
 10
17.899802873
 20
18.843209749
 30
0.000000000
 11
26.474564740
 21
27.800522853
 31
0.000000000
  0
LINE
  5
C88
330
A02
100
AcDbEntity
  8
Array
100
AcDbLine
 10
-0.000000000
 20
0.000000000
 30
0.000000000
 11
-0.321393805
 21
-0.383022222
 31
0.000000000
  0
ARC
  5
C89
330
A02
100
AcDbEntity
  8
Array
100
AcDbCircle
 10
0.208944980
 20
0.249013565
 30
0.000000000
 40
25.664786444
100
AcDbArc
 50
48.957754096
 51
51.042178314
  0
LINE
  5
C8A
330
A02
100
AcDbEntity
  8
Array
100
AcDbLine
 10
24.107082370
 20
29.876750728
 30
0.000000000
 11
16.345631315
 21
20.206183138
 31
0.000000000
  0
ARC
  5
C8B
330
A02
100
AcDbEntity
  8
Array
100
AcDbCircle
 10
0.208944980
 20
0.249013565
 30
0.000000000
 40
38.064731447
100
AcDbArc
 50
48.890076074
 51
51.109878355
  0
LINE
  5
C8C
330
A02
100
AcDbEntity
  8
Array
100
AcDbLine
 10
17.060836962
 20
19.606053624
 30
0.000000000
 11
25.236725046
 21
28.928867210
 31
0.000000000
  0
LINE
  5
C8D
330
A02
100
AcDbEntity
  8
Array
100
AcDbLine
 10
-0.000000000
 20
0.000000000
 30
0.000000000
 11
-0.304380715
 21
-0.396676670
 31
0.000000000
  0
ARC
  5
C8E
330
A02
100
AcDbEntity
  8
Array
100
AcDbCircle
 10
0.197884292
 20
0.257890612
 30
0.000000000
 40
25.664786444
100
AcDbArc
 50
51.457754096
 51
53.542178314
  0
LINE
  5
C8F
330
A02
100
AcDbEntity
  8
Array
100
AcDbLine
 10
22.780932207
 20
30.899850846
 30
0.000000000
 11
15.448692567
 21
20.899937753
 31
0.000000000
  0
ARC
  5
C90
330
A02
100
AcDbEntity
  8
Array
100
AcDbCircle
 10
0.197884292
 20
0.257890612
 30
0.000000000
 40
38.064731447
100
AcDbArc
 50
51.390076074
 51
53.609878355
  0
LINE
  5
C91
330
A02
100
AcDbEntity
  8
Array
100
AcDbLine
 10
16.189394778
 20
20.331576262
 30
0.000000000
 11
23.950845811
 21
30.002143824
 31
0.000000000
  0
LINE
  5
C92
330
A02
100
AcDbEntity
  8
Array
100
AcDbLine
 10
-0.000000000
 20
0.000000000
 30
0.000000000
 11
-0.286788218
 21
-0.409576022
 31
0.000000000
  0
ARC
  5
C93
330
A02
100
AcDbEntity
  8
Array
100
AcDbCircle
 10
0.186446919
 20
0.266276749
 30
0.000000000
 40
25.664786444
100
AcDbArc
 50
53.957754096
 51
56.042178314
  0
LINE
  5
C94
330
A02
100
AcDbEntity
  8
Array
100
AcDbLine
 10
21.411417243
 20
31.864131341
 30
0.000000000
 11
14.522346354
 21
21.553908148
 31
0.000000000
  0
ARC
  5
C95
330
A02
100
AcDbEntity
  8
Array
100
AcDbCircle
 10
0.186446919
 20
0.266276749
 30
0.000000000
 40
38.064731447
100
AcDbArc
 50
53.890076074
 51
56.109878355
  0
LINE
  5
C96
330
A02
100
AcDbEntity
  8
Array
100
AcDbLine
 10
15.287135160
 20
21.018396588
 30
0.000000000
 11
22.619374779
 21
31.018309653
 31
0.000000000
  0
LINE
  5
C97
330
A02
100
AcDbEntity
  8
Array
100
AcDbLine
 10
-0.000000000
 20
0.000000000
 30
0.000000000
 11
-0.268649804
 21
-0.421695723
 31
0.000000000
  0
ARC
  5
C98
330
A02
100
AcDbEntity
  8
Array
100
AcDbCircle
 10
0.174654634
 20
0.274156012
 30
0.000000000
 40
25.664786444
100
AcDbArc
 50
56.457754096
 51
58.542178314
  0
LINE
  5
C99
330
A02
100
AcDbEntity
  8
Array
100
AcDbLine
 10
20.001144430
 20
32.767756651
 30
0.000000000
 11
13.568356029
 21
22.166849455
 31
0.000000000
  0
ARC
  5
C9A
330
A02
100
AcDbEntity
  8
Array
100
AcDbCircle
 10
0.174654634
 20
0.274156012
 30
0.000000000
 40
38.064731447
100
AcDbArc
 50
56.390076074
 51
58.609878355
  0
LINE
  5
C9B
330
A02
100
AcDbEntity
  8
Array
100
AcDbLine
 10
14.355775613
 20
21.665207202
 30
0.000000000
 11
21.244846482
 21
31.975430365
 31
0.000000000
  0
LINE
  5
C9C
330
A02
100
AcDbEntity
  8
Array
100
AcDbLine
 10
-0.000000000
 20
0.000000000
 30
0.000000000
 11
-0.250000000
 21
-0.433012702
 31
0.000000000
  0
ARC
  5
C9D
330
A02
100
AcDbEntity
  8
Array
100
AcDbCircle
 10
0.162529884
 20
0.281513405
 30
0.000000000
 40
25.664786444
100
AcDbArc
 50
58.957754096
 51
61.042178314
  0
LINE
  5
C9E
330
A02
100
AcDbEntity
  8
Array
100
AcDbLine
 10
18.552798302
 20
33.609006674
 30
0.000000000
 11
12.588537568
 21
22.737594903
 31
0.000000000
  0
ARC
  5
C9F
330
A02
100
AcDbEntity
  8
Array
100
AcDbCircle
 10
0.162529884
 20
0.281513405
 30
0.000000000
 40
38.064731447
100
AcDbArc
 50
58.890076074
 51
61.109878355
  0
LINE
  5
CA0
330
A02
100
AcDbEntity
  8
Array
100
AcDbLine
 10
13.397089030
 20
22.270776863
 30
0.000000000
 11
19.829877413
 21
32.871684029
 31
0.000000000
  0
LINE
  5
CA1
330
A02
100
AcDbEntity
  8
Array
100
AcDbLine
 10
-0.000000000
 20
0.000000000
 30
0.000000000
 11
-0.230874307
 21
-0.443505417
 31
0.000000000
  0
ARC
  5
CA2
330
A02
100
AcDbEntity
  8
Array
100
AcDbCircle
 10
0.150095750
 20
0.288334920
 30
0.000000000
 40
25.664786444
100
AcDbArc
 50
61.457754096
 51
63.542178314
  0
LINE
  5
CA3
330
A02
100
AcDbEntity
  8
Array
100
AcDbLine
 10
17.069135868
 20
34.386280043
 30
0.000000000
 11
11.584756110
 21
23.265058048
 31
0.000000000
  0
ARC
  5
CA4
330
A02
100
AcDbEntity
  8
Array
100
AcDbCircle
 10
0.150095750
 20
0.288334920
 30
0.000000000
 40
38.064731447
100
AcDbArc
 50
61.390076074
 51
63.609878355
  0
LINE
  5
CA5
330
A02
100
AcDbEntity
  8
Array
100
AcDbLine
 10
12.412900327
 20
22.833952834
 30
0.000000000
 11
18.377161044
 21
33.705364574
 31
0.000000000
  0
LINE
  5
CA6
330
A02
100
AcDbEntity
  8
Array
100
AcDbLine
 10
-0.000000000
 20
0.000000000
 30
0.000000000
 11
-0.211309131
 21
-0.453153894
 31
0.000000000
  0
ARC
  5
CA7
330
A02
100
AcDbEntity
  8
Array
100
AcDbCircle
 10
0.137375899
 20
0.294607574
 30
0.000000000
 40
25.664786444
100
AcDbArc
 50
63.957754096
 51
66.042178314
  0
LINE
  5
CA8
330
A02
100
AcDbEntity
  8
Array
100
AcDbLine
 10
15.552981364
 20
35.098097173
 30
0.000000000
 11
10.558922410
 21
23.748234832
 31
0.000000000
  0
ARC
  5
CA9
330
A02
100
AcDbEntity
  8
Array
100
AcDbCircle
 10
0.137375899
 20
0.294607574
 30
0.000000000
 40
38.064731447
100
AcDbArc
 50
63.890076074
 51
66.109878355
  0
LINE
  5
CAA
330
A02
100
AcDbEntity
  8
Array
100
AcDbLine
 10
11.405082962
 20
23.353663079
 30
0.000000000
 11
16.889462705
 21
34.474885042
 31
0.000000000
  0
LINE
  5
CAB
330
A02
100
AcDbEntity
  8
Array
100
AcDbLine
 10
-0.000000000
 20
0.000000000
 30
0.000000000
 11
-0.191341716
 21
-0.461939766
 31
0.000000000
  0
ARC
  5
CAC
330
A02
100
AcDbEntity
  8
Array
100
AcDbCircle
 10
0.124394546
 20
0.300319426
 30
0.000000000
 40
25.664786444
100
AcDbArc
 50
66.457754096
 51
68.542178314
  0
LINE
  5
CAD
330
A02
100
AcDbEntity
  8
Array
100
AcDbLine
 10
14.007220876
 20
35.743103081
 30
0.000000000
 11
9.512989201
 21
24.186205501
 31
0.000000000
  0
ARC
  5
CAE
330
A02
100
AcDbEntity
  8
Array
100
AcDbCircle
 10
0.124394546
 20
0.300319426
 30
0.000000000
 40
38.064731447
100
AcDbArc
 50
66.390076074
 51
68.609878355
  0
LINE
  5
CAF
330
A02
100
AcDbEntity
  8
Array
100
AcDbLine
 10
10.375555374
 20
23.828918298
 30
0.000000000
 11
15.369614314
 21
35.178780606
 31
0.000000000
  0
LINE
  5
CB0
330
A02
100
AcDbEntity
  8
Array
100
AcDbLine
 10
-0.000000000
 20
0.000000000
 30
0.000000000
 11
-0.171010072
 21
-0.469846310
 31
0.000000000
  0
ARC
  5
CB1
330
A02
100
AcDbEntity
  8
Array
100
AcDbCircle
 10
0.111176401
 20
0.305459602
 30
0.000000000
 40
25.664786444
100
AcDbArc
 50
68.957754096
 51
71.042178314
  0
LINE
  5
CB2
330
A02
100
AcDbEntity
  8
Array
100
AcDbLine
 10
12.434796846
 20
36.320069960
 30
0.000000000
 11
8.448947476
 21
24.578136354
 31
0.000000000
  0
ARC
  5
CB3
330
A02
100
AcDbEntity
  8
Array
100
AcDbCircle
 10
0.111176401
 20
0.305459602
 30
0.000000000
 40
38.064731447
100
AcDbArc
 50
68.890076074
 51
71.109878355
  0
LINE
  5
CB4
330
A02
100
AcDbEntity
  8
Array
100
AcDbLine
 10
9.326277327
 20
24.258813817
 30
0.000000000
 11
13.820508989
 21
35.815711362
 31
0.000000000
  0
LINE
  5
CB5
330
A02
100
AcDbEntity
  8
Array
100
AcDbLine
 10
-0.000000000
 20
0.000000000
 30
0.000000000
 11
-0.150352900
 21
-0.476858475
 31
0.000000000
  0
ARC
  5
CB6
330
A02
100
AcDbEntity
  8
Array
100
AcDbCircle
 10
0.097746625
 20
0.310018319
 30
0.000000000
 40
25.664786444
100
AcDbArc
 50
71.457754096
 51
73.542178314
  0
LINE
  5
CB7
330
A02
100
AcDbEntity
  8
Array
100
AcDbLine
 10
10.838702474
 20
36.827899521
 30
0.000000000
 11
7.368822700
 21
24.923281327
 31
0.000000000
  0
ARC
  5
CB8
330
A02
100
AcDbEntity
  8
Array
100
AcDbCircle
 10
0.097746625
 20
0.310018319
 30
0.000000000
 40
38.064731447
100
AcDbArc
 50
71.390076074
 51
73.609878355
  0
LINE
  5
CB9
330
A02
100
AcDbEntity
  8
Array
100
AcDbLine
 10
8.259246180
 20
24.642531304
 30
0.000000000
 11
12.245095539
 21
36.384464877
 31
0.000000000
  0
LINE
  5
CBA
330
A02
100
AcDbEntity
  8
Array
100
AcDbLine
 10
-0.000000000
 20
0.000000000
 30
0.000000000
 11
-0.129409523
 21
-0.482962913
 31
0.000000000
  0
ARC
  5
CBB
330
A02
100
AcDbEntity
  8
Array
100
AcDbCircle
 10
0.084130782
 20
0.313986898
 30
0.000000000
 40
25.664786444
100
AcDbArc
 50
73.957754096
 51
76.042178314
  0
LINE
  5
CBC
330
A02
100
AcDbEntity
  8
Array
100
AcDbLine
 10
9.221976016
 20
37.265625083
 30
0.000000000
 11
6.274670951
 21
25.220983417
 31
0.000000000
  0
ARC
  5
CBD
330
A02
100
AcDbEntity
  8
Array
100
AcDbCircle
 10
0.084130782
 20
0.313986898
 30
0.000000000
 40
38.064731447
100
AcDbArc
 50
73.890076074
 51
76.109878355
  0
LINE
  5
CBE
330
A02
100
AcDbEntity
  8
Array
100
AcDbLine
 10
7.176493090
 20
24.979340334
 30
0.000000000
 11
10.646372854
 21
36.883958494
 31
0.000000000
  0
LINE
  5
CBF
330
A02
100
AcDbEntity
  8
Array
100
AcDbLine
 10
-0.000000000
 20
0.000000000
 30
0.000000000
 11
-0.108219807
 21
-0.488148004
 31
0.000000000
  0
ARC
  5
CC0
330
A02
100
AcDbEntity
  8
Array
100
AcDbCircle
 10
0.070354792
 20
0.317357785
 30
0.000000000
 40
25.664786444
100
AcDbArc
 50
76.457754096
 51
78.542178314
  0
LINE
  5
CC1
330
A02
100
AcDbEntity
  8
Array
100
AcDbLine
 10
7.587695002
 20
37.632413410
 30
0.000000000
 11
5.168575009
 21
25.470675932
 31
0.000000000
  0
ARC
  5
CC2
330
A02
100
AcDbEntity
  8
Array
100
AcDbCircle
 10
0.070354792
 20
0.317357785
 30
0.000000000
 40
38.064731447
100
AcDbArc
 50
76.390076074
 51
78.609878355
  0
LINE
  5
CC3
330
A02
100
AcDbEntity
  8
Array
100
AcDbLine
 10
6.080079136
 20
25.268599768
 30
0.000000000
 11
9.027384193
 21
37.313241400
 31
0.000000000
  0
LINE
  5
CC4
330
A02
100
AcDbEntity
  8
Array
100
AcDbLine
 10
-0.000000000
 20
0.000000000
 30
0.000000000
 11
-0.086824089
 21
-0.492403877
 31
0.000000000
  0
ARC
  5
CC5
330
A02
100
AcDbEntity
  8
Array
100
AcDbCircle
 10
0.056444878
 20
0.320124564
 30
0.000000000
 40
25.664786444
100
AcDbArc
 50
78.957754096
 51
81.042178314
  0
LINE
  5
CC6
330
A02
100
AcDbEntity
  8
Array
100
AcDbLine
 10
5.938970380
 20
37.927566298
 30
0.000000000
 11
4.052640391
 21
25.671883568
 31
0.000000000
  0
ARC
  5
CC7
330
A02
100
AcDbEntity
  8
Array
100
AcDbCircle
 10
0.056444878
 20
0.320124564
 30
0.000000000
 40
38.064731447
100
AcDbArc
 50
78.890076074
 51
81.109878355
  0
LINE
  5
CC8
330
A02
100
AcDbEntity
  8
Array
100
AcDbLine
 10
4.972091407
 20
25.509758988
 30
0.000000000
 11
7.391211393
 21
37.671496430
 31
0.000000000
  0
LINE
  5
CC9
330
A02
100
AcDbEntity
  8
Array
100
AcDbLine
 10
-0.000000000
 20
0.000000000
 30
0.000000000
 11
-0.065263096
 21
-0.495722431
 31
0.000000000
  0
ARC
  5
CCA
330
A02
100
AcDbEntity
  8
Array
100
AcDbCircle
 10
0.042427518
 20
0.322281967
 30
0.000000000
 40
25.664786444
100
AcDbArc
 50
81.457754096
 51
83.542178314
  0
LINE
  5
CCB
330
A02
100
AcDbEntity
  8
Array
100
AcDbLine
 10
4.278940590
 20
38.150521909
 30
0.000000000
 11
2.928991342
 21
25.824223315
 31
0.000000000
  0
ARC
  5
CCC
330
A02
100
AcDbEntity
  8
Array
100
AcDbCircle
 10
0.042427518
 20
0.322281967
 30
0.000000000
 40
38.064731447
100
AcDbArc
 50
81.390076074
 51
83.609878355
  0
LINE
  5
CCD
330
A02
100
AcDbEntity
  8
Array
100
AcDbLine
 10
3.854639018
 20
25.702358931
 30
0.000000000
 11
5.740969002
 21
37.958041625
 31
0.000000000
  0
LINE
  5
CCE
330
A02
100
AcDbEntity
  8
Array
100
AcDbLine
 10
-0.000000000
 20
0.000000000
 30
0.000000000
 11
-0.043577871
 21
-0.498097349
 31
0.000000000
  0
ARC
  5
CCF
330
A02
100
AcDbEntity
  8
Array
100
AcDbCircle
 10
0.028329394
 20
0.323825888
 30
0.000000000
 40
25.664786444
100
AcDbArc
 50
83.957754096
 51
86.042178314
  0
LINE
  5
CD0
330
A02
100
AcDbEntity
  8
Array
100
AcDbLine
 10
2.610765593
 20
38.300855832
 30
0.000000000
 11
1.799766791
 21
25.927405184
 31
0.000000000
  0
ARC
  5
CD1
330
A02
100
AcDbEntity
  8
Array
100
AcDbCircle
 10
0.028329394
 20
0.323825888
 30
0.000000000
 40
38.064731447
100
AcDbArc
 50
83.890076074
 51
86.109878355
  0
LINE
  5
CD2
330
A02
100
AcDbEntity
  8
Array
100
AcDbLine
 10
2.729849106
 20
25.846032973
 30
0.000000000
 11
4.079798350
 21
38.172331531
 31
0.000000000
  0
LINE
  5
CD3
330
A02
100
AcDbEntity
  8
Array
100
AcDbLine
 10
-0.000000000
 20
0.000000000
 30
0.000000000
 11
-0.021809694
 21
-0.499524111
 31
0.000000000
  0
ARC
  5
CD4
330
A02
100
AcDbEntity
  8
Array
100
AcDbCircle
 10
0.014177344
 20
0.324753389
 30
0.000000000
 40
25.664786444
100
AcDbArc
 50
86.457754096
 51
88.542178314
  0
LINE
  5
CD5
330
A02
100
AcDbEntity
  8
Array
100
AcDbLine
 10
0.937620856
 20
38.378281900
 30
0.000000000
 11
0.667116282
 21
25.981232764
 31
0.000000000
  0
ARC
  5
CD6
330
A02
100
AcDbEntity
  8
Array
100
AcDbCircle
 10
0.014177344
 20
0.324753389
 30
0.000000000
 40
38.064731447
100
AcDbArc
 50
86.390076074
 51
88.609878355
  0
LINE
  5
CD7
330
A02
100
AcDbEntity
  8
Array
100
AcDbLine
 10
1.599862770
 20
25.940507622
 30
0.000000000
 11
2.410861570
 21
38.313958234
 31
0.000000000
  0
ENDSEC
  0
SECTION
  2
OBJECTS
  0
DICTIONARY
  5
F000
330
0
100
AcDbDictionary
  3
ACAD_GROUP
350
F001
  0
DICTIONARY
  5
F001
330
F000
100
AcDbDictionary
  0
ENDSEC
  0
EOF